<svg width="190" height="108" viewBox="0 0 190 108" fill="none" xmlns="http://www.w3.org/2000/svg">
<g clip-path="url(#clip0_62_6772)">
<path d="M64.515 115.902C64.515 114.412 64.515 112.673 64.515 110.754C64.515 108.474 64.515 105.923 64.4699 103.214C64.4699 103.192 64.4699 103.169 64.4699 103.147C64.4699 102.921 64.4699 102.695 64.4699 102.492C64.4699 102.379 64.4699 102.244 64.4699 102.131C64.4699 101.815 64.4699 101.499 64.4699 101.183C64.4699 100.866 64.4699 100.55 64.4699 100.234C64.4699 99.8957 64.4699 99.5571 64.4699 99.1959C64.4021 93.5746 64.2892 87.5922 64.1537 82.129C64.1537 81.4292 64.1086 80.7519 64.086 80.0746C64.0634 79.2394 64.0408 78.4041 63.9957 77.5914C63.9053 74.9275 63.7924 72.4668 63.657 70.3673C63.6118 69.7578 64.086 69.2385 64.6957 69.1934C64.9667 69.1934 65.2151 69.2611 65.4183 69.4191C65.6667 69.5997 65.8473 69.8932 65.8699 70.2318C66.028 72.7377 66.1635 75.8757 66.2538 79.3071C66.299 79.3522 66.3667 79.42 66.4119 79.4877C66.5248 79.6457 66.6603 79.8037 66.7732 79.9618C67.3829 80.7293 68.0829 81.384 68.8281 81.9258C70.2959 83.0094 71.9895 83.6641 73.7508 83.8447C76.3251 84.093 78.8317 83.2352 81.1124 81.4066C81.3834 81.1808 81.6543 80.9551 81.9253 80.6842C82.4221 80.2101 82.8963 79.736 83.3479 79.2394C86.0125 76.3497 88.1126 72.9634 89.9643 69.8255C89.3772 69.8255 88.7449 69.7352 88.0675 69.5997C86.7126 69.3288 84.7706 68.3807 83.1221 65.4459C82.9866 65.1976 82.8512 64.9492 82.7382 64.7009C81.9253 65.4459 80.7737 66.4618 79.5994 67.5228C77.5445 69.374 75.1961 71.4735 74.767 71.8798C74.5412 72.1056 74.2702 72.1959 73.9767 72.1959C73.6831 72.1959 73.4121 72.083 73.1863 71.8798C72.7573 71.4509 72.7573 70.7511 73.1863 70.3221C73.4121 70.0964 73.9992 69.5546 74.8122 68.8322C71.0862 64.1817 66.2312 58.8991 64.6731 57.2059C64.4021 56.9124 64.2441 56.7318 64.1763 56.6641C63.9505 56.4384 63.7247 56.2352 63.5215 56.032C57.6051 50.5236 51.4404 48.8531 49.1597 48.4016C48.5951 48.2887 48.279 48.2435 48.2564 48.2435C48.2564 48.2435 48.2113 48.2435 48.1887 48.2435C47.9177 48.3113 47.5338 48.379 47.0822 48.4241C46.608 48.4919 46.0435 48.537 45.4112 48.537C44.9595 50.2527 44.1466 51.1332 40.9852 51.7427C40.4658 51.833 39.9465 51.8782 39.4271 51.8782C35.8818 51.8782 32.3591 49.7109 30.101 47.4534C29.288 46.6407 28.6332 45.828 28.2041 45.083C28.159 45.1056 28.0912 45.1282 28.0461 45.1507C20.4587 48.6047 15.3327 51.991 10.5906 58.8991C3.52266 69.2385 2.34842 81.0002 2.12261 90.1206C1.91938 98.022 3.2291 112.515 3.5904 116.421L12.9617 116.601L15.536 116.647L15.3327 109.806L14.7682 90.2109C14.7682 90.2109 14.7682 90.1206 14.7682 90.0755C14.7682 89.8497 14.8359 89.6466 14.9714 89.466C15.1521 88.721 15.536 86.8472 15.965 84.8832C16.9812 79.9843 18.5393 72.6022 19.7813 68.3581C19.9619 67.7711 20.5716 67.4325 21.1587 67.6131C21.7459 67.7937 22.0846 68.4032 21.9039 68.9902C20.6845 73.144 19.1264 80.481 18.1102 85.3347C17.7941 86.8246 17.5231 88.1114 17.3199 89.0144C17.207 89.5563 17.0941 90.0303 16.9812 90.3915L17.5231 109.874L17.7489 117.753C17.7489 118.046 17.636 118.34 17.4328 118.565C17.2296 118.769 16.936 118.904 16.6425 118.904C16.7779 119.243 16.9134 119.604 17.0489 119.965H64.3118C64.3344 119.04 64.357 117.64 64.3796 115.902H64.515Z" fill="white"/>
<path d="M83.9578 63.3011C84.0481 63.7075 84.2287 64.1364 84.5223 64.6782C85.8772 67.0712 87.3676 67.8388 88.4063 68.0419C89.3773 68.2451 90.1902 68.2903 90.958 68.2C91.6129 68.1322 92.2226 67.9516 92.8774 67.7033C93.2613 67.5453 93.6452 67.3873 94.0742 67.1841C94.3678 67.0486 94.6839 66.8906 95.0227 66.71C98.2066 65.0846 99.8099 63.4817 101.097 62.2175C101.142 62.1724 101.187 62.1272 101.233 62.0821C101.436 61.8789 101.639 61.6757 101.82 61.4951L101.887 61.4274C102.542 60.8179 102.971 60.3438 103.287 60.0052C103.762 59.4633 103.897 59.1924 103.942 59.0796C103.987 58.9667 103.942 58.9215 103.942 58.899C103.897 58.8087 103.739 58.7184 103.558 58.6732C103.491 58.6732 103.423 58.6281 103.378 58.6055C103.355 58.6055 103.333 58.6281 103.287 58.6506C102.791 58.9215 102.091 59.373 101.233 60.0729C100.623 60.5695 99.9228 61.1565 99.1776 61.8789C98.9744 62.0821 98.6583 62.1047 98.4099 61.9466C97.9582 61.6306 94.8646 61.4951 92.1096 63.8204C91.9967 63.9107 91.8612 63.9558 91.7258 63.9558C91.5451 63.9558 91.387 63.8881 91.2741 63.7526C91.0483 63.5043 91.0935 63.1205 91.3419 62.8948C94.0517 60.5921 97.2356 60.2761 98.6357 60.7276C99.2905 60.118 100.262 59.2602 101.233 58.5378C101.842 58.0863 102.475 57.6799 103.016 57.4316C103.062 57.3638 103.107 57.2961 103.197 57.2284C103.242 57.2058 103.265 57.1607 103.31 57.1381C104.371 56.2351 104.326 55.8513 104.304 55.6707C104.304 55.5353 104.191 55.3772 104.055 55.2869C103.987 55.2418 103.942 55.2418 103.92 55.2418C103.807 55.2869 103.671 55.2869 103.558 55.2418C103.468 55.2869 103.4 55.3321 103.287 55.3772C102.745 55.6707 102 56.1448 101.233 56.664C100.081 57.4542 98.8615 58.3797 98.1389 59.0796C98.026 59.1924 97.8679 59.2376 97.7324 59.2376C97.5743 59.2376 97.4163 59.1699 97.3034 59.057C97.0776 58.8087 97.0776 58.4249 97.3034 58.1991C97.8453 57.6799 99.6067 56.2802 101.233 55.2192C101.842 54.8128 102.429 54.4742 102.926 54.2259C102.971 54.0904 103.039 53.955 103.152 53.8647C103.22 53.8195 103.265 53.7518 103.287 53.7067C103.581 53.3229 103.423 53.0068 103.333 52.8714C103.333 52.8714 103.31 52.8488 103.287 52.8262C103.107 52.6456 102.7 52.6456 102.294 52.8262C102.204 52.8714 102.091 52.8939 101.978 52.8939C101.774 53.0068 101.526 53.1423 101.21 53.3229C99.7422 54.1582 97.2356 55.6933 96.084 56.7995C95.9711 56.9123 95.813 56.9575 95.6775 56.9575C95.5194 56.9575 95.3614 56.8898 95.2485 56.7769C95.0227 56.5286 95.0227 56.1448 95.2485 55.919C96.6033 54.6097 99.5615 52.8262 101.007 52.0361C100.871 51.72 100.736 51.6072 100.397 51.6297C99.6518 51.6749 98.2292 52.3521 97.2582 52.9842C96.3098 53.5938 95.4743 54.113 94.6613 54.6097C92.7645 55.761 91.2741 56.664 89.5128 58.2894C89.287 58.4926 88.9934 58.5603 88.7224 58.47C88.4515 58.3797 88.2482 58.1314 88.1805 57.8605C88.045 57.1607 88.0224 56.3705 87.9998 55.5353C87.9773 54.6097 87.9547 53.6389 87.7966 52.6908C87.774 52.5102 87.6385 52.3747 87.503 52.3296C87.2772 52.2618 87.0514 52.4424 86.9159 52.5779C86.6675 52.8262 86.4869 53.1649 86.3965 53.5712C86.0127 55.3998 85.561 56.7092 85.1094 57.9508C84.8836 58.5603 84.6804 59.1247 84.4771 59.7568C84.3868 60.0503 84.2965 60.3438 84.2062 60.6598C83.9803 61.45 83.8674 62.0369 83.8674 62.5787C83.8674 62.7819 83.89 62.9851 83.9352 63.2108L83.9578 63.3011Z" fill="white"/>
<path d="M98.6357 60.7503C97.2356 60.2988 94.0517 60.6149 91.3419 62.9176C91.0935 63.1433 91.0483 63.5045 91.2741 63.7754C91.3871 63.9109 91.5677 63.9786 91.7258 63.9786C91.8613 63.9786 91.9968 63.9335 92.1097 63.8432C94.8646 61.5179 97.9583 61.6534 98.4099 61.9694C98.6357 62.1274 98.9518 62.1049 99.1776 61.9017C99.9228 61.1793 100.623 60.5923 101.233 60.0957V58.5605C100.262 59.283 99.2906 60.1408 98.6357 60.7503Z" fill="#2E2F30"/>
<path d="M103.287 58.6733C103.287 58.6733 103.333 58.6507 103.378 58.6282C103.355 58.6282 103.333 58.6056 103.287 58.583V58.6733Z" fill="#2E2F30"/>
<path d="M101.21 60.0953C102.091 59.3955 102.791 58.9214 103.265 58.6731V58.5828C103.084 58.4699 102.949 58.3118 102.904 58.1087C102.836 57.8829 102.904 57.6797 102.994 57.4766C102.452 57.7249 101.82 58.1312 101.21 58.5828V60.1179V60.0953Z" fill="#2E2F30"/>
<path d="M104.665 57.9279C104.71 57.6796 104.597 57.4538 104.394 57.3184C104.258 57.4764 104.123 57.6344 103.942 57.7924C104.123 57.7247 104.394 57.7924 104.642 57.9053L104.665 57.9279Z" fill="#2E2F30"/>
<path d="M103.355 58.6277C103.626 58.4923 103.829 58.4246 103.942 58.4246C104.258 58.4923 104.574 58.3117 104.665 57.9731C104.665 57.9731 104.665 57.9505 104.665 57.9279C104.416 57.815 104.145 57.7473 103.965 57.815C103.897 57.8828 103.852 57.9279 103.784 57.9956C103.807 57.9053 103.874 57.8602 103.965 57.815C104.123 57.657 104.281 57.499 104.416 57.341C104.371 57.2958 104.304 57.2732 104.236 57.2507C103.987 57.1829 103.649 57.2507 103.287 57.3635V58.5826C103.287 58.5826 103.333 58.6052 103.378 58.6277H103.355Z" fill="#2E2F30"/>
<path d="M103.784 57.9736C103.784 57.9736 103.897 57.8607 103.965 57.793C103.875 57.8155 103.807 57.8833 103.784 57.9736Z" fill="#2E2F30"/>
<path d="M102.903 58.0858C102.949 58.289 103.084 58.4696 103.265 58.5599V57.3408C103.265 57.3408 103.084 57.4085 102.994 57.4537C102.881 57.6343 102.836 57.8601 102.903 58.0858Z" fill="#2E2F30"/>
<path d="M97.3032 58.2895C97.0548 58.5153 97.0548 58.899 97.3032 59.1474C97.4161 59.2602 97.5742 59.328 97.7323 59.328C97.8904 59.328 98.0258 59.2828 98.1387 59.1699C98.8614 58.4701 100.081 57.5445 101.232 56.7544V55.3096C99.6065 56.3706 97.8452 57.7703 97.3032 58.2895Z" fill="#2E2F30"/>
<path d="M103.287 55.4445C103.287 55.4445 103.468 55.3542 103.558 55.3091C103.468 55.3091 103.378 55.2639 103.287 55.2188V55.4445Z" fill="#2E2F30"/>
<path d="M101.21 56.7544C101.978 56.2126 102.723 55.7611 103.265 55.4676V55.2419C103.152 55.1742 103.039 55.0839 102.971 54.9484C102.858 54.7452 102.836 54.542 102.904 54.3389C102.407 54.5872 101.82 54.9258 101.21 55.3322V56.777V56.7544Z" fill="#2E2F30"/>
<path d="M103.694 54.5195C103.92 54.3389 104.304 54.384 104.642 54.5646C104.642 54.2711 104.462 54.0228 104.168 53.9551C104.168 53.9551 104.168 53.9551 104.145 53.9551C103.987 54.226 103.807 54.4292 103.694 54.5195Z" fill="#2E2F30"/>
<path d="M103.536 55.3091C103.717 55.2188 103.875 55.1511 103.965 55.1285C104.258 55.1511 104.552 54.9705 104.62 54.6544C104.62 54.6093 104.62 54.5867 104.62 54.5415C104.281 54.3609 103.897 54.3158 103.671 54.4964C103.784 54.4061 103.965 54.1803 104.123 53.932C103.92 53.9094 103.626 53.9772 103.265 54.1126V55.1962C103.265 55.1962 103.446 55.2865 103.536 55.2865V55.3091Z" fill="#2E2F30"/>
<path d="M102.994 54.9259C103.062 55.0613 103.174 55.1516 103.287 55.2194V54.1357C103.174 54.1809 103.039 54.2486 102.926 54.2938C102.858 54.4969 102.881 54.7227 102.994 54.9033V54.9259Z" fill="#2E2F30"/>
<path d="M95.2483 56.8667C95.3612 56.9795 95.5193 57.0473 95.6774 57.0473C95.8354 57.0473 95.9709 57.0021 96.0838 56.8892C97.2355 55.7831 99.742 54.2479 101.21 53.4127V52.5774C101.21 52.5774 101.119 52.3968 101.074 52.3065C101.052 52.2387 101.029 52.1936 101.007 52.1484C99.5614 52.9386 96.6032 54.722 95.2483 56.0314C94.9999 56.2571 94.9999 56.6409 95.2483 56.8892V56.8667Z" fill="#2E2F30"/>
<path d="M101.21 52.5781V53.4134C101.526 53.2328 101.774 53.0974 101.978 52.9845C101.865 52.9845 101.729 52.9845 101.639 52.9393C101.436 52.849 101.3 52.7136 101.21 52.5781Z" fill="#2E2F30"/>
<path d="M102.271 52.104C102.136 51.9008 101.865 51.7879 101.639 51.8556C101.639 52.104 101.571 52.3297 101.481 52.4652C101.684 52.3749 101.955 52.2394 102.271 52.1265V52.104Z" fill="#2E2F30"/>
<path d="M101.21 52.5779V52.0361C101.21 52.0361 101.074 52.1039 101.007 52.149C101.007 52.1942 101.052 52.2393 101.074 52.307C101.097 52.3973 101.142 52.4876 101.21 52.5779Z" fill="#2E2F30"/>
<path d="M101.639 52.9393C101.639 52.9393 101.865 53.007 101.978 52.9845C101.978 52.9845 102.023 52.9619 102.045 52.9393C102.339 52.7813 102.452 52.4201 102.294 52.1266C102.294 52.1266 102.294 52.104 102.271 52.0814C101.955 52.1943 101.684 52.3523 101.481 52.4201C101.549 52.2846 101.616 52.0589 101.639 51.8105C101.594 51.8105 101.549 51.8331 101.503 51.8557C101.413 51.9008 101.323 51.946 101.232 52.0137V52.5555C101.323 52.691 101.436 52.849 101.661 52.9167L101.639 52.9393Z" fill="#2E2F30"/>
<path d="M186.5 80.571C186.522 80.7516 186.545 80.9322 186.545 81.0903C188.442 76.372 187.087 70.2316 186.884 69.3737C186.432 67.4548 185.935 65.7617 185.439 64.2266C184.513 67.816 183.384 72.1053 182.548 75.2207C184.58 76.0786 186.161 78.1555 186.5 80.5485V80.571Z" fill="white"/>
<path d="M139.847 49.1014C141.066 48.4919 142.376 48.7628 143.031 49.1014C143.257 49.2143 143.415 49.3949 143.505 49.6206C143.505 49.6206 143.505 49.6206 143.528 49.6883L142.015 43.3673C141.608 43.0061 141.202 42.6223 140.818 42.1934C140.524 42.2611 140.231 42.3514 139.96 42.4191L137.95 47.7694L139.847 49.0562V49.1014Z" fill="white"/>
<path d="M138.447 54.9703L139.802 58.1534C140.005 57.9954 140.231 57.8599 140.456 57.747C139.982 56.3022 139.598 55.0832 139.282 54.0898L138.424 54.9703H138.447Z" fill="white"/>
<path d="M166.809 48.7848L163.76 50.8843L163.376 51.1552L163.76 51.5389L166.402 54.248C166.628 54.4737 166.696 54.8349 166.56 55.1284L166.086 56.212H175.774C175.774 56.212 175.819 56.212 175.841 56.212H182.051C181.532 55.2864 181.216 54.8349 181.216 54.8124C181.216 54.8124 181.193 54.7672 181.171 54.7446C176.88 47.8366 169.925 44.1568 165.047 42.3057L167.102 47.8366C167.238 48.1752 167.102 48.5816 166.809 48.7848Z" fill="white"/>
<path d="M150.099 109.648C150.189 109.49 150.279 109.355 150.369 109.197C150.573 108.858 150.934 108.655 151.318 108.655C151.702 108.655 152.063 108.881 152.266 109.219L152.537 109.693L155.676 115.36C156.715 115.36 158.973 115.36 161.728 115.36C162.383 115.36 163.083 115.36 163.783 115.36C168.367 115.36 173.764 115.36 177.535 115.314C177.896 115.314 178.235 115.314 178.551 115.314C178.551 113.847 178.551 111.59 178.574 108.835C178.574 108.452 178.574 108.045 178.574 107.639C178.596 103.192 178.641 97.7058 178.687 92.3329C178.077 92.4458 177.467 92.4458 176.858 92.378C176.654 92.6038 176.361 92.7392 176.045 92.7392H147.479C147.163 92.7392 146.847 92.6038 146.644 92.3555C146.44 92.1071 146.35 91.7911 146.418 91.475L149.602 75.0402L149.037 72.6698V72.7376C148.992 73.1213 148.721 73.46 148.337 73.5728C148.247 73.5954 148.157 73.618 148.066 73.618C147.773 73.618 147.502 73.4825 147.321 73.2568L146.056 71.7217C146.056 71.7217 145.831 71.9023 145.718 71.9926L148.089 77.5461C148.269 77.9524 148.089 78.4265 147.66 78.6071C147.547 78.6523 147.457 78.6749 147.344 78.6749C147.027 78.6749 146.734 78.4943 146.598 78.1782L144.34 72.9182C142.85 73.7986 140.976 74.4759 138.785 74.4307C138.605 74.5887 138.379 74.8371 138.198 74.9951C138.447 75.1757 138.627 75.4692 138.672 75.8078C138.74 76.2819 138.785 76.6205 136.256 79.4198C135.059 80.7518 133.162 82.6932 130.995 84.409C129.617 85.4926 128.082 86.2827 126.456 86.7568C126.433 90.5494 126.365 95.7869 126.32 100.821C126.32 102.876 126.275 104.907 126.253 106.781C126.207 110.28 126.185 113.238 126.185 114.863C126.501 114.863 126.84 114.863 127.156 114.863C127.562 114.863 127.969 114.863 128.353 114.863C141.179 115.089 145.244 115.179 146.576 115.224C147.186 114.344 148.676 111.928 150.031 109.626L150.099 109.648ZM151.408 95.7643C152.289 95.7643 153.012 96.4867 153.012 97.3672C153.012 98.2476 152.289 98.97 151.408 98.97C150.528 98.97 149.805 98.2476 149.805 97.3672C149.805 96.4867 150.528 95.7643 151.408 95.7643Z" fill="white"/>
<path d="M135.872 76.1686C134.901 75.3107 133.298 73.911 132.666 73.1886C132.011 72.4436 130.633 70.9311 129.64 69.554C128.94 70.0055 128.082 70.5247 127.178 71.0666C125.643 71.9921 123.904 73.0532 123.046 73.7304C122.527 74.1594 121.759 74.0691 121.33 73.5498C120.901 73.0306 120.991 72.263 121.511 71.8341C122.482 71.044 124.175 70.0281 125.824 69.0348L126.049 62.7589C126.072 62.0816 126.637 61.5624 127.314 61.5849C127.991 61.6075 128.511 62.1719 128.488 62.8492L128.33 67.4997C128.691 67.2513 129.008 67.0482 129.233 66.8901C129.504 66.6644 129.866 66.5967 130.204 66.6418C130.543 66.7095 130.859 66.9127 131.017 67.2288C131.085 67.3416 131.153 67.4771 131.243 67.59C131.356 66.9804 131.559 65.942 131.853 65.3324C132.824 63.3007 133.614 62.1945 134.405 61.743C134.721 61.5624 135.014 61.4495 135.285 61.3818C135.646 60.411 136.437 59.5983 137.114 59.2823C137.521 59.0791 137.972 58.9888 138.424 59.0114L136.753 55.1059C136.618 54.8124 136.685 54.4512 136.911 54.2254L138.74 52.3517C138.514 51.6744 138.401 51.2455 138.334 51.0649C138.243 50.7714 138.311 50.4553 138.492 50.2296C138.492 50.207 138.537 50.1844 138.56 50.1619L136.527 48.7622C136.234 48.559 136.098 48.1752 136.234 47.814L137.995 43.0732C132.282 45.1276 126.93 48.8977 122.346 54.0674C112.93 65.6033 112.433 76.0783 115.956 80.9545C115.956 80.9771 116.001 80.9997 116.001 81.0222C117.22 83.0089 119.049 84.2731 121.33 84.6794C124.062 85.1761 127.133 84.3408 129.527 82.4445C132.35 80.2321 134.766 77.4779 135.85 76.146L135.872 76.1686Z" fill="white"/>
<path d="M163.196 41.9219C162.722 42.4863 162.248 43.0055 161.706 43.4796C161.525 43.6376 161.367 43.773 161.186 43.9085L158.138 56.1894H164.348L164.867 54.9704L163.76 53.819L161.706 51.7195L161.57 51.5841C161.412 51.4035 161.322 51.1777 161.344 50.952C161.367 50.7262 161.502 50.5005 161.683 50.365L163.738 48.9428L165.364 47.8366L163.738 43.4796L163.173 41.9445L163.196 41.9219Z" fill="white"/>
<path d="M149.602 61.201C150.483 61.043 151.566 61.1785 152.176 61.8331L153.079 57.1826L152.899 56.2119V56.1442L151.996 51.584H150.595L150.144 54.0447L149.963 54.9477L149.037 59.7788C149.263 60.2303 149.466 60.727 149.647 61.2236L149.602 61.201Z" fill="#3B3B3B"/>
<path d="M149.963 67.9066L150.528 70.2544L151.228 66.6875C150.844 67.1164 150.415 67.5454 149.963 67.9066Z" fill="#3B3B3B"/>
<path d="M154.254 53.9776C154.096 53.3004 153.915 52.6231 153.734 51.9459C153.667 51.6524 153.576 51.3589 153.509 51.0654L154.118 54.1808V54.226L154.525 56.19H154.773C154.638 55.445 154.457 54.7226 154.276 54.0002C154.276 54.0002 154.276 54.0002 154.276 53.9776H154.254Z" fill="#3B3B3B"/>
<path d="M151.996 49.9594L152.334 48.5371L152.47 47.9727L151.95 47.3406L151.544 46.844C151.273 46.844 151.002 46.8214 150.754 46.7988L150.483 47.1826L149.85 48.0856V48.1308L150.483 50.0271L152.018 49.9819L151.996 49.9594Z" fill="#3B3B3B"/>
<path d="M142.398 40.5C142.511 40.6129 142.602 40.7258 142.714 40.8386C142.827 40.9741 142.963 41.087 143.098 41.2224C143.279 41.403 143.482 41.5836 143.685 41.7416C143.956 41.9674 144.25 42.1932 144.544 42.3738C146.079 43.4122 147.863 44.0669 149.918 44.3604C150.008 44.3604 150.121 44.383 150.211 44.4055C150.279 44.4055 150.347 44.4055 150.437 44.4281C150.437 44.4281 150.46 44.4281 150.482 44.4281C150.866 44.4733 151.25 44.4958 151.657 44.4958C151.679 44.4958 151.724 44.4958 151.747 44.4958C151.77 44.4958 151.815 44.4958 151.837 44.4958C151.905 44.4958 151.973 44.4958 152.041 44.4958C152.199 44.4958 152.357 44.4958 152.515 44.4958C155.315 44.4507 157.663 43.7283 159.538 42.306C159.673 42.2157 159.786 42.1029 159.921 42.0126C159.921 42.0126 159.921 42.0126 159.944 42.0126C160.012 41.9674 160.057 41.9223 160.125 41.8545C160.418 41.5836 160.712 41.3127 161.005 40.9967C161.254 40.7483 161.48 40.4549 161.683 40.184C161.683 40.1614 161.728 40.1388 161.728 40.1162C161.909 39.8905 162.067 39.6421 162.225 39.4164C162.338 39.2584 162.428 39.0778 162.541 38.9197C163.015 38.1296 163.422 37.2492 163.783 36.2784C164.122 35.3754 164.415 34.3821 164.664 33.3211C164.799 32.689 165.431 32.3052 166.064 32.4632C166.493 32.5761 166.809 32.9147 166.922 33.3211C167.057 33.2759 167.238 33.1405 167.599 32.847H167.622C168.864 31.8085 169.88 29.8896 170.219 28.8512C170.467 28.0836 170.264 27.6547 170.219 27.587C169.677 27.2935 168.931 27.1129 168.277 27.9933C168.277 27.9933 168.277 27.9933 168.254 28.0159C168.231 28.061 168.186 28.0836 168.164 28.1288C168.164 28.1288 168.119 28.1739 168.096 28.1739C168.051 28.1965 168.028 28.2191 167.983 28.2642C167.983 28.2642 167.938 28.2868 167.915 28.3094C167.87 28.3319 167.802 28.3545 167.757 28.3771C167.757 28.3771 167.757 28.3771 167.735 28.3771C167.667 28.3997 167.599 28.4222 167.531 28.4222H167.486C167.441 28.4222 167.396 28.4222 167.351 28.4222C167.351 28.4222 167.351 28.4222 167.328 28.4222C167.238 28.4222 167.17 28.4222 167.08 28.3997C165.928 28.1288 164.822 27.587 163.805 26.8871C163.06 26.3905 162.383 25.8035 161.751 25.1488C161.028 24.4039 160.373 23.6137 159.831 22.7559C159.357 22.056 158.973 21.3336 158.634 20.6338C156.602 21.6497 154.502 22.5527 152.334 23.2977C151.182 23.704 147.84 24.7425 147.344 24.5393C146.869 24.3587 146.576 23.6589 146.937 23.2977C146.802 23.4331 138.537 26.5259 137.295 27.9256C137.227 27.9933 137.182 28.0385 137.114 28.0385C137.114 28.0385 137.092 28.061 137.069 28.0836C136.505 28.3997 135.805 28.2191 135.466 27.6773C135.217 27.2483 134.879 27.0226 134.472 26.9774C134.043 26.9323 133.659 27.0903 133.546 27.1806C133.072 28.061 132.959 28.5351 133.275 29.5284C133.524 30.3637 134.314 31.6505 135.714 32.8018H135.737C136.256 33.2534 136.414 33.3662 136.572 33.3211C136.685 32.9825 136.979 32.689 137.363 32.5761C137.972 32.3955 138.627 32.7793 138.785 33.3888C139.53 36.0978 140.592 38.3102 141.947 40.0259C142.082 40.2065 142.24 40.3871 142.398 40.5677V40.5ZM146.486 33.908C145.65 33.8855 145.018 33.2308 145.108 31.5828C145.153 30.3863 145.808 29.7768 146.44 29.7768C147.186 29.7768 147.795 30.0251 147.818 31.6731C147.84 33.2534 147.231 33.9306 146.508 33.908H146.486ZM156.828 33.9306C156.083 33.9306 155.518 33.3888 155.563 31.786C155.608 30.138 156.263 29.7993 156.963 29.7768C157.776 29.7768 158.273 30.5443 158.25 31.7408C158.228 33.3437 157.731 33.9532 156.828 33.9306ZM155.496 27.6095C156.263 27.3838 157.641 27.2709 158.973 27.6998C159.312 27.8127 159.492 28.1739 159.38 28.5126C159.289 28.7835 159.041 28.9641 158.77 28.9641C158.702 28.9641 158.634 28.9641 158.567 28.9415C157.438 28.5803 156.286 28.7383 155.834 28.8512C155.496 28.9415 155.134 28.7609 155.044 28.4222C154.954 28.0836 155.134 27.7224 155.473 27.6321L155.496 27.6095ZM150.031 36.2107C150.234 36.0527 150.528 36.0753 150.686 36.2559C150.912 36.5268 151.182 36.6622 151.499 36.6622C151.882 36.6622 152.221 36.4816 152.379 36.301C152.56 36.1204 152.853 36.0978 153.034 36.2784C153.215 36.459 153.237 36.7525 153.057 36.9331C152.695 37.3395 152.086 37.6104 151.499 37.6104C151.499 37.6104 151.499 37.6104 151.476 37.6104C150.889 37.6104 150.37 37.3395 149.963 36.8654C149.805 36.6622 149.828 36.3687 150.008 36.2107H150.031ZM149.15 40.0711C149.308 39.8679 149.579 39.8453 149.76 39.9808C150.663 40.658 152.56 40.5903 153.328 40.0259C153.531 39.8905 153.802 39.9356 153.937 40.1388C154.073 40.342 154.028 40.6129 153.825 40.7483C153.283 41.1321 152.424 41.3579 151.544 41.3579C150.663 41.3579 149.805 41.1547 149.195 40.6806C148.992 40.5226 148.97 40.2517 149.105 40.0711H149.15ZM144.634 27.8127C145.966 27.4289 147.344 27.587 148.111 27.8353C148.45 27.9482 148.631 28.3094 148.518 28.648C148.428 28.9189 148.179 29.0995 147.908 29.0995C147.84 29.0995 147.773 29.0995 147.705 29.0769C147.253 28.9415 146.124 28.7383 144.973 29.0769C144.634 29.1672 144.273 28.9641 144.182 28.6254C144.092 28.2868 144.295 27.9256 144.634 27.8353V27.8127Z" fill="white"/>
<path d="M166.719 58.3574L166.515 59.5313H174.216L174.464 58.3574H166.719Z" fill="white"/>
<path d="M176.135 60.8398C176.022 61.3365 175.593 61.6751 175.074 61.6751H165.251C164.935 61.6751 164.641 61.5397 164.438 61.2913C164.28 61.1107 164.212 60.9076 164.189 60.6818C164.189 60.5915 164.189 60.5012 164.189 60.4335L164.528 58.3566H155.021L154.976 58.5823L154.705 59.9368L154.163 62.7813L153.192 67.8607L151.747 75.3106L151.499 76.5522L150.934 79.5321L150.211 83.2571L149.828 85.1985L148.789 90.594H173.335C172.454 89.7813 171.438 88.6977 170.941 87.7495C170.67 87.2303 170.648 86.6885 170.67 86.237C170.151 85.7403 169.496 84.9954 169.406 84.2504C169.27 83.3248 169.406 82.6927 169.609 82.2863C169.519 81.8574 169.519 81.3382 169.744 80.7964C169.925 80.3223 170.331 79.6224 170.941 79.2161C171.122 78.1551 171.89 77.6358 172.319 77.3423C173.064 76.8457 174.08 76.8683 174.893 76.8908C175.051 76.8908 175.209 76.8908 175.367 76.8908C176.722 76.8683 177.761 77.0037 178.845 77.1843C179.07 77.2295 179.274 77.252 179.5 77.2972C179.59 77.2972 179.658 77.3198 179.748 77.3423C180.064 76.191 180.538 74.4527 181.08 72.4435C181.329 71.5405 181.577 70.5698 181.825 69.599C182.458 67.1609 183.135 64.6099 183.7 62.4427C183.858 61.8106 184.016 61.201 184.174 60.6592C184.4 59.7562 184.626 58.9435 184.761 58.334H176.677L176.135 60.8173V60.8398Z" fill="white"/>
<path d="M148.812 52.1266L149.06 50.8623L148.428 48.9434L148.089 49.3949C147.999 49.5078 147.886 49.5981 147.75 49.6433C147.682 49.6659 147.592 49.6884 147.502 49.711C147.502 49.711 147.457 49.711 147.434 49.711C147.231 49.711 147.028 49.6207 146.87 49.4853L145.921 48.5597L145.108 47.7695L147.457 57.5672C147.457 57.5672 147.615 57.7478 147.705 57.8381L148.586 53.2102L148.789 52.1266H148.812Z" fill="white"/>
<path d="M147.366 47.7016L147.66 47.3178L148.292 46.4825H148.315C148.157 46.4148 148.021 46.3922 147.863 46.3471C147.254 46.189 146.644 46.0084 146.079 45.8053C145.673 45.6472 145.289 45.4892 144.905 45.3086L146.576 46.934L147.366 47.7241V47.7016Z" fill="white"/>
<path d="M153.463 50.7938L153.509 51.0647C153.576 51.3582 153.667 51.6517 153.734 51.9452C153.915 52.6224 154.096 53.2997 154.254 53.9769C154.254 53.9769 154.254 53.9769 154.254 53.9995C154.434 54.7219 154.592 55.4669 154.751 56.1893H156.06L158.431 46.5723L158.386 46.6174L157.799 47.1818L157.46 47.5204L155.405 49.4619C155.247 49.5974 155.067 49.6877 154.863 49.6877C154.863 49.6877 154.818 49.6877 154.796 49.6877C154.57 49.6877 154.367 49.5522 154.231 49.3716L153.915 48.9652L153.486 50.7938H153.463Z" fill="white"/>
<path d="M156.421 46.3018C155.721 46.4824 154.999 46.6178 154.254 46.7081C154.254 46.7081 154.208 46.7081 154.186 46.7081L154.931 47.7014L156.421 46.3018Z" fill="white"/>
<path d="M142.376 57.2733C142.376 57.2733 142.443 57.1379 142.511 57.0702C142.782 56.6864 143.189 56.3703 143.618 56.1897C142.76 53.5258 142.263 52.0133 141.992 51.2006C141.924 50.9974 141.879 50.8394 141.834 50.7265C141.472 50.6362 140.908 50.6136 140.366 51.0651C140.456 51.3812 140.614 51.8553 140.84 52.5551C141.179 53.571 141.653 55.0835 142.376 57.2959V57.2733Z" fill="white"/>
<path d="M147.344 70.2319L147.524 68.4033L147.163 67.252C146.96 67.41 146.757 67.5229 146.531 67.5906C146.26 67.6809 146.011 67.726 145.786 67.7712L146.079 68.6742L147.366 70.2319H147.344Z" fill="white"/>
<path d="M30.2366 43.7734C30.2366 43.7734 30.2366 43.8412 30.2592 43.8863C30.2592 43.8412 30.2592 43.796 30.2366 43.7734Z" fill="white"/>
<path d="M28.159 35.7819C28.2719 35.7368 28.3848 35.6916 28.4977 35.669C29.13 35.5562 29.7397 35.9851 29.8526 36.6398C29.8977 36.8881 29.9429 37.3396 29.9655 37.9491C30.0106 38.7619 30.0558 39.868 30.1235 41.2226C30.1461 41.7869 30.1687 42.4416 30.1913 42.9609C30.1913 43.4124 30.2365 43.7961 30.259 43.9316C30.259 43.9993 30.2816 44.0896 30.2816 44.1573C31.6591 46.4149 36.4238 50.3881 40.6465 49.598C42.4756 49.2368 42.9724 48.9433 43.1982 48.4466C42.2272 48.3112 41.211 48.0403 40.2174 47.5888C39.7206 47.363 39.4723 46.8212 39.6077 46.302C39.6077 46.2343 39.6529 46.1665 39.6755 46.1214C39.9239 45.557 40.5787 45.3087 41.1433 45.557C42.1143 46.0085 43.1304 46.2117 44.0789 46.302C44.124 46.302 44.1692 46.302 44.2143 46.302C44.5756 46.3246 44.9144 46.3471 45.2305 46.3471C46.337 46.3471 47.2628 46.1891 47.737 46.0988C47.9854 46.0537 48.1209 46.0085 48.1209 46.0085C48.2564 45.9634 48.3919 45.9182 48.5048 45.8731C49.8597 45.4216 51.0114 44.7669 51.9824 43.909C53.8792 42.1933 55.1212 39.5746 55.776 35.9399C56.1373 33.863 56.2277 30.0027 55.9793 25.8488C54.4437 24.3363 52.1178 21.7853 51.0339 19.2568C47.3306 22.0562 41.0078 25.1264 38.1399 25.1264C38.027 25.1264 37.9367 25.1264 37.8464 25.1264C37.5302 25.1038 37.2367 24.9458 37.0335 24.6975C36.8302 24.4491 36.7625 24.1331 36.8076 23.817C36.8302 23.6364 36.7173 23.0721 36.627 22.6657C35.4076 23.6816 34.3463 24.8103 33.2398 26.8421C33.2398 26.8647 33.2172 26.8873 33.1946 26.9098C32.1785 28.4675 31.7042 30.0252 31.4333 30.9734L31.3429 31.2669C31.2075 31.741 30.7784 32.057 30.3042 32.0796H30.2365L29.6493 32.1022L28.1815 32.1699H28.1138C27.6622 32.1925 27.2331 31.9441 27.0299 31.5152C26.9396 31.3572 26.8718 31.1991 26.7815 31.0637C26.0137 29.7092 25.2911 29.3028 24.8847 29.1674C24.5234 29.0545 24.275 29.0996 24.1846 29.1674C23.5749 29.4834 23.4394 29.6189 23.3491 31.1766C23.3491 31.2443 23.3491 31.312 23.3491 31.3797C23.3491 31.8538 23.5298 32.6214 23.7782 33.4115C24.0717 34.3597 24.5234 35.353 25.0653 35.9399L25.1105 35.9851C25.404 36.3012 25.946 36.8881 26.5105 36.8881C26.9396 36.8881 27.3686 36.5721 27.7073 36.256C27.8202 36.098 27.9783 35.9625 28.159 35.8496V35.7819ZM44.4402 31.9441C43.5369 32.057 42.9949 31.4926 42.8143 29.9124C42.6788 28.7384 43.1079 27.9032 43.8982 27.8354C44.5982 27.7903 45.2757 28.0612 45.4789 29.6866C45.6821 31.2894 45.1628 31.8764 44.4402 31.9441ZM52.9082 31.1088C52.2759 31.1991 51.6888 30.567 51.5533 28.9868C51.4178 27.3388 51.9146 27.0453 52.5695 26.9776C53.1114 26.9098 53.7437 27.4742 53.9018 28.6707C54.1276 30.3187 53.6534 31.0185 52.9308 31.1088H52.9082ZM50.8759 25.1264C51.5533 24.8329 52.2533 24.5846 53.6534 24.8555C53.9921 24.9232 54.2405 25.2393 54.1727 25.6005C54.105 25.9391 53.7889 26.1874 53.4276 26.1197C52.2985 25.9165 51.8694 26.1197 51.3952 26.3229C51.3049 26.368 51.2146 26.368 51.1468 26.368C50.8984 26.368 50.6726 26.2326 50.5597 25.9843C50.4242 25.6682 50.5597 25.2844 50.8984 25.149L50.8759 25.1264ZM49.4758 35.3304C49.5436 34.9918 49.8823 34.766 50.2436 34.8338C50.3565 34.8563 50.5597 34.8338 50.65 34.7435C50.65 34.7435 50.6726 34.7209 50.65 34.6757C50.65 34.6306 50.5823 34.292 49.9952 32.5537C49.8823 32.215 50.0629 31.8538 50.4017 31.741C50.7404 31.6281 51.1017 31.8087 51.2146 32.1473C51.8694 34.1114 51.892 34.4048 51.9146 34.5177C51.9824 34.9692 51.8243 35.3981 51.4856 35.6916C51.1468 36.0077 50.6952 36.1206 50.2887 36.1206C50.1758 36.1206 50.0629 36.1205 49.95 36.0754C49.6113 36.0077 49.3855 35.669 49.4532 35.3078L49.4758 35.3304ZM45.795 40.1615C45.9757 39.8455 46.3596 39.7552 46.6757 39.9358C47.4209 40.3647 49.1823 40.2518 49.9274 39.5746C50.1758 39.3262 50.5823 39.3488 50.8307 39.5971C51.0791 39.8455 51.0565 40.2518 50.8081 40.5002C50.1081 41.1548 48.979 41.4709 47.9403 41.4709C47.2177 41.4709 46.5402 41.3129 46.0434 41.042C45.7273 40.8614 45.637 40.4776 45.8176 40.1615H45.795ZM41.7078 25.9617C42.9949 25.4199 44.3724 25.3747 45.1402 25.5328C45.4789 25.6005 45.7273 25.9391 45.6596 26.2777C45.5918 26.6164 45.2531 26.8647 44.9144 26.797C44.4627 26.7067 43.3111 26.6841 42.2046 27.1356C42.1143 27.1808 42.0465 27.1807 41.9562 27.1807C41.7078 27.1807 41.482 27.0453 41.3691 26.797C41.2336 26.4809 41.3691 26.0971 41.7078 25.9617Z" fill="white"/>
<path d="M181.984 77.3203C181.803 77.975 181.645 78.5168 181.532 78.878C181.442 79.1715 181.239 79.3747 181.013 79.5101C180.809 79.623 180.584 79.6681 180.358 79.623C180.064 79.5778 179.771 79.5327 179.5 79.4875C179.387 79.4875 179.251 79.4424 179.138 79.4198C179.026 79.4198 178.935 79.3747 178.822 79.3747C177.671 79.1715 176.7 79.036 175.39 79.0586C175.232 79.0586 175.029 79.0586 174.825 79.0586C174.464 79.0586 173.719 79.036 173.516 79.1489C173.335 79.2844 173.222 79.3521 173.154 79.4424C174.6 80.0293 176.88 80.7969 178.822 81.271C179.071 81.3387 179.296 81.3839 179.522 81.429C179.635 81.4516 179.771 81.4742 179.884 81.4967C180.313 81.587 180.584 81.9934 180.493 82.4223C180.426 82.7835 180.087 83.0544 179.726 83.0544C179.68 83.0544 179.613 83.0544 179.567 83.0544C179.567 83.0544 179.545 83.0544 179.522 83.0544C179.296 83.0093 179.048 82.9641 178.8 82.8964C176.858 82.4449 174.351 81.6322 172.545 80.8872C172.432 80.9549 172.296 81.0001 172.138 81.0227C172.07 81.0904 171.935 81.2258 171.845 81.429C172.748 82.0837 175.796 83.3253 177.309 83.9349C177.851 84.1606 178.303 84.3412 178.619 84.4767C178.687 84.4992 178.755 84.5444 178.8 84.5895C179.071 84.8153 179.161 85.1765 179.026 85.5151C178.98 85.6506 178.89 85.7409 178.777 85.8086C178.642 85.9215 178.484 85.9892 178.303 85.9892C178.19 85.9892 178.1 85.9892 177.987 85.9215C177.693 85.786 177.242 85.6054 176.722 85.4023C174.735 84.6121 172.883 83.822 171.687 83.1673C171.641 83.2125 171.596 83.2802 171.551 83.3253C171.551 83.4156 171.506 83.5962 171.551 83.98C171.641 84.1832 172.116 84.7024 172.545 85.041C172.59 85.0636 172.612 85.1088 172.635 85.1313C174.035 85.9215 176.045 86.689 176.677 86.9374C177.084 87.0954 177.287 87.5469 177.129 87.9533C177.016 88.2693 176.722 88.4725 176.383 88.4725C176.293 88.4725 176.203 88.4725 176.113 88.4273C175.48 88.2016 174.238 87.7049 173.064 87.1405C173.629 87.9758 174.758 89.1046 175.548 89.6915C176.361 90.3011 177.558 90.4591 178.732 90.1656C179.003 90.0979 179.274 90.0076 179.545 89.8947C179.59 89.8947 179.635 89.8721 179.658 89.8496C180.109 89.6238 180.538 89.3529 180.945 88.9917C181.69 88.3596 182.368 87.5243 183 86.4633C183.813 85.0862 184.716 83.0093 184.422 80.9323C184.242 79.5778 183.361 78.0879 182.029 77.388L181.984 77.3203Z" fill="white"/>
<path d="M137.972 61.0435C137.769 61.1338 137.476 61.4047 137.272 61.7434C137.385 61.8111 137.498 61.8563 137.611 61.924C138.176 62.24 140.931 65.2425 141.224 65.9198C141.315 66.123 141.36 66.3036 141.405 66.4616C141.563 66.6648 141.676 66.8002 141.811 66.8905C142.082 67.0937 142.308 67.0937 142.557 67.0486C142.624 67.0034 142.737 66.8905 142.85 66.7325C142.602 65.6037 141.811 64.5879 141.066 63.73C140.705 63.3236 140.321 62.9173 139.937 62.5109C139.485 62.0369 139.011 61.5853 138.537 61.1564C138.469 61.0887 138.402 61.021 138.356 60.9307C138.221 60.9307 138.085 60.9532 137.972 61.021V61.0435Z" fill="white"/>
<path d="M145.944 65.7621C145.944 65.7621 146.192 65.5363 146.282 65.2428C146.282 65.2203 146.26 65.1751 146.237 65.1525C145.56 63.0756 144.002 60.8407 142.376 59.5539C142.285 59.4861 142.24 59.4184 142.172 59.3281C141.879 59.3281 141.563 59.3733 141.269 59.5087C140.998 59.6442 140.772 59.8248 140.592 60.028C140.524 60.1183 140.456 60.2086 140.411 60.3214C140.592 60.4795 140.75 60.6601 140.931 60.8181C141.472 61.3599 142.014 61.9243 142.511 62.4887C143.256 63.3465 144.024 64.3624 144.476 65.5363C144.498 65.5363 144.521 65.5363 144.566 65.5589C144.656 65.604 144.724 65.6492 144.815 65.6943C145.198 65.8975 145.289 65.9427 145.944 65.7395V65.7621Z" fill="white"/>
<path d="M149.466 65.7616C149.941 65.2649 150.347 64.7683 150.505 64.4522C150.866 63.7524 150.934 63.4363 150.754 63.1429C150.595 63.0751 150.257 63.0526 149.986 63.0977C149.986 63.5266 149.963 63.9556 149.783 64.4071C149.67 64.7006 149.512 64.9715 149.308 65.1746C149.128 65.3778 148.924 65.5358 148.676 65.6713L148.879 66.3034C149.082 66.1454 149.263 65.9648 149.444 65.7616H149.466Z" fill="white"/>
<path d="M147.976 63.707C148.089 63.3909 148.066 62.9394 147.908 62.3073C147.908 62.2396 147.863 62.1719 147.841 62.1042C147.682 61.5398 147.457 61.0205 147.208 60.5239C146.87 59.8692 146.44 59.2823 145.966 58.763C145.876 58.6501 145.74 58.5373 145.628 58.447C145.311 58.1761 144.905 57.9277 144.521 57.9277C144.386 57.9277 144.205 58.018 144.092 58.1535C144.024 58.2438 144.002 58.2889 144.002 58.3115C144.002 58.3567 144.024 58.4018 144.024 58.447C144.815 59.1468 145.537 59.9821 146.192 60.9077C146.847 61.8558 147.411 62.8717 147.818 63.9102C147.863 63.865 147.931 63.7973 147.953 63.707H147.976Z" fill="white"/>
<path d="M136.64 63.5947C135.94 63.2109 135.76 63.2109 135.376 63.4366C135.24 63.527 134.676 63.9785 133.592 66.1908C133.366 66.6423 133.14 67.8388 133.072 68.3581C133.027 68.6967 132.869 68.8999 132.463 69.2611C133.208 70.1866 133.998 71.0671 134.472 71.5863C134.879 72.0378 135.85 72.9408 136.753 73.731C136.798 73.7084 136.821 73.6632 136.866 73.6181C137.792 72.7151 137.882 72.6473 138.108 72.557C138.311 72.4667 138.492 72.4668 138.695 72.4893C140.66 72.5571 142.308 71.9249 143.618 71.1122C144.069 70.8413 144.476 70.5253 144.837 70.2318L144.476 69.7803C144.476 69.7803 144.34 69.5771 144.295 69.4642L143.957 68.4258C143.663 68.6967 143.324 68.9224 142.94 68.9902C142.873 68.9902 142.782 68.9902 142.715 69.0127C142.602 69.0127 142.489 69.0127 142.353 69.0127C141.766 69.0127 141.247 68.8321 140.773 68.5161C139.621 69.5545 137.498 69.3062 137.476 69.3062C135.895 69.1256 135.06 68.3355 134.969 67.0035C134.969 66.7552 135.037 66.5295 135.172 66.3489C135.218 66.236 135.263 66.1231 135.33 66.0328C135.24 65.9425 135.15 65.8522 135.082 65.7393C134.789 65.3555 134.834 64.7912 135.218 64.4977C135.601 64.2042 136.166 64.2494 136.46 64.6331C136.663 64.8815 136.889 65.0846 137.16 65.3104C137.363 65.491 137.566 65.6716 137.769 65.8748C138.085 66.1908 138.108 66.7101 137.837 67.0487C137.724 67.1841 137.566 67.297 137.408 67.3422C137.498 67.3422 137.589 67.3647 137.702 67.3873C138.243 67.455 139.305 67.3196 139.508 67.0487C139.531 67.0035 139.508 66.8681 139.44 66.6875C139.124 66.1908 137.069 63.9333 136.618 63.5721L136.64 63.5947Z" fill="white"/>
<path d="M63.8376 149.651C63.8376 149.471 63.8376 149.29 63.8602 149.087C63.8602 148.816 63.8828 148.545 63.9053 148.274C63.9053 148.184 63.9053 148.071 63.9053 147.981C63.9053 147.665 63.9505 147.349 63.9505 147.033C63.9505 146.626 63.9957 146.22 64.0182 145.814C64.0634 145.136 64.086 144.437 64.1312 143.759C64.4925 136.829 64.8538 129.605 65.1473 122.177H65.4635C66.0506 122.177 66.5248 121.726 66.5699 121.161C66.7054 119.468 66.7506 112.131 66.6603 103.237C66.6603 103.214 66.6603 103.192 66.6603 103.146C66.6603 102.921 66.6603 102.717 66.6603 102.492C66.6603 102.356 66.6603 102.243 66.6603 102.108C66.6603 101.792 66.6603 101.476 66.6603 101.16C66.6603 100.844 66.6603 100.528 66.6603 100.189C66.6603 99.8504 66.6603 99.5117 66.6603 99.1506C66.5925 93.7099 66.5022 87.9532 66.3441 82.6932C68.3539 84.5669 70.883 85.7409 73.5476 85.9892C73.8863 86.0118 74.2476 86.0343 74.6089 86.0343C77.0026 86.0343 80.2317 85.2894 83.4383 82.2417C83.7996 81.9031 84.1383 81.5644 84.477 81.2032C85.1319 80.5034 85.7641 79.8036 86.3738 79.0586C88.7675 76.1238 90.6869 72.8955 92.4257 69.9608L92.787 69.3738C93.7354 69.0803 94.6838 68.6288 95.7451 68.0644C98.3872 66.7099 99.9904 65.4006 101.21 64.2492C101.571 63.9106 101.887 63.5945 102.203 63.2785C102.452 63.0302 102.678 62.8044 102.903 62.5787L102.971 62.5109C102.971 62.5109 103.174 62.3303 103.265 62.2174C104.552 60.9758 105.229 60.118 105.433 59.5084C105.613 58.9892 105.568 58.4474 105.297 57.9959C105.229 57.8604 105.116 57.7476 105.004 57.6347C105.681 56.8897 105.929 56.1899 105.839 55.4223C105.771 54.8353 105.41 54.271 104.913 53.9323C105.162 53.1873 104.958 52.4198 104.574 51.9006C104.258 51.4716 103.784 51.2007 103.242 51.1104C102.949 51.0653 102.632 51.0653 102.316 51.1104C102.023 50.6138 101.661 50.2977 101.187 50.1397C100.916 50.0494 100.623 50.0042 100.307 50.0268C99.0646 50.0945 97.2355 51.0653 96.3548 51.6522C95.429 52.2618 94.5935 52.7584 93.8031 53.2551C92.3353 54.1581 91.003 54.9482 89.603 56.077C89.603 55.8738 89.603 55.6932 89.603 55.49C89.5804 54.5419 89.5578 53.4808 89.3772 52.4198C89.2417 51.6522 88.6997 51.0201 87.9997 50.7944C87.2545 50.546 86.4416 50.7944 85.7867 51.4039C85.2899 51.878 84.9512 52.5101 84.8157 53.2325C84.4544 54.9482 84.0254 56.1447 83.5737 57.3863C83.2576 58.2442 82.9415 59.1472 82.6479 60.2308C82.4673 60.9307 82.3318 61.5176 82.2866 62.082C82.2189 62.1271 82.1737 62.1723 82.106 62.2174C81.4059 62.8721 79.8027 64.2944 78.1316 65.8069C77.6123 66.2584 77.1155 66.7099 76.6413 67.1389C72.1024 61.5176 66.028 54.9934 65.9603 54.9256C65.9603 54.9256 65.9377 54.9031 65.9151 54.8805C62.0762 51.1104 58.1019 48.8755 54.9405 47.5661C53.8792 47.1372 52.8856 46.7986 52.0501 46.5276C52.4566 46.2567 52.8405 45.9633 53.2243 45.6472C53.3147 45.5795 53.405 45.5118 53.4953 45.4215C55.776 43.3445 57.2438 40.342 57.989 36.2108C58.3729 34.0887 58.4632 30.4992 58.26 26.4583C58.3051 26.4357 58.3277 26.4131 58.3503 26.368C58.531 26.1648 58.6213 25.9164 58.6439 25.6681C59.8633 23.072 59.7052 18.6472 58.1922 14.6288C57.2438 12.1455 55.1438 8.10457 50.7178 5.26009C49.792 4.67314 48.7758 4.13133 47.6241 3.65725C47.1951 3.47665 46.7435 3.31862 46.2918 3.16059C43.9208 2.37046 35.6108 0.180661 28.5429 4.92146C27.6396 5.53099 26.7589 6.23083 25.9234 7.04354C25.1782 7.76594 24.4556 8.57865 23.8008 9.45909C20.6619 13.6807 18.9458 19.6631 21.2716 26.7969C21.4071 27.2258 21.5652 27.6547 21.7233 28.0837C21.5426 28.332 21.4297 28.5803 21.3168 28.8512C21.091 29.4608 21.0458 30.138 21.0007 30.9056C21.0007 31.0636 21.0007 31.2216 21.0007 31.4248C21.0458 31.9892 21.1587 32.7116 21.3845 33.4566C21.7684 34.8788 22.4459 36.4139 23.3265 37.3395L23.3717 37.3847C23.8233 37.8813 24.8847 39.0101 26.4428 39.0101C26.8267 39.0101 27.2105 38.9424 27.5944 38.8069C27.6396 39.5745 27.6622 40.4549 27.7073 41.1999C27.7299 41.8546 27.7525 42.3738 27.7751 42.7802C19.4877 46.5051 13.9553 50.0494 8.8067 57.5669C1.46774 68.4934 0.248345 80.684 -5.05112e-05 90.0753C-0.225865 99.3537 1.49032 116.895 1.58065 117.64C1.62581 118.204 2.10002 118.633 2.66456 118.633H2.77746C0.767717 123.938 0.767717 128.995 2.68714 136.558C2.93553 137.551 3.81621 139.244 5.48723 139.154C5.8937 139.154 6.32274 139.018 6.68405 138.815C6.88728 139.041 7.11309 139.199 7.40665 139.335C7.40665 139.335 7.40665 139.357 7.42923 139.38C7.54214 139.538 7.72279 139.628 7.90344 139.628C8.01635 139.628 8.12926 139.605 8.21958 139.515C8.51314 139.538 8.96477 139.56 9.4164 139.447C9.57447 139.696 9.7777 139.921 10.0035 140.147C10.4326 140.531 10.9971 140.802 11.6745 140.712C12.0358 140.666 12.3746 140.508 12.6681 140.328C12.781 140.26 12.8939 140.17 13.0068 140.079C13.0294 140.102 13.0746 140.125 13.0972 140.17C13.0972 140.238 13.0972 140.283 13.0972 140.35C13.1423 141.05 13.1875 141.727 13.2327 142.427C15.3327 174.507 17.6812 200.626 17.7038 200.942C17.7038 200.965 17.7038 200.988 17.7038 201.01C17.7038 201.055 17.7038 201.078 17.7038 201.123C17.7038 201.168 17.7264 201.191 17.7489 201.236C17.7489 201.258 17.7715 201.304 17.7941 201.326C17.7941 201.371 17.8393 201.394 17.8618 201.439C17.8618 201.462 17.8844 201.507 17.907 201.529C17.9296 201.574 17.9522 201.597 17.9973 201.62C17.9973 201.642 18.0425 201.665 18.0651 201.687C18.0877 201.71 18.1328 201.732 18.1554 201.778C18.178 201.778 18.2006 201.823 18.2231 201.845C18.2683 201.868 18.2909 201.891 18.3361 201.913C18.3586 201.913 18.3812 201.936 18.4264 201.958C18.4715 201.958 18.5167 201.981 18.5619 202.003C18.5844 202.003 18.607 202.003 18.6296 202.003C18.6974 202.003 18.7877 202.026 18.8554 202.026H20.7974C20.6619 202.116 20.4813 202.252 20.2781 202.365C19.6909 202.748 14.4972 206.09 13.1423 208.844C13.1197 208.889 13.0972 208.934 13.0746 209.002C13.0294 209.115 12.081 211.982 13.6165 214.059C14.565 215.323 16.1231 215.955 18.2909 215.955C18.4038 215.955 18.5393 215.955 18.6522 215.955H57.8309C57.9439 215.955 58.0793 215.955 58.1922 215.955C60.3601 215.955 61.9182 215.323 62.8666 214.059C64.4021 211.982 63.4537 209.115 63.4086 209.002C63.4086 208.957 63.3634 208.889 63.3408 208.844C61.9859 206.112 56.8825 202.861 56.2277 202.455C55.7535 202.139 55.3696 201.845 55.0986 201.62L58.531 201.574C58.531 201.574 58.5536 201.574 58.5761 201.574C58.6439 201.574 58.689 201.574 58.7568 201.574C58.7794 201.574 58.8019 201.574 58.8471 201.552C58.8923 201.552 58.9374 201.529 58.9826 201.507C59.0052 201.507 59.0503 201.484 59.0729 201.462C59.1181 201.462 59.1407 201.416 59.1858 201.394C59.2084 201.394 59.231 201.349 59.2762 201.326C59.2987 201.304 59.3439 201.281 59.3665 201.236C59.3891 201.213 59.4116 201.191 59.4342 201.168C59.4568 201.146 59.4794 201.1 59.502 201.078C59.502 201.055 59.5471 201.033 59.5471 200.988C59.5471 200.942 59.5923 200.92 59.6149 200.875C59.6149 200.852 59.6375 200.807 59.66 200.784C59.66 200.739 59.6826 200.717 59.7052 200.671C59.7052 200.626 59.7052 200.604 59.7278 200.559C59.7278 200.559 59.7278 200.536 59.7278 200.513C61.173 187.691 62.4827 170.94 63.6118 151.683C63.6118 151.299 63.6569 150.916 63.6795 150.554C63.6795 150.238 63.7247 149.945 63.7247 149.629L63.8376 149.651ZM84.206 60.7501C84.2964 60.434 84.3867 60.1405 84.477 59.847C84.6802 59.2149 84.8835 58.628 85.1093 58.041C85.5609 56.7994 86.0351 55.49 86.3964 53.6614C86.4867 53.2551 86.6674 52.9164 86.9158 52.6681C87.0513 52.5552 87.2771 52.3521 87.5029 52.4198C87.6384 52.4649 87.7513 52.623 87.7965 52.781C87.9545 53.7517 87.9771 54.6999 87.9997 55.6255C87.9997 56.4608 88.0449 57.2509 88.1804 57.9507C88.2255 58.2442 88.4288 58.47 88.7223 58.5603C88.9933 58.6506 89.3094 58.5828 89.5127 58.3797C91.274 56.7542 92.7644 55.8512 94.6612 54.6999C95.4742 54.2032 96.3097 53.7066 97.2581 53.0745C98.2291 52.4424 99.6743 51.7425 100.397 51.72C100.713 51.72 100.849 51.8103 101.007 52.1263C101.074 52.0812 101.142 52.0586 101.21 52.0134C101.323 51.9457 101.413 51.9006 101.481 51.8554C101.526 51.8328 101.571 51.8103 101.616 51.8103C101.865 51.7425 102.113 51.8554 102.249 52.0586C102.249 52.0586 102.271 52.0812 102.271 52.1037C102.429 52.3972 102.316 52.7584 102.023 52.9164C102.023 52.9164 101.978 52.939 101.955 52.9616C102.068 52.9616 102.158 52.939 102.271 52.8939C102.678 52.7133 103.062 52.7133 103.265 52.8939C103.265 52.8939 103.287 52.9164 103.31 52.939C103.4 53.0745 103.558 53.368 103.265 53.7743C103.22 53.8195 103.174 53.8872 103.129 53.9323C103.016 54.0452 102.949 54.1581 102.903 54.2935C103.039 54.2258 103.152 54.1807 103.265 54.1355C103.626 53.9775 103.92 53.9098 104.123 53.9549C104.123 53.9549 104.123 53.9549 104.145 53.9549C104.439 54.0226 104.62 54.2935 104.62 54.5644C104.62 54.6096 104.62 54.6322 104.62 54.6773C104.552 54.9708 104.281 55.174 103.965 55.1514C103.874 55.1514 103.716 55.2191 103.536 55.332C103.649 55.332 103.784 55.332 103.897 55.332C103.897 55.332 103.965 55.332 104.033 55.3771C104.168 55.4674 104.258 55.6029 104.281 55.7609C104.303 55.9415 104.349 56.3253 103.287 57.2283C103.242 57.2509 103.22 57.296 103.174 57.3186C103.107 57.3863 103.039 57.4541 102.994 57.5218C103.084 57.4766 103.174 57.4541 103.265 57.4089C103.626 57.2735 103.942 57.2283 104.213 57.296C104.281 57.296 104.349 57.3412 104.394 57.3863C104.597 57.5218 104.687 57.7476 104.665 57.9959C104.665 57.9959 104.665 58.0184 104.665 58.041C104.574 58.3571 104.258 58.5603 103.942 58.4925C103.942 58.4925 103.626 58.5603 103.355 58.6957C103.423 58.7183 103.468 58.7409 103.536 58.7634C103.739 58.8086 103.874 58.8989 103.92 58.9892C103.92 58.9892 103.965 59.0569 103.92 59.1698C103.874 59.2827 103.739 59.5536 103.265 60.0954C102.949 60.4566 102.52 60.9081 101.865 61.5176L101.797 61.5853C101.594 61.7659 101.413 61.9691 101.21 62.1723C101.165 62.2174 101.119 62.2626 101.074 62.3078C99.7872 63.5945 98.1839 65.1748 94.9999 66.8002C94.6612 66.9808 94.3677 67.1163 94.0515 67.2743C93.6225 67.4775 93.2386 67.6581 92.8547 67.7935C92.1998 68.0419 91.5676 68.2225 90.9353 68.2902C90.1675 68.3805 89.3546 68.3128 88.3836 68.1322C87.3674 67.929 85.8545 67.1614 84.4996 64.7685C84.206 64.2492 84.0254 63.8203 83.9351 63.3914C83.8899 63.1882 83.8673 62.985 83.8673 62.7593C83.8673 62.2174 83.9802 61.6305 84.206 60.8404V60.7501ZM27.7299 36.1882C27.3912 36.5042 26.9622 36.8203 26.5331 36.8203C25.9686 36.8203 25.4266 36.2333 25.1331 35.9173L25.0879 35.8721C24.5459 35.3078 24.0943 34.3144 23.8008 33.3437C23.5524 32.5536 23.3943 31.786 23.3717 31.3119C23.3717 31.2442 23.3717 31.1765 23.3717 31.1088C23.4395 29.5511 23.5975 29.4156 24.2072 29.0996C24.2975 29.0544 24.5459 28.9867 24.9072 29.0996C25.2911 29.235 26.0363 29.6414 26.8041 30.9959C26.8944 31.1313 26.9622 31.2894 27.0525 31.4474C27.2557 31.8537 27.6848 32.1246 28.1364 32.1021H28.2041L29.6719 32.0343H30.259L30.3268 32.0118C30.801 32.0118 31.23 31.6731 31.3655 31.1991L31.4559 30.9056C31.7494 29.98 32.2236 28.3997 33.2172 26.842C33.2172 26.8195 33.2398 26.7969 33.2624 26.7743C34.3689 24.7425 35.4528 23.5912 36.6496 22.5979C36.7399 23.0042 36.8528 23.546 36.8302 23.7492C36.7851 24.0653 36.8754 24.3813 37.056 24.6297C37.2593 24.878 37.5528 25.036 37.869 25.0586C37.9593 25.0586 38.0722 25.0586 38.1625 25.0586C41.053 25.0586 47.3532 21.9884 51.0565 19.189C52.1404 21.7174 54.4663 24.2459 56.0018 25.781C56.2502 29.9348 56.1825 33.8178 55.7986 35.8721C55.1438 39.5067 53.9018 42.1029 52.0049 43.8412C51.0339 44.7216 49.8823 45.3763 48.5274 45.8052C48.3919 45.8504 48.279 45.8955 48.1435 45.9407C48.1435 45.9407 48.008 45.9858 47.7596 46.031C47.2628 46.1213 46.3596 46.2793 45.2531 46.2793C44.937 46.2793 44.5757 46.2793 44.2369 46.2342C44.1918 46.2342 44.1466 46.2342 44.1014 46.2342C43.153 46.1439 42.1369 45.9181 41.1659 45.4892C40.6013 45.2409 39.9465 45.4892 39.6981 46.0536C39.6755 46.1213 39.6529 46.189 39.6303 46.2342C39.4948 46.7534 39.7432 47.2952 40.24 47.521C41.2336 47.9725 42.2498 48.2434 43.2208 48.3788C42.995 48.8981 42.4982 49.1915 40.6691 49.5302C36.4463 50.3429 31.7042 46.347 30.3042 44.0895C30.3042 44.0218 30.3042 43.9315 30.2816 43.8638C30.2816 43.7283 30.2365 43.3445 30.2139 42.893C30.1913 42.3738 30.1687 41.7417 30.1461 41.1547C30.101 39.8002 30.0332 38.694 29.9881 37.8813C29.9429 37.2718 29.9203 36.8203 29.8752 36.572C29.7622 35.9399 29.1525 35.4884 28.5203 35.6012C28.3848 35.6012 28.2719 35.669 28.1815 35.7141C28.0009 35.8044 27.8428 35.9399 27.7299 36.1205V36.1882ZM30.259 43.8863C30.259 43.8863 30.259 43.8186 30.2365 43.7735C30.2365 43.7735 30.2365 43.8412 30.259 43.8863ZM14.7004 126.151C14.5875 125.789 14.2714 125.496 13.8875 125.451C13.752 125.451 13.6165 125.451 13.4811 125.496C13.1197 125.609 12.8488 125.925 12.8036 126.309C12.4197 129.401 12.8036 132.359 14.0004 135.587C14.0456 135.7 14.0908 135.813 14.1359 135.926C14.2037 136.084 14.294 136.264 14.3843 136.49C15.265 138.364 15.1069 138.702 14.994 138.77C14.7004 138.928 14.5875 138.996 14.1585 138.296C14.1133 138.251 14.0907 138.183 14.0456 138.115L13.9778 138.003C13.8875 137.867 13.7746 137.754 13.6391 137.664C13.3907 137.258 13.1423 136.761 12.9165 136.219C12.1036 134.255 11.5842 131.569 11.4939 129.605C11.4939 129.289 11.2003 129.04 10.8842 129.04C10.5681 129.04 10.3197 129.334 10.3197 129.65C10.4326 132.11 11.2003 135.677 12.3971 137.845C12.352 137.912 12.3068 137.98 12.2617 138.048C12.1262 138.296 11.7197 138.702 11.4939 138.748C11.4939 138.748 11.1777 138.657 10.6584 137.461C10.6132 137.348 10.5455 137.235 10.4551 137.167C9.57447 135.226 9.0551 132.584 8.85186 130.598C8.82928 130.282 8.53572 130.056 8.21958 130.079C7.90344 130.101 7.67763 130.395 7.70021 130.711C7.90344 132.675 8.37765 135.09 9.168 137.077C9.00993 137.19 8.89703 137.37 8.82928 137.551C8.69379 137.551 8.53572 137.551 8.37765 137.528C8.24216 137.506 8.197 137.483 8.197 137.483C8.197 137.483 7.88086 136.987 7.72279 136.693C7.63247 136.513 7.49698 136.377 7.33891 136.287C6.77437 134.684 6.27758 132.675 6.16467 131.049C6.16467 130.733 5.87112 130.485 5.55498 130.508C5.23884 130.508 4.99044 130.801 5.01302 131.117C5.12593 132.788 5.60014 134.797 6.18726 136.467C6.05177 136.603 5.93886 136.806 5.91628 137.009C5.82595 137.077 5.6453 137.167 5.44207 137.167C5.12593 137.167 4.74205 136.445 4.65172 136.039C2.75488 128.589 2.82263 123.78 4.9227 118.633L11.9004 118.768H13.2101L14.3166 118.814H14.6553C15.3779 120.416 16.2134 122.855 16.2134 124.051C16.2134 128.679 16.1457 130.711 16.1231 130.959C16.1005 131.185 15.9876 131.343 15.8747 131.411C15.7166 131.478 15.4682 131.411 15.1747 131.185C15.1295 131.162 15.0843 131.14 15.0392 131.117C14.9714 131.072 14.9037 131.049 14.8359 131.027C14.6101 129.537 14.5875 128.069 14.7682 126.579C14.7682 126.579 14.7682 126.534 14.7682 126.512C14.7682 126.376 14.7682 126.241 14.7456 126.105L14.7004 126.151ZM37.1464 213.584H18.7425C18.7425 213.584 18.7199 213.584 18.6974 213.584C17.6586 213.63 16.2811 213.494 15.6714 212.659C15.0392 211.824 15.265 210.424 15.4456 209.86C16.4392 208.031 20.2781 205.322 21.6781 204.419C23.0104 203.606 23.6201 202.703 23.9137 201.981L37.1689 201.823V213.562L37.1464 213.584ZM61.2633 209.86C61.4214 210.424 61.6472 211.824 61.0375 212.659C60.4278 213.494 59.0503 213.607 58.0116 213.584C58.0116 213.584 57.989 213.584 57.9664 213.584H39.5626V201.823L52.0953 201.687C52.4791 202.432 53.3372 203.358 55.0308 204.509C55.0308 204.509 55.0308 204.509 55.0534 204.509C56.4535 205.39 60.2697 208.031 61.2633 209.86ZM61.7601 143.624C61.7149 144.324 61.6924 145.001 61.6472 145.678C61.6472 146.084 61.602 146.491 61.5795 146.897C61.5795 147.213 61.5343 147.529 61.5343 147.845C61.5343 147.958 61.5343 148.049 61.5343 148.161C61.5343 148.432 61.5117 148.681 61.4891 148.952C61.4891 149.132 61.4891 149.313 61.4665 149.493C61.4665 149.809 61.4214 150.125 61.4214 150.419C61.4214 150.803 61.3762 151.164 61.3536 151.548C60.2697 170.24 58.9826 186.562 57.6051 199.204L51.3275 199.272L39.6077 199.407H39.4271C39.54 199.227 39.6077 199.001 39.6077 198.753V198.437L39.3593 147.146V144.166L39.3368 142.111L39.269 128.047C39.269 127.708 39.1335 127.415 38.9077 127.189C38.6819 126.963 38.3883 126.828 38.0496 126.828C37.3948 126.828 36.8528 127.37 36.8528 128.047L36.9206 141.931V144.008L37.1915 198.504V198.753C37.1915 199.001 37.2593 199.227 37.3948 199.407H37.1915L25.6524 199.543L20.0974 199.61C19.6232 194.328 17.6134 170.804 15.7618 142.585C15.7166 141.931 15.6714 141.276 15.6263 140.621C15.694 140.599 15.7618 140.554 15.8521 140.508C15.8973 140.508 15.9198 140.486 15.9424 140.463C17.9296 139.38 16.7554 136.851 16.1682 135.632C16.0779 135.452 16.0102 135.294 15.965 135.181C15.7166 134.571 15.5134 133.962 15.3553 133.375C15.4908 133.375 15.6263 133.397 15.7392 133.397C16.1231 133.397 16.4166 133.307 16.6199 133.217C17.3876 132.878 17.9296 132.156 18.0651 131.23C18.1328 130.756 18.178 127.866 18.178 124.051C18.178 123.509 18.0651 122.855 17.907 122.155H62.8214C62.5053 129.537 62.1666 136.693 61.8053 143.579L61.7601 143.624ZM62.8666 119.965H17.1618C17.0263 119.581 16.8908 119.22 16.7554 118.904C17.0489 118.904 17.3425 118.791 17.5457 118.565C17.7489 118.34 17.8844 118.046 17.8618 117.753L17.636 109.874L17.0941 90.3914C17.207 90.0302 17.3199 89.5786 17.4328 89.0143C17.636 88.1113 17.907 86.847 18.2231 85.3345C19.2393 80.4808 20.7748 73.1439 22.0168 68.99C22.1975 68.4031 21.8588 67.7935 21.2716 67.6129C20.6845 67.4323 20.0748 67.771 19.8942 68.3579C18.6296 72.6021 17.0941 79.9842 16.0779 84.883C15.6714 86.847 15.265 88.7208 15.0843 89.4658C14.9714 89.6464 14.9037 89.8496 14.8811 90.0753C14.8811 90.1205 14.8811 90.1656 14.8811 90.2108L15.4456 109.806L15.6489 116.646L13.0746 116.601L3.7033 116.421C3.342 112.538 2.03228 98.0218 2.23551 90.1204C2.46132 81.0226 3.61297 69.2383 10.7035 58.8989C15.4456 51.9909 20.5716 48.6046 28.159 45.1506C28.2041 45.128 28.2719 45.1054 28.317 45.0828C28.7461 45.8052 29.4009 46.6405 30.2139 47.4532C32.472 49.7108 35.9947 51.878 39.54 51.878C40.0594 51.878 40.5787 51.8328 41.0981 51.7425C44.2595 51.133 45.0724 50.2526 45.5241 48.5368C46.1564 48.5368 46.7209 48.4691 47.1951 48.424C47.6467 48.3562 48.0306 48.2885 48.3016 48.2434C48.3016 48.2434 48.3468 48.2434 48.3693 48.2434C48.3693 48.2434 48.7081 48.2885 49.2726 48.4014C51.5307 48.8529 57.718 50.5235 63.6344 56.0318C63.8602 56.235 64.086 56.4382 64.2892 56.6639C64.3344 56.7317 64.515 56.9123 64.786 57.2057C66.3441 58.8989 71.1766 64.2041 74.9251 68.832C74.1121 69.5544 73.525 70.1188 73.2992 70.322C72.8702 70.7509 72.8702 71.4507 73.2992 71.8797C73.525 72.1054 73.796 72.1957 74.0896 72.1957C74.3831 72.1957 74.6541 72.0828 74.8799 71.8797C75.309 71.4507 77.6348 69.3512 79.7123 67.5226C80.8866 66.4616 82.0156 65.4457 82.8511 64.7007C82.9641 64.9265 83.077 65.1748 83.235 65.4457C84.8835 68.3805 86.8255 69.3061 88.1804 69.5996C88.8804 69.735 89.4901 69.8027 90.0772 69.8253C88.2029 72.9633 86.1255 76.327 83.4608 79.2392C83.0092 79.7358 82.535 80.2099 82.0382 80.684C81.7672 80.9323 81.4963 81.1807 81.2253 81.4064C78.9671 83.235 76.438 84.0929 73.8637 83.8445C72.1024 83.6865 70.4088 83.0092 68.941 81.9256C68.1958 81.3613 67.4958 80.7066 66.8861 79.9616C66.7506 79.8036 66.6377 79.6455 66.5248 79.4875C66.4796 79.4198 66.4345 79.3746 66.3667 79.3069C66.2538 75.8529 66.1183 72.7375 65.9828 70.2317C65.9828 69.893 65.7796 69.5996 65.5312 69.419C65.328 69.2609 65.0796 69.1706 64.8086 69.1932C64.1989 69.2383 63.7247 69.7576 63.7699 70.3671C63.9053 72.4666 63.9957 74.9273 64.1086 77.5912C64.1312 78.4039 64.1763 79.2392 64.1989 80.0745C64.1989 80.7517 64.2441 81.429 64.2666 82.1288C64.4247 87.592 64.5376 93.5745 64.5828 99.1957C64.5828 99.5343 64.5828 99.873 64.5828 100.234C64.5828 100.55 64.5828 100.866 64.5828 101.182C64.5828 101.498 64.5828 101.814 64.5828 102.13C64.5828 102.243 64.5828 102.379 64.5828 102.492C64.5828 102.717 64.5828 102.943 64.5828 103.146C64.5828 103.169 64.5828 103.192 64.5828 103.214C64.5828 105.923 64.628 108.452 64.628 110.754C64.628 112.673 64.628 114.411 64.628 115.901C64.628 117.64 64.5828 119.039 64.5602 119.965H62.9795H62.8666Z" fill="#303030"/>
<path d="M46.0209 41.0197C46.4951 41.2906 47.1952 41.4486 47.9178 41.4486C48.9565 41.4486 50.0856 41.1551 50.7856 40.4779C51.034 40.2296 51.0566 39.8232 50.8082 39.5749C50.5598 39.3265 50.1533 39.304 49.9049 39.5523C49.1598 40.2296 47.3984 40.3424 46.6532 39.9135C46.3371 39.7329 45.9532 39.8458 45.7725 40.1393C45.5919 40.4553 45.7048 40.8391 45.9984 41.0197H46.0209Z" fill="#303030"/>
<path d="M52.5696 26.9996C51.9373 27.0673 51.4179 27.3608 51.5534 29.0088C51.6889 30.589 52.276 31.1986 52.9083 31.1308C53.6309 31.0405 54.1051 30.3407 53.8793 28.6927C53.7212 27.5188 53.0889 26.9544 52.547 26.9996H52.5696Z" fill="#303030"/>
<path d="M51.1242 26.3453C51.1242 26.3453 51.3049 26.3453 51.3726 26.3002C51.8468 26.097 52.2759 25.9164 53.405 26.097C53.7437 26.1647 54.0824 25.9164 54.1501 25.5778C54.2179 25.2391 53.9695 24.9005 53.6308 24.8328C52.2307 24.5844 51.5533 24.8328 50.8533 25.1037C50.5371 25.2391 50.379 25.6229 50.5145 25.939C50.6274 26.1873 50.8533 26.3227 51.1016 26.3227L51.1242 26.3453Z" fill="#303030"/>
<path d="M41.9561 27.1806C41.9561 27.1806 42.1368 27.1806 42.2045 27.1354C43.2884 26.6613 44.4401 26.7065 44.9143 26.7968C45.253 26.8645 45.5918 26.6387 45.6595 26.2775C45.7272 25.9389 45.5014 25.6003 45.1401 25.5326C44.3498 25.3971 42.9723 25.4197 41.7077 25.9615C41.3916 26.0969 41.2335 26.4807 41.369 26.7968C41.4819 27.0451 41.7077 27.1806 41.9561 27.1806Z" fill="#303030"/>
<path d="M43.8982 27.8126C43.0852 27.8803 42.6788 28.7156 42.8142 29.8895C42.9949 31.4697 43.5594 32.0341 44.4401 31.9213C45.1627 31.831 45.6821 31.2666 45.4789 29.6637C45.2756 28.0383 44.5982 27.7448 43.8982 27.8126Z" fill="#303030"/>
<path d="M49.9726 36.0975C49.9726 36.0975 50.1984 36.1427 50.3113 36.1427C50.6952 36.1427 51.1694 36.0072 51.5081 35.7138C51.8468 35.4203 51.9823 34.9913 51.9371 34.5398C51.9371 34.427 51.892 34.1335 51.2371 32.1694C51.1242 31.8308 50.7629 31.6502 50.4242 31.7631C50.0855 31.876 49.9048 32.2372 50.0177 32.5758C50.6048 34.3141 50.65 34.6527 50.6726 34.6979C50.6726 34.743 50.6726 34.7656 50.6726 34.7656C50.5823 34.8559 50.379 34.8785 50.2661 34.8559C49.9274 34.7882 49.5887 35.0139 49.4983 35.3526C49.4306 35.6912 49.6564 36.0298 49.9951 36.1201L49.9726 36.0975Z" fill="#303030"/>
<path d="M177.129 163.941C177.467 160.081 177.716 156.943 177.829 155.295C178.506 145.136 179.342 127.843 179.816 117.481C179.816 117.481 179.838 117.481 179.861 117.481C179.906 117.481 179.929 117.481 179.974 117.459C180.019 117.459 180.042 117.459 180.087 117.413C180.109 117.413 180.154 117.368 180.177 117.368C180.2 117.368 180.245 117.346 180.267 117.323C180.29 117.323 180.313 117.278 180.358 117.255C180.38 117.255 180.403 117.21 180.448 117.188C180.471 117.165 180.493 117.143 180.516 117.097C180.516 117.075 180.561 117.052 180.583 117.007C180.583 116.985 180.606 116.939 180.629 116.917C180.629 116.894 180.674 116.849 180.674 116.826C180.674 116.804 180.674 116.759 180.696 116.714C180.696 116.668 180.719 116.646 180.719 116.601C180.719 116.556 180.719 116.533 180.719 116.488C180.719 116.443 180.719 116.42 180.719 116.375C180.719 113.44 180.787 102.153 180.877 91.5196C182.367 90.7069 183.7 89.3524 184.806 87.4561C185.009 87.0949 185.213 86.7337 185.371 86.3725C185.597 86.3273 185.822 86.237 186.003 86.079C191.761 80.819 189.706 70.7504 189.232 68.7864C188.374 65.2421 187.426 62.3298 186.5 60.0272C186.861 58.6049 187.11 57.6793 187.155 57.4987C187.245 57.1827 187.155 56.8441 186.974 56.5732C186.771 56.3022 186.455 56.1668 186.116 56.1668H184.784C183.948 54.4962 183.316 53.5932 183.18 53.39C178.122 45.2855 169.948 41.3349 164.731 39.5514C165.386 38.3549 165.951 37.023 166.402 35.533C166.515 35.533 166.628 35.5556 166.764 35.5556C167.78 35.5556 168.593 34.8783 169.044 34.5171H169.067C170.783 33.0723 172.003 30.6793 172.409 29.4151C172.974 27.6317 172.409 26.2546 171.596 25.5999C171.596 25.5999 171.596 25.5773 171.596 25.5548C171.777 24.5163 172.206 18.737 171.709 15.3733C171.415 13.3867 170.557 11.6033 169.722 10.2487C169.067 8.78135 168.186 7.33653 167.035 6.0046C166.064 4.89841 164.957 3.92767 163.715 3.11496C163.06 2.68603 162.383 2.30225 161.66 1.96363C158.883 0.721987 155.496 0.0221542 151.612 -0.000421077C151.228 -0.000421077 146.847 -0.0907222 142.218 2.03135C137.792 4.06312 132.282 8.57817 131.266 18.4661C131.266 18.5339 131.266 18.6016 131.266 18.6919L131.379 20.069C131.311 21.9653 131.537 23.5456 131.695 24.7421C131.74 25.0355 131.785 25.329 131.808 25.5548C131.695 25.6676 131.604 25.8031 131.514 25.9385C130.814 27.2253 130.475 28.3541 131.04 30.1601C131.514 31.6501 132.688 33.2981 134.224 34.5397H134.246C134.698 34.9235 135.511 35.6007 136.527 35.6007C136.685 35.6007 136.843 35.6007 137.024 35.533C137.611 37.2487 138.334 38.7839 139.192 40.1158C132.327 42.125 125.869 46.3691 120.472 52.487C120.472 52.487 120.472 52.5096 120.449 52.5322C115.73 58.3115 112.749 64.3616 111.823 70.028C111.033 74.8817 111.823 79.3516 113.946 82.3315C115.504 84.8599 117.988 86.5305 120.901 87.0723C121.556 87.1852 122.211 87.2529 122.888 87.2529C123.362 87.2529 123.836 87.2303 124.288 87.1626C124.265 90.9101 124.198 95.9444 124.153 100.775C124.085 107.796 124.017 114.411 124.017 115.946C124.017 115.969 124.017 116.014 124.017 116.036C124.017 116.082 124.017 116.104 124.017 116.149C124.017 116.194 124.017 116.217 124.04 116.262C124.04 116.307 124.04 116.33 124.062 116.375C124.062 116.398 124.085 116.443 124.107 116.465C124.107 116.488 124.13 116.533 124.153 116.556C124.153 116.578 124.198 116.601 124.22 116.646C124.22 116.668 124.265 116.691 124.288 116.736C124.311 116.759 124.333 116.781 124.378 116.804C124.401 116.804 124.424 116.849 124.469 116.872C124.491 116.872 124.536 116.917 124.559 116.917C124.582 116.917 124.627 116.962 124.649 116.962C124.672 116.962 124.717 116.985 124.762 117.007C124.785 117.007 124.83 117.03 124.853 117.03C124.898 117.03 124.92 117.03 124.965 117.03C124.988 117.03 125.033 117.03 125.056 117.03C125.349 117.03 125.62 117.03 125.914 117.03C126.072 119.739 126.207 122.448 126.366 125.134C126.727 132.652 127.178 140.418 127.63 147.98C127.675 148.68 127.72 149.357 127.766 150.057C129.369 175.387 131.243 197.804 131.559 199C131.65 199.316 131.853 199.565 132.124 199.723C132.124 199.723 132.146 199.745 132.169 199.768C132.192 199.791 132.237 199.813 132.259 199.858C132.282 199.858 132.304 199.903 132.327 199.926C132.372 199.949 132.395 199.971 132.44 199.994C132.462 199.994 132.485 200.016 132.53 200.039C132.575 200.039 132.621 200.061 132.666 200.084C132.688 200.084 132.711 200.084 132.733 200.084C132.801 200.084 132.892 200.107 132.959 200.107H134.901C134.766 200.197 134.585 200.332 134.382 200.445C133.795 200.829 128.601 204.17 127.246 206.924C127.224 206.969 127.201 207.015 127.178 207.082C127.133 207.195 126.185 210.062 127.72 212.139C128.669 213.403 130.227 214.036 132.395 214.036C132.508 214.036 132.643 214.036 132.756 214.036H171.935C172.048 214.036 172.183 214.036 172.296 214.036C174.464 214.036 176.022 213.403 176.97 212.139C178.506 210.062 177.558 207.195 177.512 207.082C177.512 207.037 177.467 206.969 177.445 206.924C176.09 204.193 170.986 200.942 170.332 200.536C169.948 200.287 169.632 200.039 169.361 199.836C170.67 199.813 171.799 199.768 172.68 199.723C173.267 199.7 173.741 199.249 173.809 198.662C173.854 198.346 173.899 197.759 173.99 196.946C174.848 189.045 175.661 180.76 176.361 172.068C176.406 171.391 176.474 170.691 176.519 170.014C176.677 168.005 176.835 165.973 176.993 163.918L177.129 163.941ZM182.955 86.3951C182.322 87.4561 181.645 88.2914 180.9 88.9235C180.493 89.2847 180.064 89.5556 179.612 89.7813C179.567 89.7813 179.522 89.8039 179.5 89.8265C179.229 89.9394 178.958 90.0297 178.687 90.0974C177.535 90.3909 176.316 90.2329 175.503 89.6233C174.712 89.0364 173.583 87.9076 173.019 87.0723C174.216 87.6367 175.458 88.1108 176.067 88.3591C176.158 88.3817 176.248 88.4043 176.338 88.4043C176.654 88.4043 176.948 88.2011 177.083 87.885C177.241 87.4787 177.038 87.0272 176.632 86.8691C175.999 86.6434 173.967 85.8533 172.59 85.0631C172.567 85.0406 172.522 84.9954 172.499 84.9728C172.07 84.6342 171.596 84.115 171.506 83.9118C171.461 83.5506 171.506 83.3474 171.506 83.2571C171.551 83.212 171.596 83.1668 171.641 83.0991C172.838 83.7538 174.69 84.5213 176.677 85.334C177.196 85.5372 177.648 85.7178 177.941 85.8533C178.032 85.8984 178.145 85.921 178.258 85.921C178.438 85.921 178.596 85.8533 178.732 85.7404C178.822 85.6727 178.912 85.5598 178.98 85.4469C179.116 85.1083 179.025 84.7471 178.754 84.5213C178.709 84.4762 178.641 84.431 178.574 84.4084C178.28 84.273 177.806 84.0924 177.264 83.8666C175.751 83.2571 172.703 82.0155 171.799 81.3608C171.912 81.1802 172.025 81.0222 172.093 80.9544C172.228 80.9544 172.364 80.8867 172.499 80.819C174.306 81.564 176.812 82.3541 178.754 82.8282C179.003 82.8959 179.251 82.941 179.477 82.9862C179.477 82.9862 179.5 82.9862 179.522 82.9862C179.567 82.9862 179.635 82.9862 179.68 82.9862C180.042 82.9862 180.38 82.7379 180.448 82.3541C180.538 81.9252 180.267 81.5188 179.838 81.4285C179.725 81.4059 179.59 81.3834 179.477 81.3608C179.251 81.3156 179.025 81.2479 178.777 81.2028C176.835 80.7287 174.577 79.9611 173.109 79.3742C173.177 79.3064 173.29 79.2161 173.47 79.0807C173.674 78.9678 174.419 78.9904 174.78 78.9904C174.983 78.9904 175.164 78.9904 175.345 78.9904C176.632 78.9678 177.603 79.1033 178.777 79.3064C178.89 79.3064 178.98 79.3516 179.093 79.3516C179.206 79.3516 179.342 79.3967 179.454 79.4193C179.725 79.4645 179.996 79.5096 180.313 79.5548C180.538 79.5999 180.787 79.5548 180.967 79.4419C181.216 79.3064 181.419 79.0807 181.487 78.8098C181.6 78.4486 181.758 77.9068 181.938 77.2521C183.293 77.9293 184.151 79.4419 184.332 80.7964C184.626 82.8959 183.722 84.9728 182.909 86.3273L182.955 86.3951ZM185.438 64.2487C185.935 65.7839 186.432 67.4996 186.884 69.3959C187.087 70.2312 188.442 76.3942 186.545 81.1125C186.545 80.9319 186.522 80.7513 186.5 80.5932C186.161 78.1777 184.58 76.1008 182.548 75.2655C183.384 72.1501 184.513 67.8608 185.438 64.2713V64.2487ZM183.361 58.3566H184.738C184.58 58.9661 184.377 59.7563 184.151 60.6818C184.016 61.2462 183.858 61.8332 183.677 62.4653C183.113 64.6325 182.458 67.1835 181.803 69.6217C181.554 70.5924 181.284 71.5631 181.058 72.4661C180.516 74.4753 180.042 76.2136 179.725 77.365C179.635 77.365 179.567 77.3424 179.477 77.3198C179.251 77.2747 179.048 77.2521 178.822 77.2069C177.716 77.0263 176.677 76.8909 175.345 76.9135C175.209 76.9135 175.051 76.9135 174.87 76.9135C174.057 76.9135 173.041 76.8683 172.296 77.365C171.89 77.6584 171.099 78.1777 170.919 79.2387C170.332 79.6451 169.902 80.3449 169.722 80.819C169.519 81.3608 169.496 81.88 169.586 82.3089C169.383 82.7379 169.248 83.37 169.383 84.273C169.496 84.9954 170.128 85.7404 170.648 86.2596C170.603 86.6885 170.648 87.2529 170.919 87.7722C171.415 88.7203 172.432 89.8039 173.312 90.6166H148.766L149.805 85.2212L150.189 83.2797L150.912 79.5548L151.476 76.5748L151.724 75.3332L153.17 67.8834L154.141 62.8039L154.683 59.9594L154.954 58.6049L154.999 58.3792H164.506L164.167 60.4561C164.167 60.4561 164.167 60.6367 164.167 60.7044C164.167 60.9302 164.28 61.1334 164.415 61.314C164.618 61.5623 164.912 61.6977 165.228 61.6977H175.051C175.548 61.6977 175.999 61.3365 176.112 60.8624L176.654 58.3792H183.338L183.361 58.3566ZM140.479 57.7696C140.231 57.8825 140.027 58.018 139.824 58.176L138.469 54.9929L139.327 54.1124C139.643 55.1058 140.027 56.3248 140.501 57.7696H140.479ZM140.366 51.0648C140.885 50.6133 141.45 50.6359 141.834 50.7262C141.879 50.8616 141.924 51.0196 141.992 51.2002C142.263 52.0355 142.76 53.5481 143.618 56.1894C143.189 56.37 142.782 56.6635 142.511 57.0698C142.466 57.1375 142.421 57.2053 142.376 57.273C141.653 55.0606 141.179 53.5481 140.84 52.5322C140.614 51.8324 140.479 51.3583 140.366 51.0422V51.0648ZM138.537 61.2011C139.011 61.63 139.485 62.0815 139.937 62.5556C140.321 62.9619 140.705 63.3683 141.066 63.7747C141.811 64.6325 142.579 65.6484 142.85 66.7772C142.737 66.9352 142.624 67.0481 142.556 67.0932C142.308 67.1384 142.082 67.1158 141.811 66.9352C141.676 66.8449 141.54 66.7094 141.405 66.5063C141.36 66.3257 141.314 66.1451 141.224 65.9645C140.931 65.2872 138.176 62.2847 137.611 61.9686C137.498 61.9009 137.385 61.8558 137.272 61.788C137.476 61.4494 137.769 61.1785 137.972 61.0882C138.085 61.0431 138.221 61.0205 138.356 60.9979C138.401 61.0882 138.469 61.1559 138.537 61.2237V61.2011ZM139.463 66.7094C139.53 66.89 139.553 67.0255 139.53 67.0706C139.327 67.3415 138.266 67.477 137.724 67.4093C137.611 67.4093 137.521 67.3867 137.43 67.3641C137.588 67.319 137.747 67.2287 137.859 67.0706C138.13 66.732 138.108 66.2128 137.792 65.8967C137.588 65.671 137.385 65.513 137.182 65.3324C136.911 65.1066 136.685 64.9034 136.482 64.6551C136.188 64.2713 135.624 64.2036 135.24 64.5196C134.856 64.8131 134.788 65.3775 135.105 65.7613C135.195 65.8742 135.285 65.9645 135.353 66.0548C135.285 66.1451 135.24 66.2579 135.195 66.3708C135.059 66.5514 134.969 66.7772 134.992 67.0255C135.082 68.3574 135.917 69.1476 137.498 69.3282C137.521 69.3282 139.621 69.5539 140.795 68.538C141.269 68.8541 141.811 69.0347 142.376 69.0347C142.489 69.0347 142.602 69.0347 142.737 69.0347C142.805 69.0347 142.895 69.0347 142.963 69.0121C143.347 68.9444 143.685 68.7186 143.979 68.4477L144.318 69.4862C144.363 69.5991 144.408 69.712 144.498 69.8023L144.86 70.2538C144.498 70.5472 144.092 70.8633 143.64 71.1342C142.331 71.9469 140.682 72.579 138.718 72.5113C138.514 72.5113 138.334 72.5113 138.13 72.579C137.905 72.6693 137.814 72.737 136.888 73.64C136.843 73.6852 136.821 73.7078 136.776 73.7529C135.872 72.9628 134.901 72.0598 134.495 71.6083C134.043 71.1116 133.253 70.2086 132.485 69.283C132.892 68.9218 133.05 68.7186 133.095 68.38C133.163 67.8834 133.388 66.6869 133.614 66.2128C134.698 63.9778 135.24 63.5263 135.398 63.4586C135.782 63.2329 135.963 63.2103 136.663 63.6166C137.114 63.9553 139.169 66.2354 139.485 66.732L139.463 66.7094ZM144.815 65.7161C144.815 65.7161 144.656 65.6258 144.566 65.5807C144.544 65.5807 144.521 65.5807 144.476 65.5581C144.024 64.3616 143.256 63.3457 142.511 62.5104C142.014 61.9235 141.495 61.3817 140.931 60.8399C140.75 60.6819 140.592 60.5012 140.411 60.3432C140.456 60.2529 140.524 60.14 140.592 60.0497C140.75 59.8466 140.998 59.666 141.269 59.5305C141.563 59.3951 141.879 59.3273 142.173 59.3499C142.218 59.4402 142.285 59.5079 142.376 59.5757C144.002 60.8624 145.56 63.0974 146.237 65.1743C146.237 65.2195 146.26 65.2421 146.282 65.2646C146.192 65.5581 146.011 65.7387 145.944 65.7839C145.289 65.987 145.198 65.9419 144.815 65.7387V65.7161ZM146.531 67.6124C146.757 67.5447 146.982 67.4093 147.163 67.2738L147.524 68.4252L147.344 70.2538L146.057 68.6961L145.763 67.7931C145.989 67.7479 146.237 67.7028 146.508 67.6124H146.531ZM146.215 60.9076C145.56 59.982 144.815 59.1242 144.047 58.4469C144.047 58.4017 144.047 58.3566 144.024 58.3114C144.024 58.3114 144.024 58.2437 144.115 58.1534C144.227 58.018 144.408 57.9277 144.544 57.9277C144.927 57.9277 145.311 58.1534 145.65 58.4469C145.763 58.5598 145.898 58.6727 145.989 58.763C146.486 59.2822 146.892 59.8691 147.231 60.5238C147.502 61.0205 147.705 61.5623 147.863 62.1041C147.863 62.1718 147.908 62.2395 147.931 62.3073C148.111 62.9394 148.111 63.3909 147.999 63.7069C147.976 63.7972 147.908 63.865 147.863 63.9101C147.457 62.8942 146.892 61.8558 146.237 60.9076H146.215ZM147.728 57.8374C147.728 57.8374 147.569 57.6568 147.479 57.5665L145.131 47.7688L145.944 48.5589L146.892 49.4845C147.05 49.6426 147.253 49.7103 147.457 49.7103C147.457 49.7103 147.502 49.7103 147.524 49.7103C147.615 49.7103 147.682 49.6877 147.773 49.6426C147.908 49.5974 148.021 49.5071 148.111 49.3942L148.45 48.9427L149.082 50.8616L148.834 52.1258L148.631 53.2094L147.75 57.8374H147.728ZM144.882 45.2855C145.266 45.4661 145.65 45.6467 146.057 45.7822C146.621 46.0079 147.231 46.1885 147.84 46.324C147.999 46.3691 148.134 46.3917 148.292 46.4369H148.269L147.637 47.3173L147.344 47.7011L146.553 46.9109L144.882 45.2855ZM149.918 54.9477L150.099 54.0447L150.55 51.6292H151.95L152.854 56.1442V56.2119L153.057 57.1827L152.153 61.8332C151.544 61.1785 150.482 61.0431 149.579 61.2011C149.421 60.7044 149.218 60.2303 148.97 59.7563L149.895 54.9252L149.918 54.9477ZM149.828 48.0849L150.46 47.1819L150.731 46.7981C151.002 46.7981 151.25 46.8206 151.521 46.8432L151.928 47.3399L152.447 47.972L152.312 48.5364L151.973 49.9586L150.437 50.0038L149.828 48.1074V48.0623V48.0849ZM149.308 65.1743C149.511 64.9486 149.67 64.7002 149.782 64.4068C149.941 63.9778 150.008 63.5263 149.986 63.0974C150.257 63.0523 150.595 63.0748 150.753 63.1426C150.934 63.436 150.866 63.7521 150.505 64.4519C150.347 64.768 149.941 65.2872 149.466 65.7613C149.286 65.9419 149.105 66.1225 148.902 66.3031L148.699 65.671C148.924 65.5355 149.15 65.3775 149.331 65.1743H149.308ZM151.228 66.6869L150.528 70.2538L149.963 67.9059C150.415 67.5447 150.844 67.1158 151.228 66.6869ZM154.208 49.3942C154.344 49.5748 154.547 49.6877 154.773 49.7103C154.773 49.7103 154.818 49.7103 154.841 49.7103C155.044 49.7103 155.247 49.6426 155.383 49.4845L157.438 47.5431L157.776 47.227L158.363 46.64L158.409 46.5949L156.037 56.2119H154.479L154.095 54.2479V54.2028L153.463 51.0874L153.418 50.8165L153.847 48.9879L154.163 49.3942H154.208ZM154.186 46.7303C154.186 46.7303 154.231 46.7303 154.254 46.7303C154.999 46.64 155.744 46.5046 156.421 46.324L154.931 47.7237L154.186 46.7529V46.7303ZM166.515 59.5305L166.696 58.3566H174.464L174.216 59.5305H166.515ZM181.171 54.7446C181.171 54.7446 181.193 54.7897 181.216 54.8123C181.216 54.8123 181.554 55.2864 182.051 56.2119H175.841C175.841 56.2119 175.796 56.2119 175.774 56.2119H166.086L166.56 55.1283C166.696 54.8349 166.628 54.4737 166.402 54.2479L163.76 51.5389L163.376 51.1551L163.76 50.8842L166.809 48.7847C167.102 48.5815 167.238 48.1977 167.102 47.8365L165.047 42.3056C169.925 44.1568 176.858 47.8365 181.171 54.7446ZM165.386 47.814L163.76 48.9201L161.705 50.3424C161.502 50.5004 161.389 50.7036 161.367 50.9519C161.344 51.1777 161.434 51.426 161.593 51.584L161.728 51.7195L163.783 53.819L164.889 54.9703L164.37 56.1894H158.16L161.209 43.9084C161.389 43.773 161.57 43.615 161.728 43.4795C162.247 43.0054 162.744 42.4862 163.218 41.9218L163.783 43.4569L165.409 47.814H165.386ZM138.785 33.3432C138.605 32.7337 137.972 32.3499 137.363 32.5305C136.979 32.6434 136.708 32.9143 136.572 33.2755C136.414 33.3206 136.256 33.2078 135.737 32.7788H135.714C134.314 31.6049 133.524 30.3181 133.275 29.4829C132.959 28.467 133.072 27.9929 133.546 27.135C133.659 27.0447 134.043 26.8867 134.472 26.9319C134.901 26.977 135.217 27.2253 135.466 27.6317C135.782 28.1961 136.505 28.3767 137.069 28.038C137.069 28.038 137.114 28.0155 137.114 27.9929C137.182 27.9929 137.227 27.9477 137.295 27.88C138.537 26.4803 146.779 23.4101 146.937 23.2521C146.553 23.6133 146.869 24.2905 147.344 24.4937C147.818 24.6743 151.182 23.6359 152.334 23.2521C154.479 22.5071 156.579 21.6041 158.634 20.5882C158.973 21.3106 159.357 22.0104 159.831 22.7103C160.396 23.5456 161.028 24.3583 161.751 25.1033C162.383 25.7579 163.083 26.3449 163.806 26.8416C164.822 27.5414 165.928 28.0606 167.08 28.3541C167.17 28.3541 167.26 28.3767 167.328 28.3767C167.328 28.3767 167.328 28.3767 167.351 28.3767C167.396 28.3767 167.441 28.3767 167.486 28.3767H167.531C167.599 28.3767 167.667 28.3541 167.735 28.3315C167.735 28.3315 167.735 28.3315 167.757 28.3315C167.802 28.3315 167.87 28.2864 167.915 28.2638C167.915 28.2638 167.96 28.2412 167.983 28.2186C168.028 28.1961 168.051 28.1735 168.096 28.1283C168.096 28.1283 168.141 28.0832 168.164 28.0832C168.209 28.038 168.231 28.0155 168.254 27.9703C168.254 27.9703 168.254 27.9703 168.277 27.9477C168.931 27.0899 169.677 27.2479 170.219 27.5414C170.286 27.6317 170.49 28.038 170.219 28.8056C169.902 29.8441 168.886 31.763 167.622 32.7788H167.599C167.238 33.0949 167.057 33.2529 166.922 33.2981C166.809 32.8917 166.493 32.5531 166.064 32.4402C165.431 32.3048 164.822 32.6885 164.664 33.2981C164.415 34.3591 164.122 35.3524 163.783 36.2554C163.422 37.2262 162.993 38.1066 162.541 38.8967C162.428 39.0773 162.338 39.2354 162.225 39.3934C162.067 39.6417 161.909 39.8675 161.728 40.0932C161.728 40.1158 161.683 40.1384 161.683 40.1609C161.457 40.4544 161.231 40.7253 161.005 40.9737C160.734 41.2671 160.441 41.5606 160.125 41.8315C160.057 41.8767 160.012 41.9218 159.944 41.9895C159.944 41.9895 159.944 41.9895 159.921 41.9895C159.809 42.1024 159.673 42.1927 159.538 42.283C157.641 43.7053 155.315 44.4277 152.515 44.4728C152.357 44.4728 152.199 44.4728 152.041 44.4728C151.973 44.4728 151.905 44.4728 151.837 44.4728C151.815 44.4728 151.77 44.4728 151.747 44.4728C151.724 44.4728 151.679 44.4728 151.657 44.4728C151.25 44.4728 150.866 44.4277 150.482 44.4051C150.482 44.4051 150.46 44.4051 150.437 44.4051C150.37 44.4051 150.302 44.4051 150.211 44.3825C150.121 44.3825 150.008 44.3825 149.918 44.3374C147.863 44.0665 146.079 43.4118 144.544 42.3507C144.25 42.1476 143.979 41.9444 143.685 41.7186C143.482 41.5606 143.279 41.38 143.098 41.1994C142.963 41.0865 142.85 40.9511 142.714 40.8156C142.602 40.7028 142.511 40.5899 142.398 40.477C142.24 40.2964 142.105 40.1384 141.947 39.9352C140.592 38.2195 139.53 36.0071 138.785 33.2981V33.3432ZM139.96 42.4636C140.253 42.3733 140.524 42.3056 140.818 42.2379C141.202 42.6442 141.585 43.0506 142.014 43.4118L143.527 49.7329L143.505 49.6651C143.414 49.4394 143.256 49.2588 143.031 49.1459C142.353 48.8073 141.066 48.5364 139.847 49.1459L137.95 47.8591L139.96 42.5088V42.4636ZM121.352 84.7019C119.072 84.2956 117.22 83.0314 116.023 81.0447C116.023 81.0222 116.001 80.9996 115.978 80.977C112.455 76.1233 112.952 65.6258 122.369 54.0899C126.953 48.8976 132.304 45.1501 138.018 43.0957L136.256 47.8365C136.121 48.1752 136.256 48.5815 136.55 48.7847L138.582 50.1844C138.582 50.1844 138.537 50.2295 138.514 50.2521C138.334 50.5004 138.289 50.8165 138.356 51.0874C138.401 51.268 138.537 51.6969 138.763 52.3742L136.934 54.2479C136.708 54.4737 136.64 54.8349 136.776 55.1283L138.447 59.0339C137.995 59.0339 137.543 59.1242 137.137 59.3048C136.459 59.6434 135.669 60.4335 135.308 61.4043C135.037 61.472 134.743 61.5849 134.427 61.7655C133.637 62.217 132.846 63.3232 131.875 65.3549C131.582 65.9645 131.379 67.0029 131.266 67.6124C131.175 67.477 131.108 67.3641 131.04 67.2513C130.859 66.9578 130.566 66.732 130.227 66.6643C129.888 66.5966 129.527 66.6643 129.256 66.9126C129.053 67.0706 128.737 67.2964 128.353 67.5221L128.511 62.8717C128.533 62.1944 128.014 61.63 127.337 61.6074C126.659 61.5849 126.095 62.1041 126.072 62.7813L125.846 69.0573C124.198 70.0506 122.504 71.089 121.533 71.8566C121.014 72.2855 120.923 73.0305 121.352 73.5723C121.781 74.0916 122.527 74.1818 123.069 73.7529C123.927 73.0531 125.665 72.0146 127.201 71.089C128.104 70.5472 128.962 70.028 129.662 69.5765C130.656 70.9536 132.011 72.4661 132.688 73.2111C133.321 73.9109 134.901 75.3332 135.895 76.191C134.811 77.523 132.395 80.2772 129.572 82.4895C127.178 84.3859 124.107 85.1986 121.375 84.7245L121.352 84.7019ZM127.201 114.885C126.885 114.885 126.569 114.885 126.23 114.885C126.23 113.237 126.275 110.28 126.298 106.803C126.298 104.929 126.343 102.898 126.366 100.843C126.411 95.8089 126.478 90.5715 126.501 86.7788C128.104 86.3048 129.662 85.5146 131.04 84.431C133.208 82.7379 135.082 80.7738 136.301 79.4419C138.83 76.62 138.785 76.2813 138.718 75.8298C138.672 75.5138 138.492 75.2203 138.243 75.0171C138.401 74.8591 138.65 74.6334 138.83 74.4528C141.021 74.4979 142.895 73.7981 144.385 72.9402L146.644 78.2002C146.779 78.5163 147.073 78.6969 147.389 78.6969C147.502 78.6969 147.592 78.6969 147.705 78.6292C148.111 78.4486 148.292 77.9745 148.134 77.5681L145.763 72.0146C145.876 71.9243 145.989 71.834 146.102 71.7437L147.366 73.2788C147.547 73.5046 147.818 73.64 148.111 73.64C148.202 73.64 148.292 73.64 148.382 73.5949C148.766 73.482 149.015 73.166 149.06 72.7596V72.6919L149.647 75.0623L146.463 91.4971C146.395 91.8131 146.463 92.1292 146.689 92.3775C146.892 92.6258 147.208 92.7613 147.524 92.7613H176.09C176.406 92.7613 176.699 92.6258 176.903 92.4001C177.49 92.4678 178.122 92.4452 178.732 92.3549C178.687 97.7278 178.641 103.214 178.619 107.661C178.619 108.067 178.619 108.474 178.619 108.857C178.619 111.612 178.596 113.869 178.596 115.337C178.28 115.337 177.941 115.337 177.58 115.337C173.809 115.382 168.412 115.382 163.828 115.382C163.128 115.382 162.428 115.382 161.773 115.382C159.018 115.382 156.783 115.382 155.721 115.382L152.583 109.715L152.312 109.241C152.131 108.903 151.77 108.677 151.363 108.677C150.979 108.677 150.618 108.88 150.415 109.219C150.324 109.377 150.234 109.512 150.144 109.67C148.789 111.973 147.298 114.388 146.689 115.269C145.356 115.224 141.292 115.133 128.466 114.908C128.082 114.908 127.675 114.908 127.269 114.908L127.201 114.885ZM151.25 211.665H132.846C132.846 211.665 132.824 211.665 132.801 211.665C131.762 211.71 130.385 211.575 129.775 210.74C129.143 209.904 129.369 208.505 129.549 207.94C130.543 206.112 134.382 203.403 135.782 202.5C137.114 201.687 137.724 200.784 138.018 200.061L151.273 199.903V211.643L151.25 211.665ZM175.367 207.94C175.525 208.505 175.751 209.904 175.141 210.74C174.532 211.575 173.154 211.688 172.115 211.665C172.115 211.665 172.093 211.665 172.07 211.665H153.666V199.926C155.699 199.926 157.686 199.926 159.605 199.926C161.999 199.926 164.257 199.926 166.289 199.903C166.719 200.626 167.554 201.506 169.157 202.567C169.157 202.567 169.157 202.567 169.18 202.567C170.58 203.448 174.396 206.089 175.39 207.918L175.367 207.94ZM174.735 163.783C174.577 165.702 174.396 167.824 174.193 170.014C174.125 170.691 174.08 171.368 174.012 172.068C173.154 181.685 172.161 192.363 171.732 196.698C171.732 196.901 171.686 197.081 171.664 197.285L165.364 197.352L153.644 197.488V196.856V196.54L153.441 151.818V149.741L153.305 122.222C153.305 121.567 152.763 121.025 152.108 121.025C151.453 121.025 150.912 121.567 150.912 122.245L151.047 149.583V151.638L151.273 196.585V196.833V197.488C150.686 197.488 150.099 197.488 149.511 197.488C146.215 197.488 143.008 197.465 140.14 197.465C140.118 197.465 140.072 197.465 140.05 197.465C137.859 197.465 135.872 197.465 134.156 197.488C133.727 192.499 132.101 173.761 130.475 150.26C130.43 149.583 130.385 148.883 130.34 148.184C129.843 140.824 129.324 133.058 128.872 125.112C128.737 122.403 128.624 119.716 128.511 117.097C136.55 117.233 146.26 117.436 147.028 117.459C147.84 117.571 148.111 117.188 150.257 113.643C150.618 113.056 150.979 112.469 151.273 111.95L154.073 116.985C154.276 117.323 154.637 117.549 155.021 117.549C155.089 117.549 157.912 117.549 161.728 117.549C162.383 117.549 163.083 117.549 163.783 117.549C164.099 117.549 164.415 117.549 164.731 117.549C169.022 117.549 173.854 117.549 177.354 117.504C176.699 133.826 175.819 149.267 174.735 163.76V163.783Z" fill="#303030"/>
<path d="M167.306 28.3771C167.306 28.3771 167.125 28.3771 167.057 28.3545C167.148 28.3545 167.215 28.3771 167.306 28.3771Z" fill="#303030"/>
<path d="M151.408 98.9469C152.289 98.9469 153.012 98.2245 153.012 97.3441C153.012 96.4636 152.289 95.7412 151.408 95.7412C150.528 95.7412 149.805 96.4636 149.805 97.3441C149.805 98.2245 150.528 98.9469 151.408 98.9469Z" fill="#303030"/>
<path d="M151.566 41.3579C152.447 41.3579 153.305 41.1321 153.847 40.7483C154.05 40.6129 154.095 40.3194 153.96 40.1388C153.824 39.9356 153.531 39.8905 153.35 40.0259C152.582 40.5677 150.663 40.658 149.782 39.9808C149.579 39.8227 149.308 39.8679 149.173 40.0711C149.015 40.2742 149.06 40.5452 149.263 40.6806C149.873 41.1547 150.753 41.3579 151.611 41.3579H151.566Z" fill="#303030"/>
<path d="M151.499 37.61C151.499 37.61 151.499 37.61 151.521 37.61C152.108 37.61 152.718 37.3391 153.079 36.9328C153.26 36.7522 153.237 36.4361 153.057 36.2781C152.876 36.0975 152.56 36.12 152.402 36.3007C152.244 36.4813 151.905 36.6619 151.521 36.6619C151.205 36.6619 150.934 36.5264 150.708 36.2555C150.55 36.0523 150.234 36.0298 150.053 36.2104C149.85 36.3684 149.828 36.6844 150.008 36.865C150.415 37.3391 150.934 37.5874 151.521 37.61H151.499Z" fill="#303030"/>
<path d="M146.418 29.7998C145.786 29.7998 145.153 30.4093 145.086 31.6058C145.018 33.2538 145.628 33.9085 146.463 33.9311C147.208 33.9311 147.795 33.2764 147.773 31.6961C147.75 30.0481 147.141 29.7998 146.395 29.7998H146.418Z" fill="#303030"/>
<path d="M144.973 29.0542C146.124 28.7382 147.253 28.9188 147.705 29.0542C147.773 29.0542 147.841 29.0768 147.908 29.0768C148.179 29.0768 148.428 28.8962 148.518 28.6253C148.631 28.2867 148.45 27.9255 148.112 27.8126C147.344 27.5643 145.989 27.4062 144.634 27.79C144.295 27.8803 144.092 28.2415 144.182 28.5801C144.273 28.9188 144.634 29.1219 144.973 29.0316V29.0542Z" fill="#303030"/>
<path d="M155.834 28.8512C156.286 28.7158 157.438 28.5803 158.567 28.9415C158.634 28.9415 158.702 28.9641 158.77 28.9641C159.041 28.9641 159.289 28.7835 159.38 28.5126C159.492 28.174 159.312 27.8128 158.973 27.6999C157.641 27.271 156.286 27.3839 155.496 27.6096C155.157 27.6999 154.954 28.0611 155.067 28.3997C155.157 28.7384 155.518 28.9415 155.857 28.8287L155.834 28.8512Z" fill="#303030"/>
<path d="M156.963 29.7768C156.263 29.7768 155.608 30.138 155.563 31.786C155.518 33.3889 156.083 33.9307 156.828 33.9307C157.731 33.9307 158.228 33.3437 158.251 31.7409C158.251 30.5444 157.776 29.7543 156.963 29.7768Z" fill="#303030"/>
</g>
<defs>
<clipPath id="clip0_62_6772">
<rect width="190" height="216" fill="white"/>
</clipPath>
</defs>
</svg>
