<svg width="103" height="140" viewBox="0 0 103 140" fill="none" xmlns="http://www.w3.org/2000/svg">
<path d="M48.2215 29.2765C47.6068 29.3336 46.9927 30.0622 46.9581 31.307C46.909 32.9736 47.4912 33.7002 48.3801 33.7267C49.1089 33.7429 49.6931 33.0162 49.6342 31.3762C49.5803 29.6556 48.6182 29.2426 48.2215 29.2765Z" fill="#303030"/>
<path d="M49.8097 27.507C49.0397 27.303 47.6896 27.2341 46.3808 27.6837C46.0485 27.7939 45.8814 28.1646 45.9906 28.4886C46.1005 28.8226 46.4695 28.9907 46.7919 28.8811C47.9051 28.4934 49.0391 28.6154 49.4846 28.7288C49.5553 28.7446 49.6155 28.751 49.6851 28.7468C49.9533 28.7306 50.1914 28.5459 50.2546 28.2716C50.3441 27.9356 50.1436 27.5871 49.7992 27.4976L49.8097 27.507Z" fill="#303030"/>
<path d="M59.1875 28.1037C59.6167 27.9476 60.7402 27.7296 61.8843 28.0213C61.9451 28.0376 62.0153 28.0434 62.0749 28.0398C62.3431 28.0237 62.5812 27.839 62.6544 27.5641C62.7438 27.2281 62.5334 26.8801 62.1989 26.7901C60.8624 26.4499 59.518 26.6412 58.7664 26.9069C58.4346 27.0271 58.267 27.3878 58.3868 27.7212C58.5066 28.0546 58.8657 28.2233 59.1974 28.1031L59.1875 28.1037Z" fill="#303030"/>
<path d="M60.3076 28.9888C59.9067 28.9528 58.956 29.391 58.9298 31.1063C58.8994 32.7518 59.5009 33.4671 60.2272 33.4434C61.1225 33.4095 61.6863 32.674 61.6056 31.0051C61.5503 29.7557 60.929 29.0415 60.3076 28.9888Z" fill="#303030"/>
<path d="M53.9243 39.3654C54.2151 39.5583 54.5594 39.6478 54.8972 39.6275C55.0561 39.6179 55.2039 39.5889 55.3499 39.53C55.6711 39.4004 55.8388 39.0395 55.7091 38.7066C55.5799 38.3837 55.2208 38.2149 54.8897 38.3451C54.8213 38.3693 54.7009 38.3565 54.6085 38.3119C54.567 38.2844 54.5137 38.2275 54.5059 38.0976C54.5077 37.7969 54.853 35.4209 55.0056 34.4797C55.0646 34.1353 54.8256 33.809 54.483 33.7495C54.1405 33.69 53.816 33.93 53.7569 34.2743C53.7588 34.3043 53.2229 37.6538 53.2425 38.1437C53.2644 38.6736 53.5001 39.1104 53.9056 39.3866L53.9243 39.3654Z" fill="#303030"/>
<path d="M57.9063 44.5574C58.3028 43.6917 58.4819 42.8591 58.4894 42.8185C58.5282 42.6358 58.4671 42.4491 58.3594 42.3152C58.2411 42.172 58.0674 42.1023 57.8786 42.1137L52.4933 42.4183C52.3244 42.4285 52.1504 42.5192 52.0496 42.6655C51.9488 42.8119 51.9099 42.9947 51.9605 43.172C51.9993 43.32 53.0129 46.7365 55.5658 46.5826C55.5658 46.5826 55.5658 46.5826 55.5758 46.582C56.2314 46.5425 57.1652 46.1555 57.9063 44.5574ZM55.4948 45.4043C54.422 45.469 53.7251 44.3284 53.369 43.5481L57.1351 43.3411C56.8386 44.2109 56.2895 45.3564 55.5047 45.4037L55.4948 45.4043Z" fill="#303030"/>
<path d="M100.646 96.9715C100.646 96.9715 100.645 96.9415 100.644 96.9315C99.3891 86.8649 96.5882 73.3137 92.8227 68.239C85.0515 57.7435 75.606 53.2117 69.3541 50.2212C68.492 49.8121 67.6906 49.4195 66.9507 49.0532L66.8297 47.0461C66.8297 47.0461 66.8249 46.9662 66.8225 46.9262C68.1211 44.9838 69.1389 42.5172 69.9038 39.4946C70.1552 39.5295 70.4147 39.5339 70.6729 39.5184C71.4379 39.4722 72.1808 39.227 72.6528 38.7877C74.5035 37.0726 75.0234 32.3008 75.0442 31.4878C75.0999 29.2696 73.7844 28.2866 73.217 27.97C73.7601 25.071 74.3164 21.0687 74 17.9709C73.5768 13.9275 72.4068 11.222 70.5344 9.93177C69.7855 9.41569 69.0663 9.22853 68.4947 9.1728C68.122 7.29108 66.9411 3.41361 63.4185 2.53356C59.2072 1.47456 51.5155 2.88031 47.389 4.22146C43.5458 5.46537 38.5687 8.90229 36.1321 14.7918C35.236 16.9604 35.301 22.3383 35.6384 25.4549C35.7567 26.5902 35.9039 27.8742 36.067 29.2574C36.0748 29.3872 36.1224 29.5147 36.1787 29.6215L36.1688 29.6221C34.6486 30.8663 34.7094 32.2056 34.936 33.8155C35.1443 35.2862 36.6458 38.3626 38.4077 39.6394C39.2211 40.2318 40.2927 40.8086 41.3493 40.805C42.4576 44.306 44.0615 47.0957 46.1162 49.0965C46.9844 49.9361 47.9131 50.6218 48.9233 51.1722C46.4757 51.7507 36.9582 54.4591 31.2576 62.5999C27.4921 67.7778 25.4029 74.4681 24.1581 78.4617C22.6943 75.1826 21.3283 72.0379 20.7362 70.6504C20.5267 70.1519 19.9926 69.8935 19.4821 70.0245C19.315 70.0646 19.0808 70.1489 18.9213 70.1485C19.0056 69.8929 19.1952 69.4004 19.2789 69.1348C19.4406 68.674 19.601 68.1933 19.7497 67.6833C21.2341 62.703 19.7525 54.6645 18.9642 50.3525C18.8284 49.589 18.7092 48.9347 18.6325 48.4883C18.302 46.3135 17.1087 45.0424 15.5217 45.1782C14.7878 45.2425 14.1596 45.571 13.7053 46.1396C13.0936 46.908 12.8444 48.0656 13.0301 49.3272C13.255 50.9071 13.3459 52.0842 13.4386 53.2913C12.7613 52.9713 12.006 52.8465 11.1938 52.9355C9.82779 53.0981 8.84584 54.0091 8.45721 55.3354C8.23566 55.2987 8.00658 55.3025 7.79857 55.325C7.05715 55.4298 6.49573 55.8746 6.13149 56.4478C5.94034 56.4192 5.751 56.4206 5.54299 56.4431C4.02673 56.5947 3.08753 57.884 3.24947 59.578C3.47913 61.8993 4.01675 63.2098 4.32048 63.7828C4.33853 64.7438 4.45892 67.7331 5.32856 69.7553C5.90772 71.0934 6.40712 71.6044 6.86076 72.0181C7.07147 72.2058 7.10308 72.234 7.18435 72.5899C7.23914 72.8371 7.32854 73.1624 7.43209 73.5571C7.00102 73.6833 6.18856 73.9327 6.05069 73.9611C5.47061 74.0962 5.04376 74.6231 5.17861 75.2062C6.53829 81.0573 10.6722 94.2275 14.4984 99.6493C16.9508 103.119 20.7744 105.024 24.6983 104.787C25.0658 104.765 25.4421 104.722 25.8172 104.659C28.0385 104.295 29.9412 103.278 31.3371 101.791C31.9704 112.627 32.6678 122.046 32.9092 123.735C32.9938 124.311 33.507 124.721 34.0732 124.687C34.103 124.685 34.1328 124.683 34.1626 124.681C34.5874 124.616 34.9281 124.315 35.0549 123.936C35.1048 123.773 35.1244 123.601 35.1036 123.422C34.8427 121.574 33.3618 98.6625 33.2974 97.2633C33.2835 97.0336 33.2703 96.8139 33.2565 96.5842C32.9284 90.4806 32.6416 84.2341 32.4896 78.9016C32.4053 76.1807 32.3659 73.7076 32.3587 71.6034C32.3611 70.9819 31.8629 70.4908 31.2446 70.488C30.6263 70.4852 30.138 70.9856 30.1356 71.6071C30.1389 73.1503 30.1648 74.9026 30.209 76.7941C30.3059 80.7169 30.4817 85.2863 30.7056 89.9932C30.8284 92.6917 30.9741 95.439 31.1273 98.1457C30.1905 100.467 28.1246 102.085 25.4692 102.526C21.9942 103.096 18.4692 101.515 16.2676 98.4001C12.8332 93.526 9.09127 81.8956 7.557 75.7945C8.19306 75.5958 9.1732 75.3162 10.2707 74.9995C14.1025 73.8966 17.4336 72.9241 19.036 72.2161C20.6028 75.8799 24.8062 85.408 26.4826 88.5741C26.6855 88.9628 27.0967 89.1685 27.5039 89.1439C27.653 89.1349 27.8002 89.096 27.9449 89.0171C28.4663 88.7351 28.6662 88.0817 28.3848 87.5474C27.9239 86.6833 27.274 85.3294 26.5407 83.75C26.1969 83.0091 25.8303 82.2194 25.4625 81.4098C25.684 80.7851 25.9263 80.0088 26.2018 79.1203C26.6777 77.5883 27.2885 75.6473 28.0697 73.5557C29.2533 70.3675 30.8449 66.834 32.9996 63.8779C32.9996 63.8779 32.999 63.8679 33.0084 63.8573C36.1381 59.3793 40.6403 56.6625 44.214 55.0841C41.9913 58.2347 38.9879 62.8254 38.8241 63.0858C38.5228 63.545 38.5999 64.1617 39.0108 64.5278L40.1703 65.5703L37.4707 67.4268C37.1164 67.6686 36.9424 68.09 36.9975 68.5076C37.7055 73.3055 39.7623 81.4597 41.8857 87.9061C42.0449 88.3976 42.5118 88.7002 43.0085 88.6703C43.0979 88.6649 43.1966 88.6489 43.2942 88.613C43.8806 88.4173 44.1915 87.7872 43.9965 87.1976C42.007 81.154 40.0863 73.603 39.3018 68.8598L42.5851 66.5973C42.8624 66.4002 43.043 66.0886 43.0622 65.7467C43.0815 65.4048 42.9518 65.0719 42.6989 64.8466L41.2016 63.4937C42.6267 61.3332 46.5108 55.4768 47.7869 53.9867C47.8709 53.8915 47.9338 53.7774 47.9768 53.6646C48.3197 53.5638 48.6234 53.4753 48.8787 53.4098C48.8805 53.4398 48.8823 53.4697 48.8941 53.4991C45.1378 58.9971 42.5646 68.2421 42.8674 75.2493C43.0203 78.7779 44.519 85.6127 45.4128 89.6879C45.4146 89.7178 45.4263 89.7472 45.438 89.7766L37.8841 92.4769C37.6009 92.5741 37.3745 92.7882 37.2511 93.0562C37.1277 93.3242 37.1066 93.6362 37.2128 93.9104L41.5939 106.054C41.5939 106.054 41.6167 106.102 41.6279 106.122C40.9945 106.861 40.9861 107.714 41.2531 108.339C41.5207 108.974 42.0598 109.483 42.7278 109.814C42.3596 110.156 42.061 110.495 41.9394 110.793C41.4105 112.108 42.1525 113.997 42.6422 115.01C43.6892 117.162 45.6964 119.697 48.3779 120.848L49.2954 123.168L54.311 135.914C54.4883 136.374 54.9434 136.648 55.4103 136.619C55.5196 136.613 55.6277 136.586 55.7351 136.55L86.6097 124.937C87.1751 124.723 87.4661 124.094 87.2618 123.515L85.4493 118.423C88.9524 118.151 92.0839 117.672 94.198 116.853C99.8488 114.668 101.715 108.903 100.635 96.9521L100.646 96.9715ZM70.71 83.1318L77.2583 100.466C75.1641 100.622 73.0003 100.783 70.8564 100.942C67.1051 101.228 63.5518 101.493 60.6716 101.676C60.3636 101.695 60.0834 101.842 59.8886 102.084C59.6938 102.327 59.6026 102.633 59.6511 102.941C59.6725 103.13 59.7068 103.368 59.7336 103.647C56.5954 103.024 53.0364 103.029 52.8675 103.039C52.798 103.043 52.7384 103.047 52.6688 103.051C52.077 103.157 50.5195 103.451 48.7862 103.806C48.2739 103.907 47.7423 104.019 47.2206 104.131C45.8425 104.424 44.506 104.745 43.6146 105.01L39.724 94.22L70.7298 83.1306L70.71 83.1318ZM47.6644 47.4898C45.6951 45.5841 44.1906 42.7885 43.1856 39.181C43.1856 39.181 43.1843 39.1611 43.1837 39.1511C43.1825 39.1311 43.1714 39.1117 43.1603 39.0923C43.1591 39.0724 43.1485 39.063 43.1374 39.0436C43.1362 39.0236 43.1257 39.0143 43.1145 38.9949C43.1133 38.9749 43.0922 38.9561 43.0811 38.9368C43.0811 38.9368 43.0799 38.9168 43.0694 38.9074C43.0694 38.9074 43.0694 38.9074 43.0688 38.8974C43.0576 38.878 43.0465 38.8587 43.0254 38.8399C43.0248 38.8299 43.0143 38.8205 43.0037 38.8111C42.9926 38.7918 42.9721 38.783 42.961 38.7636C42.9604 38.7536 42.9393 38.7349 42.9288 38.7255C42.9182 38.7161 42.9071 38.6967 42.8866 38.6879C42.8761 38.6785 42.855 38.6598 42.8445 38.6504C42.8346 38.651 42.8234 38.6316 42.8129 38.6222C42.7918 38.6034 42.7813 38.5941 42.7608 38.5853C42.7608 38.5853 42.7403 38.5765 42.7298 38.5671C42.7093 38.5583 42.6883 38.5395 42.6678 38.5307C42.6579 38.5313 42.6473 38.522 42.6368 38.5126C42.6163 38.5038 42.5959 38.495 42.5754 38.4862C42.5654 38.4868 42.545 38.478 42.5344 38.4686C42.5146 38.4698 42.5034 38.4504 42.4836 38.4516C42.4637 38.4528 42.4432 38.4441 42.4327 38.4347C42.4128 38.4359 42.4023 38.4265 42.3818 38.4177C42.362 38.4189 42.3415 38.4101 42.321 38.4013C42.3111 38.4019 42.2912 38.4031 42.2807 38.3937C42.2608 38.3949 42.2409 38.3961 42.2211 38.3973C42.2012 38.3985 42.1913 38.3991 42.1714 38.4003C42.1515 38.4015 42.1317 38.4027 42.1118 38.4039C42.0919 38.4051 42.0721 38.4063 42.0621 38.4069C42.0423 38.4081 42.0323 38.4087 42.0125 38.4099C41.9926 38.4111 41.9727 38.4123 41.9529 38.4135C41.9429 38.4141 41.9231 38.4153 41.9131 38.4159C41.8933 38.4171 41.8635 38.4189 41.8442 38.4301C41.8442 38.4301 41.8442 38.4301 41.8343 38.4307C41.8343 38.4307 41.8144 38.4319 41.8045 38.4325C41.7846 38.4336 41.7653 38.4448 41.7361 38.4566C41.7163 38.4578 41.7069 38.4684 41.6877 38.4796C41.6678 38.4808 41.6585 38.4914 41.6392 38.5025C41.6193 38.5037 41.6007 38.5249 41.5814 38.5361C41.5814 38.5361 41.5615 38.5373 41.5522 38.5479C41.3309 38.6815 40.7265 38.5776 39.7253 37.8462C38.4947 36.9483 37.2858 34.4255 37.151 33.5116C36.9427 32.0409 37.0294 31.8252 37.5802 31.371C37.9129 31.1004 38.6931 31.1436 38.8933 31.322C39.21 31.6135 39.6736 31.6958 40.0724 31.5315C40.4713 31.3671 40.7371 30.9803 40.7503 30.5385L40.8377 28.0178C42.4093 27.1313 46.99 24.5601 50.6387 22.4059C50.0692 23.2119 49.7793 23.8608 50.0084 24.5184C50.1541 24.9506 50.5023 25.2704 50.9683 25.3926C52.2552 25.736 56.605 25.7844 58.9656 24.5898C61.1231 23.4976 62.8127 22.2533 64.0819 20.8138C65.3371 21.4597 65.581 21.8659 66.63 23.5565C66.7513 23.7496 66.8738 23.9627 67.0168 24.1846C68.4416 26.484 68.1053 30.0019 68.1077 30.0419C68.1077 30.0419 68.1077 30.0419 68.1083 30.0519C68.1095 30.0718 68.1113 30.1018 68.1125 30.1218C68.1137 30.1417 68.1143 30.1517 68.1155 30.1717C68.1167 30.1917 68.1179 30.2116 68.1191 30.2316C68.1203 30.2516 68.1215 30.2715 68.1227 30.2915C68.1239 30.3115 68.1246 30.3215 68.1258 30.3414C68.127 30.3614 68.1282 30.3814 68.1294 30.4014C68.13 30.4113 68.1312 30.4313 68.1318 30.4413C68.133 30.4613 68.1342 30.4812 68.1459 30.5106C68.1465 30.5206 68.1477 30.5406 68.1583 30.5499C68.1595 30.5699 68.1706 30.5893 68.1817 30.6087C68.1829 30.6286 68.1935 30.638 68.2046 30.6574C68.2058 30.6774 68.2164 30.6867 68.2275 30.7061C68.2287 30.7261 68.2498 30.7449 68.2609 30.7642C68.2615 30.7742 68.272 30.7836 68.2832 30.803C68.2943 30.8224 68.3055 30.8417 68.3265 30.8605C68.3271 30.8705 68.3377 30.8799 68.3482 30.8893C68.3594 30.9086 68.3798 30.9174 68.391 30.9368C68.3916 30.9468 68.412 30.9556 68.4226 30.965C68.4331 30.9743 68.4542 30.9931 68.4647 31.0025C68.4752 31.0119 68.4963 31.0307 68.5069 31.04C68.5174 31.0494 68.5279 31.0588 68.5484 31.0676C68.5689 31.0764 68.58 31.0958 68.6005 31.1046C68.6005 31.1046 68.6005 31.1046 68.6104 31.104C68.6104 31.104 68.6203 31.1034 68.6309 31.1127C68.6513 31.1215 68.6724 31.1403 68.6929 31.1491C68.7028 31.1485 68.7233 31.1573 68.7338 31.1667C68.7537 31.1655 68.7748 31.1842 68.7952 31.193C68.8151 31.1918 68.8256 31.2012 68.8461 31.21C68.866 31.2088 68.8765 31.2182 68.897 31.227C68.9168 31.2258 68.9373 31.2346 68.9578 31.2434C68.9677 31.2428 68.9876 31.2416 68.9981 31.251C69.018 31.2498 69.0484 31.2579 69.0689 31.2667L69.0887 31.2655C69.0887 31.2655 69.0987 31.2649 69.1086 31.2643C69.1285 31.2631 69.1583 31.2613 69.1781 31.2602C69.198 31.259 69.2079 31.2584 69.2278 31.2572C69.2477 31.256 69.2675 31.2548 69.2874 31.2536C69.3073 31.2524 69.3271 31.2512 69.347 31.25C69.3669 31.2488 69.3768 31.2482 69.3967 31.247C69.4165 31.2458 69.4364 31.2446 69.4563 31.2434C69.4662 31.2428 69.4861 31.2416 69.496 31.241C69.5159 31.2398 69.5457 31.238 69.5649 31.2268C69.5749 31.2262 69.5947 31.225 69.6041 31.2144C69.6239 31.2132 69.6432 31.202 69.6625 31.1909C69.6823 31.1897 69.6917 31.1791 69.7109 31.1679C69.7308 31.1667 69.7401 31.1561 69.7594 31.1449C69.7793 31.1437 69.7979 31.1226 69.8073 31.112C69.8172 31.1114 69.8365 31.1002 69.8458 31.0896C69.8651 31.0784 69.8843 31.0672 69.8931 31.0467C69.903 31.0461 69.9117 31.0255 69.9316 31.0243C69.9509 31.0131 69.9596 30.9926 69.9789 30.9814C69.9882 30.9708 69.9975 30.9602 70.0168 30.949C70.0261 30.9384 70.0454 30.9273 70.0541 30.9067C70.0634 30.8961 70.0821 30.8749 70.0914 30.8643C70.0908 30.8544 70.1101 30.8432 70.1194 30.8326C70.1381 30.8114 70.1468 30.7909 70.1562 30.7803C70.1562 30.7803 70.1562 30.7803 70.1556 30.7703C70.5921 30.0725 71.8013 29.7891 72.1369 29.8992C72.3633 30.0158 72.8753 30.4059 72.8473 31.4298C72.8157 32.7246 72.1498 36.2323 71.1778 37.1428C70.9683 37.3057 70.173 37.3437 69.8759 37.2112C69.8548 37.1925 69.8443 37.1831 69.8232 37.1643C69.8232 37.1643 69.8021 37.1455 69.7916 37.1361C69.7711 37.1274 69.7606 37.118 69.7395 37.0992C69.729 37.0898 69.7085 37.081 69.6979 37.0716C69.688 37.0722 69.6669 37.0535 69.657 37.0541C69.6365 37.0453 69.6161 37.0365 69.6055 37.0271C69.5956 37.0277 69.5851 37.0183 69.5646 37.0095C69.5447 37.0107 69.5237 36.9919 69.5032 36.9832C69.4933 36.9838 69.4833 36.9844 69.4629 36.9756C69.443 36.9768 69.4219 36.958 69.3921 36.9598C69.3921 36.9598 69.3921 36.9598 69.3722 36.961C69.3722 36.961 69.3524 36.9622 69.3424 36.9628C69.3226 36.964 69.3021 36.9552 69.2822 36.9564C69.2624 36.9576 69.2524 36.9582 69.2326 36.9594C69.2127 36.9606 69.1928 36.9618 69.1829 36.9624C69.163 36.9636 69.1432 36.9648 69.1233 36.966C69.1034 36.9672 69.0935 36.9678 69.0736 36.969C69.0538 36.9702 69.0339 36.9714 69.014 36.9726C68.9942 36.9738 68.9842 36.9744 68.9644 36.9755C68.9445 36.9767 68.9246 36.9779 68.9048 36.9791C68.8849 36.9803 68.875 36.9809 68.8551 36.9821C68.8352 36.9833 68.8253 36.9839 68.806 36.9951C68.7862 36.9963 68.7669 37.0075 68.7476 37.0187C68.7377 37.0193 68.7178 37.0205 68.7085 37.0311C68.6886 37.0323 68.67 37.0534 68.6501 37.0546C68.6402 37.0552 68.6302 37.0558 68.611 37.067C68.5911 37.0682 68.5724 37.0894 68.5532 37.1006C68.5432 37.1012 68.5339 37.1117 68.5146 37.1229C68.4948 37.1241 68.486 37.1447 68.4668 37.1559C68.4568 37.1565 68.4382 37.1776 68.4288 37.1882C68.4189 37.1888 68.4102 37.2094 68.3909 37.2206C68.3716 37.2318 68.3629 37.2523 68.3436 37.2635C68.3436 37.2635 68.3343 37.2741 68.325 37.2847C68.3063 37.3059 68.2871 37.317 68.2783 37.3376C68.2783 37.3376 68.2597 37.3588 68.2503 37.3694C68.2317 37.3905 68.2223 37.4011 68.2136 37.4217C68.2142 37.4317 68.1955 37.4528 68.1862 37.4634C68.1775 37.484 68.1681 37.4946 68.1594 37.5152C68.1606 37.5351 68.1414 37.5463 68.1326 37.5669C68.1338 37.5868 68.1146 37.598 68.1058 37.6186C68.107 37.6386 68.0884 37.6597 68.0797 37.6803C68.0803 37.6903 68.0715 37.7109 68.0622 37.7215C68.0634 37.7414 68.0447 37.7626 68.0465 37.7926C68.0471 37.8025 68.0477 37.8125 68.0384 37.8231C66.1506 46.3654 62.7325 50.0291 56.2692 50.4788C52.824 50.7166 49.9323 49.7183 47.6668 47.5298L47.6644 47.4898ZM68.4086 52.2325C69.0145 52.5267 69.6509 52.829 70.3083 53.1502C70.2764 53.2824 70.2749 53.4228 70.3032 53.5614C70.6831 55.8937 70.7553 61.3914 70.7727 63.3346L65.1836 66.0468C64.8642 66.2063 64.6426 66.5003 64.5743 66.8552C64.506 67.2101 64.617 67.5642 64.8618 67.82L68.0147 71.1677C65.9767 73.4152 55.6741 85.2609 54.7201 86.471L52.1533 87.3874C52.4883 86.826 52.8514 86.2329 53.2219 85.5992C54.889 82.8228 56.7828 79.672 58.2022 77.2513C63.4897 68.2134 67.2935 58.5434 68.1412 52.0982C68.2337 52.1428 68.3155 52.1779 68.408 52.2225L68.4086 52.2325ZM44.008 111.701C44.288 111.383 45.3753 110.566 46.4213 109.892C46.9012 109.582 47.0637 108.971 46.8238 108.464C46.574 107.958 45.9909 107.713 45.4542 107.905C44.4975 108.244 43.5956 107.837 43.3696 107.56C43.4262 107.506 43.5312 107.43 43.6959 107.35C44.4993 106.951 49.5607 105.904 52.9626 105.278C53.5809 105.281 57.1529 105.326 59.9142 105.981C59.9777 106.869 60.0466 107.847 60.1173 108.855C60.2522 110.762 60.3973 112.837 60.5547 114.622C56.7527 117.046 50.9836 119.087 49.9147 119.052C48.3617 118.594 46.2073 117.09 44.7488 114.232C44.0703 112.9 43.9559 111.994 44.0086 111.711L44.008 111.701ZM54.9339 78.4405C54.9255 78.3007 54.9363 78.1497 54.9378 78.0093C54.9562 76.1641 55.0077 74.2068 55.0664 72.3692C55.142 69.8191 55.2076 67.6002 55.155 66.2304C55.4009 65.8448 55.7685 65.1612 56.4413 63.918C56.5764 63.6793 56.701 63.4313 56.8269 63.2032C57.3615 63.8023 57.9184 64.4403 58.5192 65.1457L58.5409 65.1744C58.7341 65.4033 59.0015 65.5375 59.3019 65.5595C59.3515 65.5565 59.4018 65.5635 59.4515 65.5605C59.6899 65.5461 59.9235 65.4519 60.1131 65.2901L62.7092 63.039C61.0294 67.2593 58.8313 71.8115 56.3003 76.1332C55.8843 76.8398 55.4321 77.6087 54.9526 78.4193C54.9526 78.4193 54.9532 78.4293 54.9439 78.4399L54.9339 78.4405ZM51.1773 62.4313C51.1941 62.0495 51.2017 61.6782 51.2116 61.3469C52.0593 60.8548 52.8796 60.4045 53.5668 60.0624C54.1637 60.5375 54.7011 61.0163 55.2092 61.5068C54.993 61.8906 54.742 62.3567 54.4822 62.8434C54.1414 63.4753 53.6661 64.3558 53.3859 64.8337C52.8377 64.8367 51.8172 64.778 51.0767 64.7324C51.121 63.9781 51.1517 63.1645 51.1773 62.4313ZM59.4988 62.8717C58.0728 61.2139 56.7917 59.8079 55.0307 58.3807C55.3302 58.2223 55.7068 58.0192 56.2282 57.7372C57.3188 57.1403 58.6972 56.3557 59.9973 55.5958C62.0289 54.401 64.5106 52.8984 65.9528 51.8493C65.684 53.8399 65.1078 56.1897 64.2754 58.7554L59.5093 62.8811L59.4988 62.8717ZM64.79 49.9251C62.7385 51.4518 56.1987 55.2636 54.1295 56.3304C53.4615 55.6691 52.2026 54.3018 51.4248 53.3064C51.4305 53.2359 51.4362 53.1654 51.4215 53.0861L51.3357 52.1593C52.8583 52.6087 54.5031 52.7701 56.2713 52.6635C56.3209 52.6605 56.3706 52.6575 56.4103 52.6551C59.8357 52.4185 62.5828 51.351 64.755 49.3459L64.7888 49.9051L64.79 49.9251ZM52.6662 58.0221C51.2532 58.7286 49.3365 59.8464 47.7014 60.8369C48.4488 58.8476 49.3344 57.0003 50.3077 55.4483C50.7158 55.9348 51.1216 56.3814 51.3564 56.6378C51.9332 57.2745 52.3582 57.7099 52.6755 58.0115L52.6662 58.0221ZM46.2123 82.1132C47.3078 78.6196 48.2545 75.3054 49.0956 72.3884C49.688 70.3082 50.2155 68.4724 50.682 66.951C50.7516 66.9468 50.8323 66.962 50.9024 66.9678C51.7925 67.0144 52.443 67.0553 52.9421 67.0653C52.9527 68.3976 52.8982 70.3051 52.8391 72.303C52.7392 75.6063 52.6353 79.3407 52.7593 82.0592C52.2698 82.8705 51.7897 83.6711 51.3183 84.4512C50.4844 85.8344 49.5654 87.6236 49.0013 88.5195L47.5669 89.0369C47.1687 87.2269 46.6295 84.7338 46.1518 82.2671C46.1786 82.2154 46.1961 82.1743 46.2129 82.1231L46.2123 82.1132ZM48.9401 62.6965C48.909 63.6705 48.8624 64.7156 48.7838 65.5622C48.2561 67.2276 47.645 69.3289 46.9544 71.7658C46.4514 73.5099 45.9171 75.3962 45.3286 77.3759C45.2184 76.5407 45.1428 75.7836 45.1148 75.1539C44.9746 71.8351 45.5445 67.8921 46.605 64.1501C47.2098 63.7629 48.0358 63.2421 48.9395 62.6865L48.9401 62.6965ZM60.8015 117.062C60.8057 117.132 60.8099 117.202 60.8241 117.271C60.887 117.819 61.3406 118.232 61.8801 118.25C62.2097 118.26 62.7 118.291 63.3202 118.324C67.0507 118.52 75.6019 118.966 83.1664 118.59L84.8232 123.251L55.9955 134.089L50.9077 121.136C53.3912 120.656 57.747 118.82 60.8114 117.062L60.8015 117.062ZM63.4249 116.092C63.2449 116.083 63.0748 116.073 62.9246 116.062C62.8996 115.813 62.8741 115.554 62.8485 115.295C62.8686 115.134 62.859 114.974 62.8096 114.817C62.6486 112.972 62.4834 110.727 62.3401 108.681C62.2046 106.765 62.0812 105.049 61.9675 103.823C64.6285 103.643 67.7447 103.405 71.0205 103.167C77.3627 102.695 83.923 102.199 88.0205 102.032C88.6271 102.006 89.1141 101.485 89.0873 100.875C89.0599 100.256 88.5425 99.7757 87.9359 99.8023C87.15 99.8296 86.2752 99.8723 85.3315 99.9292C84.8643 97.4719 83.2635 89.1098 82.5308 85.5561C82.4047 84.9524 81.8231 84.5665 81.222 84.6829C80.6215 84.8093 80.2379 85.3937 80.3541 85.998C81.0486 89.4137 82.5603 97.2901 83.0958 100.054C81.9832 100.121 80.8017 100.202 79.5804 100.286L72.4038 81.2959C72.1901 80.7275 71.5643 80.4345 70.9884 80.6396L58.5549 85.0873C64.0775 78.7913 70.2666 71.974 70.3419 71.8993C70.7344 71.4648 70.7245 70.8039 70.3299 70.3767L67.5078 67.3899L72.3606 65.0328C72.7483 64.8491 72.9837 64.4541 72.9883 64.0329C72.9913 63.7521 72.9889 57.7591 72.6316 54.313C78.2616 57.2408 85.177 61.6445 91.0379 69.5593C94.3154 73.9819 97.1106 86.6114 98.4254 97.1755C99.6258 110.473 96.7272 113.493 93.4048 114.776C86.8575 117.306 69.2151 116.385 63.4138 116.073L63.4249 116.092ZM5.78229 58.5935C6.03816 58.538 6.10167 58.7646 6.15375 58.8016C6.29884 59.8852 6.63928 61.7288 7.12482 62.6717C7.1483 62.7304 7.18111 62.7785 7.21453 62.8366C7.21453 62.8366 7.21453 62.8366 7.21513 62.8466C7.20008 62.9277 7.11609 63.023 6.98123 63.1012C6.82711 63.1907 6.64017 63.232 6.47009 63.2223C6.17509 62.9594 5.45415 61.7501 5.30275 59.4041C5.25941 58.6851 5.65375 58.6112 5.78169 58.5835L5.78229 58.5935ZM6.64347 64.7752C7.01102 64.7531 7.38369 64.6504 7.72114 64.4597C7.96226 64.3249 8.16124 64.1526 8.32921 63.9621C8.65733 64.1126 9.0309 64.1903 9.38851 64.1688C9.65673 64.1526 9.92193 64.0865 10.1643 63.9717C10.7073 63.7185 11.1161 63.2228 11.2916 62.661C11.3413 62.658 11.3909 62.655 11.4406 62.652C11.7188 62.6353 11.9828 62.5492 12.2233 62.4044C12.3067 62.6299 12.3894 62.8454 12.4599 63.0215C11.8864 63.5973 10.9593 64.7556 10.8686 66.3946C10.8448 66.827 11.1657 67.1885 11.5959 67.2127C11.6257 67.2109 11.6555 67.2091 11.6853 67.2073C12.0727 67.1839 12.3831 66.8746 12.4087 66.4722C12.5023 64.8831 13.7979 63.8829 13.8265 63.8612C13.8364 63.8606 13.8452 63.84 13.8644 63.8288C13.8831 63.8076 13.9024 63.7965 13.931 63.7747C13.9496 63.7535 13.959 63.7429 13.9776 63.7218C13.9963 63.7006 14.005 63.68 14.0237 63.6589C14.0423 63.6377 14.0511 63.6171 14.0598 63.5966C14.0685 63.576 14.0773 63.5554 14.086 63.5348C14.0947 63.5143 14.1029 63.4837 14.1116 63.4631C14.1104 63.4432 14.1284 63.412 14.1272 63.392C14.126 63.3721 14.1342 63.3415 14.133 63.3215C14.1312 63.2916 14.1299 63.2716 14.1281 63.2417C14.1263 63.2117 14.1251 63.1917 14.1233 63.1618C14.1221 63.1418 14.1203 63.1118 14.1191 63.0919C14.1173 63.0619 14.1062 63.0425 14.0944 63.0132C14.0932 62.9932 14.0926 62.9832 14.0914 62.9633C14.0562 62.8752 13.2717 60.7778 13.0382 60.2106C12.4759 58.8213 12.2519 57.4217 12.4232 57.1208C12.6631 56.966 12.8338 56.9858 12.9548 57.0086C13.8254 57.2267 14.7862 58.9426 15.3004 59.8637C15.4346 60.1062 15.5466 60.3099 15.6568 60.4837C15.8783 60.8511 16.3536 60.9628 16.7191 60.7403C17.0845 60.5179 17.1953 60.0401 16.9737 59.6727C16.8852 59.5277 16.7739 59.3339 16.6508 59.1109C16.3266 58.5291 15.9244 57.8117 15.447 57.169C15.7323 56.9413 15.8907 56.591 15.8479 56.2128C15.7438 55.1467 15.6809 54.2686 15.6198 53.4204C15.5181 52.0635 15.4311 50.786 15.1737 48.9975C15.0861 48.3714 15.1785 47.7545 15.4007 47.4705C15.4841 47.3653 15.5617 47.3305 15.7002 47.3121C16.2664 47.278 16.4964 48.7775 16.497 48.7875C16.5662 49.2744 16.6842 49.9086 16.8329 50.7215C17.5334 54.5678 19.002 62.557 17.667 67.0371C17.5258 67.5066 17.374 67.9668 17.2211 68.4069C16.9421 69.2355 16.6805 70.023 16.5281 70.8039C14.5838 71.4623 11.7614 72.2738 9.67382 72.8707C9.61482 72.8843 9.56575 72.8973 9.50735 72.9208C9.40621 72.5661 9.32855 72.2702 9.28611 72.0623C9.06938 71.1132 8.70755 70.7342 8.28672 70.3687C8.02393 70.144 7.73886 69.8806 7.29937 68.8748C6.77891 67.6835 6.58476 65.9513 6.51373 64.773C6.55347 64.7706 6.58327 64.7688 6.623 64.7665L6.64347 64.7752ZM8.85815 58.0172C9.00715 59.0004 9.2287 60.0293 9.50443 60.9648C9.59082 61.2402 9.69889 61.5444 9.87468 61.8144C9.85843 61.8755 9.84277 61.9466 9.84699 62.0165C9.8503 62.2368 9.69467 62.4666 9.50081 62.5585C9.30695 62.6504 9.03572 62.6166 8.86775 62.4764C8.72086 62.355 8.59834 62.1419 8.49629 61.9376C8.14561 61.2471 7.816 59.5833 7.67031 58.4897C7.62034 57.9916 7.49813 57.6181 8.1062 57.4512C8.44907 57.3503 8.78441 57.6208 8.85755 58.0072L8.85815 58.0172ZM11.4623 55.0741C12.0069 55.0112 12.4834 55.1428 12.8913 55.459C12.4419 55.446 11.9915 55.5834 11.5788 55.8488C10.1691 56.7756 11.139 59.6335 11.6291 60.8167C11.6303 60.8366 11.6519 60.8654 11.6637 60.8948C11.533 61.0429 11.4268 61.0995 11.3672 61.103C11.3672 61.103 11.2754 61.0685 11.2431 61.0303C11.1378 60.9365 11.0649 60.7204 11.0026 60.5137C10.7269 59.5782 10.5054 58.5493 10.3768 57.5749C10.2074 55.9214 10.7588 55.1466 11.4816 55.0629L11.4623 55.0741Z" fill="#303030"/>
<path d="M20.0924 43.5999C20.196 43.6638 20.3071 43.6872 20.4163 43.6806C20.5952 43.6698 20.7685 43.5692 20.8682 43.4028L22.3802 40.8663C22.5434 40.5959 22.4528 40.2506 22.1843 40.0964C21.9152 39.9322 21.5717 40.0231 21.4085 40.2935L19.8965 42.83C19.7333 43.1004 19.8239 43.4457 20.0924 43.5999Z" fill="#303030"/>
<path d="M15.9715 42.3853C15.9715 42.3853 16.0013 42.3835 16.0112 42.3829C16.2993 42.3655 16.5338 42.1209 16.5356 41.8201L16.5579 38.8823C16.5591 38.5716 16.3144 38.3157 16.0052 38.3143C15.6961 38.3129 15.4417 38.5588 15.4405 38.8695L15.4182 41.8073C15.417 42.1181 15.6617 42.3739 15.9709 42.3753L15.9715 42.3853Z" fill="#303030"/>
<path d="M11.7281 42.9415C11.8464 43.0847 12.0195 43.1444 12.1883 43.1342C12.3075 43.1271 12.4243 43.0799 12.5189 42.994C12.7558 42.7893 12.7744 42.4375 12.5806 42.1986L10.6616 39.9691C10.4578 39.7309 10.1077 39.7119 9.87017 39.9066C9.63327 40.1113 9.6146 40.4632 9.80846 40.7021L11.7275 42.9315L11.7281 42.9415Z" fill="#303030"/>
</svg>
