<svg width="106" height="120" viewBox="0 0 106 120" fill="none" xmlns="http://www.w3.org/2000/svg">
<g clip-path="url(#clip0_62_6278)">
<path d="M47.2914 39.7194C47.0427 39.6592 46.6747 39.8698 46.4659 40.1104C45.6702 41.033 45.6106 42.9583 46.4161 43.4195C46.7046 43.58 47.2615 43.7003 47.5897 43.3293C48.5147 42.2664 48.5047 40.0302 47.3013 39.7194H47.2914Z" fill="#009F42"/>
<path d="M57.0181 44.8837C58.2215 44.8135 58.6292 42.8681 58.1817 41.725C58.0325 41.3439 57.6844 41.0732 57.3463 41.0531C56.3915 40.993 55.5561 42.9082 56.1627 44.4324C56.3119 44.8135 56.7495 44.8937 57.0181 44.8837Z" fill="#009F42"/>
<path d="M52.1448 48.1021C52.3238 47.9317 52.2641 47.4905 52.1448 47.3802C52.0056 47.2498 51.7072 47.2699 51.2895 47.0793L52.0354 44.793C52.1647 44.412 51.9956 44.0811 51.6674 44.041C51.3491 44.0009 51.0906 44.0911 50.9613 44.4722L50.2551 46.6181C50.0761 47.1696 50.3049 47.7311 50.6828 48.042C51.0607 48.3428 51.7868 48.4431 52.1448 48.1021Z" fill="#009F42"/>
<path d="M45.859 39.0272L48.6537 38.586C49.0018 38.5359 49.0714 38.1448 49.0118 37.8941C48.9421 37.6133 48.6836 37.4529 48.3255 37.5131L45.4811 37.9743C45.1429 38.0245 45.0733 38.3955 45.123 38.6462C45.1827 38.9069 45.4115 39.0974 45.8491 39.0272H45.859Z" fill="#009F42"/>
<path d="M50.2151 52.2636C51.7865 52.043 52.1247 53.9783 52.8805 53.2563C53.5568 52.5945 51.7169 50.6792 49.7576 51.2107C49.4593 51.2909 49.4394 51.7923 49.5786 51.9928C49.698 52.1733 49.9367 52.3037 50.2151 52.2636Z" fill="#009F42"/>
<path d="M56.9683 39.7394L59.5045 41.043C59.8227 41.2035 60.1509 41.033 60.2404 40.8124C60.31 40.6319 60.3399 40.2408 60.1111 40.1205L57.4954 38.7367C57.1772 38.5662 56.839 38.6966 56.7296 38.9372C56.6103 39.208 56.66 39.579 56.9683 39.7394Z" fill="#009F42"/>
<path d="M29.2798 11.5319C29.2102 11.4718 29.1207 11.4316 29.0311 11.4316H23.034C22.9444 11.4316 22.8549 11.4617 22.7853 11.5319L16.6191 17.1173C16.4997 17.2176 16.4599 17.388 16.5196 17.5384C16.5793 17.6888 16.7185 17.7791 16.8677 17.7791H18.6877V26.2925C18.6877 26.5031 18.8568 26.6736 19.0657 26.6736H32.9994C33.2083 26.6736 33.3774 26.5031 33.3774 26.2925V17.7791H35.1974C35.3565 17.7791 35.4958 17.6788 35.5455 17.5384C35.6052 17.388 35.5654 17.2276 35.446 17.1173L29.2798 11.5319ZM32.6116 25.9115H19.4337V17.7791H32.6116V25.9115Z" fill="#009F42"/>
<path d="M24.3369 23.8255H27.7085C27.9173 23.8255 28.0864 23.655 28.0864 23.4445V20.0451C28.0864 19.8345 27.9173 19.6641 27.7085 19.6641H24.3369C24.1281 19.6641 23.959 19.8345 23.959 20.0451V23.4445C23.959 23.655 24.1281 23.8255 24.3369 23.8255ZM24.7148 20.4362H27.3305V23.0734H24.7148V20.4362Z" fill="#009F42"/>
<path d="M80.3306 36.4103V38.1952C80.3306 38.8871 81.0765 39.4787 82.4788 39.8899C83.722 40.2509 85.363 40.4514 87.1035 40.4514C88.844 40.4514 90.485 40.2509 91.7282 39.8899C93.1305 39.4787 93.8764 38.8871 93.8764 38.1952V28.5587C93.8764 27.8568 93.1305 27.2752 91.7282 26.8641C90.485 26.5031 88.844 26.2925 87.1035 26.2925C85.363 26.2925 83.722 26.493 82.4788 26.8641C81.0765 27.2752 80.3306 27.8668 80.3306 28.5587V30.4539V32.4394V34.4248V36.4103ZM81.713 31.0355C81.2456 30.7949 81.0864 30.5743 81.0864 30.4539V29.6617C81.0864 29.6617 81.1163 29.6718 81.1262 29.6818C81.2754 29.7821 81.4544 29.8723 81.6533 29.9525C81.6931 29.9726 81.7329 29.9826 81.7826 30.0027C81.9915 30.0929 82.2202 30.1732 82.4788 30.2534C83.722 30.6144 85.363 30.8249 87.1035 30.8249C88.844 30.8249 90.485 30.6244 91.7282 30.2534C91.9868 30.1732 92.2155 30.0929 92.4244 30.0027C92.4642 29.9826 92.5139 29.9726 92.5537 29.9525C92.7526 29.8623 92.9316 29.7721 93.0808 29.6818C93.0907 29.6818 93.1106 29.6718 93.1206 29.6617V30.4539C93.1206 30.5642 93.0012 30.7146 92.7824 30.8651C92.494 31.0656 92.0564 31.2461 91.5193 31.4065C90.3458 31.7475 88.7744 31.938 87.1035 31.938C85.6415 31.938 84.2292 31.7876 83.1153 31.5168C82.9164 31.4667 82.7076 31.5971 82.6578 31.7976C82.6081 31.9982 82.7374 32.2087 82.9363 32.2589C84.1099 32.5397 85.5918 32.7001 87.1035 32.7001C88.844 32.7001 90.485 32.4996 91.7282 32.1386C92.3051 31.9681 92.7725 31.7675 93.1206 31.5469V32.4394C93.1206 32.67 92.6233 33.0711 91.5193 33.392C90.3458 33.7329 88.7744 33.9235 87.1035 33.9235C85.4327 33.9235 83.8613 33.7329 82.6877 33.392C81.5837 33.0711 81.0864 32.67 81.0864 32.4394V31.5369C81.1759 31.5971 81.2655 31.6572 81.3749 31.7174C81.4246 31.7475 81.4843 31.7575 81.5439 31.7575C81.6832 31.7575 81.8125 31.6773 81.8821 31.5469C81.9716 31.3564 81.902 31.1258 81.713 31.0355ZM82.4788 34.114C83.722 34.475 85.363 34.6755 87.1035 34.6755C88.844 34.6755 90.485 34.475 91.7282 34.114C92.3051 33.9435 92.7725 33.743 93.1206 33.5224V34.4148C93.1206 34.6455 92.6233 35.0466 91.5193 35.3674C90.3458 35.7084 88.7744 35.8989 87.1035 35.8989C85.4327 35.8989 83.8613 35.7084 82.6877 35.3674C81.5837 35.0466 81.0864 34.6455 81.0864 34.4148V33.5224C81.4345 33.743 81.892 33.9435 82.4788 34.114ZM87.1035 39.6994C83.1551 39.6994 81.0864 38.7166 81.0864 38.1952V37.4933C81.4345 37.7139 81.892 37.9144 82.4788 38.0849C83.722 38.4459 85.363 38.6465 87.1035 38.6465C88.6252 38.6465 90.0971 38.486 91.2707 38.2052C91.4696 38.1551 91.5989 37.9546 91.5492 37.744C91.4995 37.5434 91.3005 37.4131 91.0917 37.4632C89.9778 37.7339 88.5556 37.8844 87.1035 37.8844C85.4327 37.8844 83.8613 37.6938 82.6877 37.3529C81.4246 36.9819 81.0864 36.5707 81.0864 36.4003V35.4978C81.4345 35.7184 81.892 35.919 82.4788 36.0894C83.722 36.4504 85.363 36.651 87.1035 36.651C88.844 36.651 90.485 36.4504 91.7282 36.0894C92.3051 35.919 92.7725 35.7184 93.1206 35.4978V36.4003C93.1206 36.5306 92.9515 36.7512 92.494 36.9819C92.305 37.0721 92.2354 37.3028 92.3249 37.4933C92.3946 37.6236 92.5238 37.7039 92.6631 37.7039C92.7228 37.7039 92.7824 37.6938 92.8322 37.6638C92.9416 37.6036 93.0311 37.5434 93.1206 37.4833V38.1852C93.1206 38.7066 91.0519 39.6893 87.1035 39.6893V39.6994ZM87.1035 27.0546C91.0519 27.0546 93.1206 28.0373 93.1206 28.5587C93.1206 29.0801 91.0519 30.0628 87.1035 30.0628C83.1551 30.0628 81.0864 29.0801 81.0864 28.5587C81.0864 28.0373 83.1551 27.0546 87.1035 27.0546Z" fill="#009F42"/>
<path d="M86.1984 28.2176C86.1984 28.2176 86.1984 28.2577 86.1486 28.2577H85.3928C85.3928 28.2577 85.3331 28.2678 85.3331 28.2878V28.5686C85.3331 28.5686 85.3629 28.5987 85.3928 28.5987H86.457C86.457 28.5987 86.5166 28.6087 86.5166 28.6288V28.7692C86.5166 28.7692 86.4868 28.7992 86.457 28.7992H85.3928C85.3928 28.7992 85.3331 28.8093 85.3331 28.8293V29.1101C85.3331 29.1101 85.3629 29.1402 85.3928 29.1402H86.457C86.457 29.1402 86.5166 29.1502 86.5166 29.1703V29.6014C86.5166 29.6014 86.5465 29.6315 86.5763 29.6315H87.6106C87.6106 29.6315 87.6703 29.6215 87.6703 29.6014V29.1703C87.6703 29.1703 87.7002 29.1402 87.73 29.1402H88.7942C88.7942 29.1402 88.8538 29.1301 88.8538 29.1101V28.8293C88.8538 28.8293 88.824 28.7992 88.7942 28.7992H87.73C87.73 28.7992 87.6703 28.7892 87.6703 28.7692V28.6288C87.6703 28.6288 87.7002 28.5987 87.73 28.5987H88.7942C88.7942 28.5987 88.8538 28.5887 88.8538 28.5686V28.2878C88.8538 28.2878 88.824 28.2577 88.7942 28.2577H88.0383C87.9886 28.2577 87.9587 28.2277 87.9886 28.2176L88.9235 27.6461C88.9235 27.6461 88.9235 27.606 88.8737 27.606H87.9289C87.9289 27.606 87.8891 27.606 87.8792 27.616L87.2327 28.0071C87.1631 28.0472 87.004 28.0472 86.9343 28.0071L86.2879 27.616C86.2879 27.616 86.258 27.606 86.2382 27.606H85.2933C85.2436 27.606 85.2138 27.636 85.2436 27.6461L86.1785 28.2176H86.1984Z" fill="#009F42"/>
<path d="M87.1034 52.4242C97.5264 52.4242 106 43.8807 106 33.3718C106 22.8629 97.5264 14.3194 87.1034 14.3194C77.9833 14.3194 70.355 20.8674 68.5947 29.5412C67.6896 26.6232 66.0088 24.3068 62.9953 23.9559C61.782 20.8574 58.6093 20.1053 55.4466 19.9448C51.1103 19.7343 47.3609 21.1181 44.3672 23.5347C44.7153 22.0907 44.9242 20.5966 44.9242 19.0424C44.9242 8.5435 36.4406 0 26.0276 0C15.6146 0 7.13099 8.5435 7.13099 19.0524C7.13099 29.5613 15.6046 38.1048 26.0276 38.1048C30.4335 38.1048 34.4913 36.5605 37.7037 34.0035C37.475 34.7857 37.276 35.5778 37.1269 36.3901C33.9741 38.2452 34.3222 42.8679 36.55 45.8762L35.6052 65.1492L26.2066 69.1502C22.4372 70.7546 20.2194 74.1539 19.9707 78.3053C19.6823 81.9253 19.6823 85.4149 20.0205 89.0649L21.3432 103.334L21.7013 108.017L0.865274 108.037C0.278485 108.037 -0.039774 108.719 0.00995391 109.09C0.0994641 109.682 0.477396 109.972 1.10397 109.972H22.0593C22.656 113.863 25.5602 117.232 29.1207 117.573L34.9289 118.145L44.0987 118.215C44.8048 118.215 45.3419 117.914 45.4414 117.022L57.2368 117.102C60.0514 119.067 63.234 119.549 65.8895 117.443L66.705 119.178C67.4012 120.231 68.8234 120.191 69.7683 119.579C70.6335 119.689 71.2999 119.438 71.9463 118.947C72.9508 119.208 73.9355 118.857 74.5222 118.005C75.9942 117.764 76.8296 116.611 76.8793 115.097C76.939 113.241 76.1533 111.627 75.0096 109.982L95.408 109.942C96.0345 109.942 96.2434 109.14 96.1141 108.689C95.9749 108.198 95.5572 108.007 94.9505 108.007H75.1488C74.9201 107.987 74.9201 107.726 75.0792 107.656C76.2329 106.312 77.0186 104.828 77.5755 103.124C78.7889 99.3633 79.3061 95.5427 79.4652 91.5718L79.7835 83.6701C79.8829 81.1532 79.8829 78.7566 79.4155 76.2998C78.8486 73.8932 77.6949 71.637 75.6063 70.2833L69.0422 66.9541L69.092 46.8889C70.0865 45.2545 70.554 43.3693 70.0666 41.5743C73.11 47.992 79.5945 52.4442 87.1034 52.4442V52.4242ZM66.0188 41.805C66.0685 41.3537 67.2321 41.0529 67.5206 41.3437C68.893 42.6974 67.5206 46.4979 65.3524 47.4906L66.0188 41.805ZM56.6003 66.1419C56.282 66.4728 56.5605 67.275 56.7097 67.626L58.9077 72.9907L65.5116 87.27C63.7412 88.5936 61.6726 89.3557 59.5044 89.5964L55.7947 79.0674L51.548 67.0343C50.7225 64.6879 52.8608 62.7325 55.019 61.5192C56.8092 60.5064 59.5343 58.7415 58.4005 57.468L56.8987 55.7834C56.6301 55.4826 55.9538 55.4826 55.8047 55.9037L55.188 57.6385C55.1284 57.809 54.9493 57.9293 54.8499 57.9093C54.6609 57.8792 54.4322 57.6686 54.5117 57.4079L55.377 54.6804C55.4566 54.4096 55.9439 53.8581 56.2224 54.0386C57.6346 54.9611 58.6789 56.2046 59.7133 57.4781C59.9321 57.7488 60.3299 57.7388 60.5885 57.6185C60.8471 57.4981 61.046 56.9967 60.8172 56.6759C59.8227 55.3121 58.6491 54.1489 57.3363 53.076C57.6545 52.5545 58.2015 52.6047 58.5397 52.9657L61.4538 56.0842C61.772 56.4252 62.2892 56.4452 62.5577 56.1043C63.3235 55.1617 60.5388 53.5473 59.7332 51.9428C60.8371 52.4843 61.3841 53.5172 62.1798 54.3394C62.9754 55.1717 63.8109 56.0441 64.3579 57.087C64.696 57.7288 64.0993 58.3605 63.6816 58.7917L56.6102 66.1218L56.6003 66.1419ZM63.5622 66.6734C62.3091 68.0572 60.6979 68.7691 58.9475 69.3006L57.943 66.7837L59.8525 64.6378L63.5622 66.6734ZM49.7677 66.904L50.7225 70.0627C46.7641 69.8822 42.7063 68.3881 40.2199 65.2896C42.2389 64.1865 44.0987 63.1136 45.8392 61.6295L46.5553 58.2001C49.0118 59.8045 51.5082 60.1454 54.4322 59.7443C53.0497 60.7771 51.7469 61.4891 50.802 62.8228C49.9368 64.0361 49.4097 65.3999 49.7677 66.904ZM63.8904 51.8727C64.0197 50.4086 61.593 51.1306 59.5442 49.6164C59.405 49.5162 59.2657 49.3457 59.2956 49.2454C59.4845 48.6839 63.6418 49.8671 65.5215 50.549C65.4519 52.0532 65.0043 53.4069 64.6264 54.9712C62.9356 53.5372 63.791 53.0559 63.8904 51.8727ZM58.2513 32.9707C59.1066 36.721 60.9366 39.9599 63.7512 42.3665C63.5423 44.4422 63.3832 46.2973 62.8163 48.2828C60.8769 47.8315 58.7585 47.1396 58.0225 48.6538C57.7142 49.3056 57.9927 49.8471 58.4104 50.4888C58.6292 50.8298 57.9032 51.3612 57.565 51.3612C56.7395 51.3612 56.5307 52.0632 56.0235 52.4543C55.4963 52.8654 54.7405 53.0158 54.3427 53.7177C53.6564 54.9311 53.358 56.2347 53.0995 57.6485C49.4295 58.0898 46.2668 55.7834 44.0689 52.8955C40.568 48.6939 40.7073 43.65 41.1648 38.1349C45.7596 37.4731 50.2152 36.35 54.5814 34.6954L58.2314 32.9707H58.2513ZM26.0276 35.4776C17.0467 35.4776 9.73673 28.1073 9.73673 19.0524C9.73673 9.99749 17.0368 2.62722 26.0276 2.62722C35.0184 2.62722 42.3185 9.99749 42.3185 19.0524C42.3185 28.1073 35.0084 35.4776 26.0276 35.4776ZM37.8032 38.6162C38.0518 38.3755 38.4297 38.546 38.5889 38.6764C38.7878 38.8368 38.9071 39.0775 38.9171 39.4184L38.748 44.8935C37.0572 43.4896 36.3312 40.0201 37.8032 38.6162ZM32.8005 105.49C32.8403 106.052 33.1685 106.332 33.6857 106.423L43.4125 107.847C42.766 110.584 42.6467 113.221 43.1837 116.089C38.8276 116.22 34.6703 116.139 30.4633 115.648C26.7536 115.207 25.0131 113.372 24.1578 109.792L23.4517 103.535L21.9698 86.8689C21.6913 83.7603 21.7609 80.7922 22.1289 77.7338C22.4571 75.0464 23.8893 72.8203 26.2265 71.5267L29.8069 69.9022L38.6485 66.0617C41.5526 69.9524 46.426 71.6972 51.3789 71.8275L57.6844 89.5061C57.1374 89.7669 56.8788 90.168 57.018 90.7095C58.301 95.7032 59.8823 100.536 61.8615 105.28L63.1246 107.626L60.7775 108.839L45.4115 107.486C45.4314 106.774 45.1927 106.332 44.586 106.242L34.4117 104.858L31.9253 85.6756C31.8458 85.094 31.5275 84.743 31.0302 84.7631C30.4932 84.7832 30.1351 85.1843 30.2346 85.8862L32.8105 105.49H32.8005ZM75.109 114.485C75.1886 115.127 75.2085 115.889 74.5521 116.23C74.3134 113.492 73.0304 111.166 70.6634 110.083C70.3849 109.952 70.0965 109.932 69.8478 110.053C69.6091 110.163 69.4997 110.474 69.5395 110.775C69.5892 111.106 69.818 111.216 70.1661 111.386C73.2791 112.9 73.6271 117.293 72.7122 117.433C72.5033 117.463 72.2049 117.293 72.195 116.982C72.1154 114.635 70.8921 112.59 68.7836 111.617C68.346 111.416 67.9184 111.557 67.7692 111.958C67.6101 112.379 67.8488 112.73 68.2963 112.931C71.0711 114.194 71.2899 118.105 70.3849 118.125C70.186 118.125 69.9771 117.944 69.9572 117.623C69.7583 114.174 66.3569 112.489 65.9392 113.783C65.8 114.224 66.0287 114.535 66.5359 114.715C67.9681 115.217 68.903 116.942 68.4753 118.506C68.4057 118.747 67.9184 118.446 67.8687 118.195C67.4509 115.989 65.8298 114.736 65.1635 115.498C64.0694 116.741 62.5975 117.293 60.9664 116.831C59.8525 116.52 58.7883 116.139 57.9827 115.187L44.7352 115.066C44.3971 113.001 44.4468 111.126 44.8745 109.15L59.5343 110.424C59.7829 110.865 59.9818 111.256 60.4393 111.406C62.2096 110.023 64.149 108.93 66.4166 108.629C70.3352 108.117 74.6217 110.684 75.0891 114.485H75.109ZM73.0602 71.266C77.0783 72.9506 77.9037 77.4029 77.7347 81.6546L77.2971 92.5746C77.1479 96.345 76.5114 100.015 75.1687 103.485C74.4725 105.29 73.3288 106.754 71.6181 107.596C69.4599 106.734 67.2321 106.453 64.9148 107.044C64.1788 106.262 63.8009 105.38 63.3534 104.407C61.6328 100.216 60.2304 96.0241 58.9674 91.4014C61.9709 91.1005 64.5269 90.2281 66.7548 88.4833L70.1263 95.7834C70.355 96.2748 70.6833 96.4653 71.1805 96.355C71.6679 96.2447 71.9662 95.6831 71.7076 95.1517L69.5992 90.8097L69.8777 85.3347C69.9075 84.8132 69.7484 84.4222 69.271 84.2718C68.9527 84.1715 68.3063 84.2718 68.2565 84.7631L68.0377 86.9391C67.6598 86.2572 67.2918 86.0165 66.5658 86.0767L59.574 70.8849C61.7621 70.2131 63.6915 69.2304 65.1535 67.4455L73.0503 71.256L73.0602 71.266ZM87.1034 16.9566C96.0843 16.9566 103.394 24.3269 103.394 33.3818C103.394 42.4367 96.0843 49.807 87.1034 49.807C78.1226 49.807 70.8125 42.4367 70.8125 33.3818C70.8125 24.3269 78.1226 16.9566 87.1034 16.9566Z" fill="#009F42"/>
</g>
<defs>
<clipPath id="clip0_62_6278">
<rect width="106" height="120" fill="white"/>
</clipPath>
</defs>
</svg>
