<svg width="49" height="44" viewBox="0 0 49 44" fill="none" xmlns="http://www.w3.org/2000/svg">
<g clip-path="url(#clip0_62_6214)">
<path d="M26.6202 43.77C26.1202 43.77 25.7101 43.35 25.7201 42.85C25.7201 41.9 25.7402 41.3 25.7602 40.66C25.7702 40.16 25.7801 39.64 25.8001 38.91V38.05C25.8201 36.14 25.8202 33.98 26.6602 32.18C27.2802 30.84 28.4102 29.69 29.4002 28.68L29.7402 28.33C31.3602 26.66 33.1102 25.11 34.8102 23.61C35.5902 22.92 36.3701 22.23 37.1402 21.53C37.8502 20.88 39.0502 20.3 40.2502 20.64C40.9102 20.83 41.4602 21.34 41.7702 22.03C42.1202 22.82 42.1102 23.73 41.7502 24.45C41.4302 25.1 40.9402 25.68 40.5202 26.19C40.3702 26.37 40.2302 26.54 40.0902 26.71C39.5002 27.47 38.9002 28.21 38.3001 28.96C37.1201 30.42 35.8801 31.9 34.6201 33.37C34.2901 33.75 33.7202 33.79 33.3402 33.47C32.9602 33.14 32.9202 32.57 33.2402 32.19C34.4902 30.74 35.7202 29.27 36.8802 27.83C37.4802 27.09 38.0702 26.35 38.6502 25.6C38.8002 25.41 38.9601 25.22 39.1201 25.03C39.5001 24.58 39.8902 24.11 40.1201 23.65C40.2401 23.42 40.2301 23.06 40.1001 22.78C40.0601 22.69 39.9402 22.46 39.7502 22.41C39.3702 22.3 38.8002 22.5 38.3802 22.89C37.6002 23.6 36.8201 24.3 36.0301 24.99C34.3601 26.47 32.6402 28 31.0602 29.62L30.7101 29.98C29.8201 30.88 28.8202 31.91 28.3302 32.96C27.6602 34.41 27.6502 36.36 27.6502 38.08V38.96C27.6302 39.7 27.6202 40.22 27.6102 40.72C27.5902 41.36 27.5802 41.95 27.5702 42.89C27.5702 43.39 27.1602 43.79 26.6602 43.79L26.6202 43.77Z" fill="#009F42"/>
<path d="M35.5601 43.7697C35.1301 43.7697 34.7501 43.4697 34.6701 43.0297L34.0801 39.9797C33.8201 38.6097 34.3101 37.2397 35.3601 36.3897C36.2501 35.6697 37.4001 34.7497 38.1601 34.1797L38.3601 34.0297C39.8601 32.8897 41.2801 31.8097 42.2601 30.2397C43.3301 28.5197 43.9201 26.3797 44.5001 24.3197C44.6201 23.8697 44.7501 23.4297 44.8701 22.9897C45.7201 20.0797 46.4001 17.4497 46.9701 14.9497C47.1201 14.3097 46.9101 13.8197 46.4001 13.6197C45.7401 13.3497 45.3701 13.4897 45.0301 14.1297C43.7801 16.4697 42.4801 19.1397 41.3701 21.6497C41.1701 22.1097 40.6301 22.3197 40.1701 22.1197C39.7101 21.9197 39.5001 21.3797 39.7001 20.9197C40.8201 18.3797 42.1401 15.6597 43.4201 13.2797C44.1601 11.8897 45.4501 11.3697 46.8901 11.8697C46.9901 11.8797 47.1001 11.9197 47.2001 11.9697C47.2401 11.9897 47.2801 12.0197 47.3101 12.0397C48.5001 12.6397 49.0701 13.9397 48.7501 15.3697C48.1701 17.9097 47.4701 20.5697 46.6201 23.5197C46.5001 23.9497 46.3701 24.3897 46.2501 24.8297C45.6401 27.0197 45.0201 29.2797 43.8101 31.2297C42.6601 33.0897 41.0401 34.3197 39.4701 35.5097L39.2801 35.6597C38.5401 36.2297 37.4001 37.1297 36.5201 37.8397C36.0001 38.2597 35.7501 38.9797 35.8801 39.6697L36.4701 42.7197C36.5701 43.2097 36.2401 43.6897 35.7501 43.7897C35.6901 43.7997 35.6301 43.8097 35.5801 43.8097L35.5601 43.7697Z" fill="#009F42"/>
<path d="M22.2001 43.7697C21.7001 43.7697 21.2901 43.3697 21.2901 42.8697C21.2901 41.9397 21.2701 41.3497 21.2501 40.7097C21.2401 40.2097 21.2301 39.6797 21.2101 38.9297V38.0397C21.1901 36.3197 21.1901 34.3697 20.5201 32.9297C20.0301 31.8697 19.0301 30.8497 18.1401 29.9497L17.7901 29.5897C16.2101 27.9697 14.4901 26.4397 12.8201 24.9597C12.0301 24.2597 11.2501 23.5697 10.4701 22.8597C10.0401 22.4697 9.47008 22.2697 9.10008 22.3797C8.90008 22.4397 8.79008 22.6597 8.75008 22.7497C8.62008 23.0397 8.62008 23.3897 8.73008 23.6197C8.96008 24.0797 9.35008 24.5497 9.73008 24.9997C9.89008 25.1897 10.0501 25.3797 10.1901 25.5697C10.7701 26.3197 11.3601 27.0597 11.9601 27.7997C13.1301 29.2397 14.3501 30.7097 15.6001 32.1597C15.9301 32.5397 15.8901 33.1197 15.5001 33.4397C15.1201 33.7697 14.5401 33.7197 14.2201 33.3397C12.9601 31.8697 11.7201 30.3897 10.5401 28.9297C9.94008 28.1897 9.34008 27.4397 8.75008 26.6797C8.62008 26.5097 8.47008 26.3297 8.32008 26.1597C7.89008 25.6497 7.41008 25.0697 7.08008 24.4197C6.72008 23.6997 6.71008 22.7897 7.06008 21.9997C7.37008 21.3097 7.92008 20.7997 8.58008 20.6097C9.78008 20.2697 10.9701 20.8397 11.6901 21.4997C12.4601 22.1997 13.2401 22.8897 14.0201 23.5797C15.7101 25.0797 17.4601 26.6297 19.0901 28.2997L19.4301 28.6497C20.4201 29.6597 21.5501 30.7997 22.1701 32.1497C23.0001 33.9497 23.0101 36.1097 23.0201 38.0197V38.8897C23.0401 39.6297 23.0501 40.1497 23.0601 40.6497C23.0801 41.2897 23.0901 41.8897 23.1001 42.8297C23.1001 43.3297 22.7001 43.7497 22.2001 43.7497V43.7697Z" fill="#009F42"/>
<path d="M13.2701 43.7698C13.2101 43.7698 13.1501 43.7698 13.1001 43.7498C12.6101 43.6498 12.2801 43.1798 12.3801 42.6798L12.9701 39.6298C13.1001 38.9398 12.8501 38.2198 12.3301 37.7998C11.4501 37.0898 10.3201 36.1898 9.57012 35.6198L9.37012 35.4698C7.80012 34.2798 6.19012 33.0498 5.03012 31.1998C3.82012 29.2498 3.19012 26.9898 2.58012 24.7998C2.46012 24.3598 2.34012 23.9298 2.21012 23.4998C1.36012 20.5498 0.660116 17.8898 0.0801163 15.3498C-0.239884 13.9198 0.330116 12.6198 1.52012 12.0198C1.55012 11.9998 1.59012 11.9698 1.63012 11.9498C1.74012 11.8898 1.85012 11.8498 1.96012 11.8398C3.39012 11.3598 4.66012 11.8798 5.40012 13.2598C6.67012 15.6398 7.99012 18.3498 9.12012 20.8998C9.32012 21.3598 9.12012 21.8998 8.65012 22.0998C8.19012 22.2998 7.65012 22.0998 7.45012 21.6298C6.34012 19.1198 5.04012 16.4498 3.79012 14.1098C3.45012 13.4698 3.08012 13.3298 2.42012 13.5998C1.91012 13.7998 1.71012 14.2898 1.85012 14.9298C2.42012 17.4298 3.11012 20.0598 3.95012 22.9698C4.08012 23.4098 4.20012 23.8498 4.32012 24.2898C4.89012 26.3498 5.48012 28.4898 6.56012 30.2098C7.54012 31.7798 8.95012 32.8598 10.4501 33.9998L10.6501 34.1498C11.4101 34.7198 12.5601 35.6398 13.4501 36.3598C14.5001 37.2098 15.0001 38.5898 14.7301 39.9498L14.1401 42.9998C14.0601 43.4398 13.6701 43.7398 13.2501 43.7398L13.2701 43.7698Z" fill="#009F42"/>
<path d="M32.34 21.0198H16.36C15.86 21.0198 15.45 20.6098 15.45 20.1098V7.99984C15.45 7.49984 15.86 7.08984 16.36 7.08984C16.86 7.08984 17.27 7.49984 17.27 7.99984V19.1998H31.42V7.99984C31.42 7.49984 31.83 7.08984 32.33 7.08984C32.83 7.08984 33.24 7.49984 33.24 7.99984V20.1098C33.24 20.6098 32.83 21.0198 32.33 21.0198H32.34Z" fill="#009F42"/>
<path d="M13.4 11.1099C13.14 11.1099 12.88 10.9999 12.7 10.7899C12.37 10.4099 12.42 9.82994 12.81 9.50994L23.76 0.219941C24.1 -0.0700586 24.6 -0.0700586 24.94 0.219941L35.89 9.50994C36.27 9.83994 36.32 10.4099 35.99 10.7899C35.66 11.1699 35.09 11.2199 34.71 10.8999L24.35 2.10994L13.99 10.8999C13.82 11.0499 13.61 11.1199 13.4 11.1199V11.1099Z" fill="#009F42"/>
</g>
<defs>
<clipPath id="clip0_62_6214">
<rect width="48.83" height="43.77" fill="white"/>
</clipPath>
</defs>
</svg>
