<svg width="114" height="105" viewBox="0 0 114 105" fill="none" xmlns="http://www.w3.org/2000/svg">
<path d="M113.574 70.5676L92.135 51.3096C91.8948 51.0894 91.5845 50.9692 91.2543 50.9692H22.7539C22.4336 50.9692 22.1133 51.0894 21.8731 51.3096L0.43418 70.5676C0.0338269 70.928 -0.106297 71.5085 0.083871 72.009C0.274039 72.5095 0.764471 72.8498 1.30495 72.8498H9.63229V103.689C9.63229 104.409 10.2228 105 10.9434 105H103.055C103.775 105 104.366 104.409 104.366 103.689V72.8498H112.693C113.234 72.8498 113.724 72.5195 113.914 72.009C114.104 71.4985 113.974 70.928 113.564 70.5676H113.574ZM12.2646 72.8598H70.1156V102.388H12.2646V72.8598ZM101.754 102.388H72.7379V72.8598H101.754V102.388Z" fill="#009F42"/>
<path d="M33.2432 80.9673H21.5328C20.8122 80.9673 20.2217 81.5578 20.2217 82.2785V93.9895C20.2217 94.7102 20.8122 95.3007 21.5328 95.3007H33.2432C33.9638 95.3007 34.5543 94.7102 34.5543 93.9895V82.2785C34.5543 81.5578 33.9638 80.9673 33.2432 80.9673ZM31.932 92.6783H22.844V83.5898H31.932V92.6783Z" fill="#009F42"/>
<path d="M57.0041 80.9673H45.2938C44.5732 80.9673 43.9827 81.5578 43.9827 82.2785V93.9895C43.9827 94.7102 44.5732 95.3007 45.2938 95.3007H57.0041C57.7248 95.3007 58.3153 94.7102 58.3153 93.9895V82.2785C58.3153 81.5578 57.7248 80.9673 57.0041 80.9673ZM55.693 92.6783H46.605V83.5898H55.693V92.6783Z" fill="#009F42"/>
<path d="M57.0041 48.7972C63.4198 48.7972 69.4551 46.2949 73.9891 41.7606C78.5231 37.2264 81.0253 31.1907 81.0253 24.7747C81.0253 19.4497 79.3238 14.4049 76.0909 10.191C72.9682 6.10715 68.5443 3.08431 63.6299 1.68299C63.2396 1.57289 62.8292 1.62294 62.4789 1.81311C62.1286 2.0133 61.8684 2.3336 61.7583 2.72397C61.6482 3.11434 61.6982 3.52472 61.8884 3.87505C62.0786 4.22538 62.4089 4.48562 62.7992 4.59573C71.7471 7.15813 77.9926 15.4559 77.9926 24.7747C77.9926 36.3455 68.5743 45.7644 57.0041 45.7644C45.4339 45.7644 36.0156 36.3455 36.0156 24.7747C36.0156 16.7471 40.6597 9.3602 47.876 5.86692L48.4666 7.98891C48.4966 8.08901 48.5667 8.15907 48.6667 8.1891C48.7668 8.21913 48.8669 8.1891 48.937 8.10903L54.4819 2.47373C54.5519 2.40367 54.582 2.29357 54.5519 2.20348C54.5219 2.1134 54.4518 2.03332 54.3518 2.00329L46.705 0.0114221C46.6049 -0.0186061 46.5048 0.0114221 46.4348 0.0914973C46.3647 0.161563 46.3347 0.271666 46.3647 0.361751L47.0653 2.89413C43.2019 4.65578 39.859 7.41838 37.3868 10.9117C34.5143 14.9755 32.9929 19.77 32.9929 24.7647C32.9929 31.1807 35.4951 37.2164 40.0291 41.7506C44.5631 46.2849 50.5984 48.7872 57.0141 48.7872L57.0041 48.7972Z" fill="#009F42"/>
<path d="M53.6311 13.0535C53.2808 12.9034 52.8904 12.9034 52.5401 13.0535C52.1898 13.1937 51.9096 13.4639 51.7594 13.8242C51.6093 14.1746 51.6093 14.5649 51.7594 14.9153L54.9522 22.7927C54.8121 23.0229 54.702 23.2731 54.642 23.5434L42.1009 29.0586C41.3803 29.3789 41.05 30.2196 41.3703 30.9403C41.6005 31.4608 42.1109 31.7911 42.6814 31.7911C42.8816 31.7911 43.0718 31.7511 43.2519 31.671L55.7129 26.1959C56.1133 26.4561 56.5737 26.5862 57.0541 26.5862C58.4153 26.5862 59.5263 25.4752 59.5263 24.1139C59.5263 22.9528 58.7055 21.9419 57.5846 21.6916L54.4017 13.8543C54.2616 13.5039 53.9914 13.2237 53.6311 13.0735V13.0535Z" fill="#009F42"/>
</svg>
