<svg width="90" height="81" viewBox="0 0 90 81" fill="none" xmlns="http://www.w3.org/2000/svg">
<g clip-path="url(#clip0_62_6631)">
<path d="M62.4929 60.6425C64.781 57.9773 67.0295 55.2723 69.2384 52.5276C70.3379 51.1552 71.4374 49.7729 72.5171 48.3905C73.468 47.1673 74.6963 45.9044 75.3996 44.4922C76.2217 42.8314 75.4491 40.3253 73.676 39.8082C72.2497 39.4005 70.6252 40.0867 69.5455 41.0712C65.0188 45.2281 60.2939 49.1563 55.995 53.5916C54.1328 55.5209 51.7951 57.7386 50.6461 60.2347C49.0414 63.7253 49.2792 68.2403 49.2197 72.0193C49.1702 75.122 49.1108 76.206 49.0811 79.3088" stroke="#009F42" stroke-width="3.39" stroke-linecap="round" stroke-linejoin="round"/>
<path d="M74.706 39.3908C76.7465 34.7367 79.1733 29.7345 81.5011 25.3588C82.6501 23.2008 84.3736 22.9323 86.1368 23.6483C87.7811 24.3146 88.6626 25.9753 88.1872 28.0538C87.0382 33.0858 85.7208 38.0781 84.2845 43.0306C82.9374 47.6748 81.828 52.7566 79.2922 56.8637C77.2418 60.1654 74.3098 62.3334 71.3382 64.6008C69.9514 65.6549 67.8515 67.3455 66.2171 68.6582C64.7709 69.8317 64.0875 71.7709 64.454 73.6704L65.5436 79.319" stroke="#009F42" stroke-width="3.39" stroke-linecap="round" stroke-linejoin="round"/>
<path d="M27.507 60.6425C25.2189 57.9773 22.9704 55.2723 20.7615 52.5276C19.662 51.1552 18.5625 49.7729 17.4828 48.3905C16.5319 47.1673 15.3036 45.9044 14.6004 44.4922C13.7782 42.8314 14.5508 40.3253 16.3239 39.8082C17.7503 39.4005 19.3747 40.0867 20.4544 41.0712C24.9812 45.2281 29.706 49.1563 34.0049 53.5916C35.8671 55.5209 38.2048 57.7386 39.3538 60.2347C40.9585 63.7253 40.7208 68.2403 40.7802 72.0193C40.8297 75.122 40.8892 76.206 40.9189 79.3088" stroke="#009F42" stroke-width="3.39" stroke-linecap="round" stroke-linejoin="round"/>
<path d="M15.2938 39.3908C13.2533 34.7367 10.8265 29.7345 8.49877 25.3588C7.34975 23.2008 5.62622 22.9323 3.86307 23.6483C2.21878 24.3146 1.3372 25.9753 1.81266 28.0538C2.96168 33.0858 4.27909 38.0781 5.71537 43.0306C7.06249 47.6748 8.17189 52.7566 10.7077 56.8637C12.7581 60.1654 15.6901 62.3334 18.6617 64.6008C20.0484 65.6549 22.1483 67.3455 23.7827 68.6582C25.2289 69.8317 25.9124 71.7709 25.5459 73.6704L24.4563 79.319" stroke="#009F42" stroke-width="3.39" stroke-linecap="round" stroke-linejoin="round"/>
<path d="M59.6102 14.8174V37.2229H30.1616V14.8174" stroke="#009F42" stroke-width="3.39" stroke-linecap="round" stroke-linejoin="round"/>
<path d="M24.7039 18.875L44.891 1.69043L65.0682 18.875" stroke="#009F42" stroke-width="3.39" stroke-linecap="round" stroke-linejoin="round"/>
</g>
<defs>
<clipPath id="clip0_62_6631">
<rect width="90" height="81" fill="white"/>
</clipPath>
</defs>
</svg>
