<svg width="509" height="96" viewBox="0 0 509 96" fill="none" xmlns="http://www.w3.org/2000/svg">
<g clip-path="url(#clip0_62_8621)">
<path d="M76.4863 84.3136L79.2261 78.1047C81.4986 72.9465 81.3505 70.4186 76.0623 67.7883L73.3339 66.4206L60.8749 75.3649C41.5209 89.2599 27.0332 93.6818 13.4573 93.6818H0L13.0881 63.9977H16.8855C27.2384 63.9977 34.9312 61.1553 45.104 53.9981L47.78 52.104L27.7148 40.7345L42.2867 7.68373L80.1378 29.5793L101.892 14.4192C117.004 3.89315 128.497 0 145.756 0L132.299 30.5252C125.164 30.5252 121.244 32.1048 115.527 36.2077L104.778 43.8914L105.808 44.4202C117.729 50.5243 121.025 61.577 113.366 78.9435L111 84.3136L76.4863 84.3136Z" fill="black"/>
<path d="M244.772 32.3147C234.419 32.3147 228.433 33.8943 223.341 35.7885L197.122 95.2616H163.533L182.235 52.8404L177.161 54.9465C169.835 57.9986 158.138 61.0506 140.883 61.0506H134.669L148.263 30.2086H155.854C165.29 30.2086 168.7 28.7361 177.205 25.3672L223.792 6.84056C233.562 2.94741 240.423 1.47266 251.696 1.47266H268.493L254.897 32.3147H244.772Z" fill="black"/>
<path d="M333.2 94.418C316.405 94.418 314.117 84.2087 315.566 72.8392L319.574 40.5247C320.166 35.7882 318.242 33.3652 313.757 33.3652H310.073C306.394 33.3652 302.451 36.3147 299.643 41.8923L283.304 73.9972H250.174L271.794 31.9976C280.396 15.3674 297.997 2.31348 316.98 2.31348H328.828C351.603 2.31348 356.344 12.9467 355.109 24.6307L351.083 61.1552C350.897 62.63 351.649 63.7879 354.525 63.7879H360.625L347.122 94.418H333.2Z" fill="black"/>
<path d="M485.639 43.8916C465.102 78.7362 436.979 93.4723 395.335 93.4723H363.583L376.672 63.7882H404.398C434.535 63.7882 443.908 55.5756 453.026 41.6806C469.638 16.5233 480.579 6.84058 508.291 4.00049L493.393 37.7875C489.568 38.6309 487.444 40.8418 485.639 43.8916Z" fill="black"/>
<path d="M389.874 34.6303L402.82 5.26074H450.445L437.499 34.6303H389.874Z" fill="black"/>
</g>
<defs>
<clipPath id="clip0_62_8621">
<rect width="508.291" height="95.2614" fill="white"/>
</clipPath>
</defs>
</svg>
