<svg width="140" height="101" viewBox="0 0 140 101" fill="none" xmlns="http://www.w3.org/2000/svg">
<rect width="140" height="101" fill="white"/>
<path d="M19.2893 16.873C19.0801 16.4977 18.7016 16.4672 18.2633 16.6803C16.1615 17.715 13.4521 17.4107 12.0875 15.3209C13.5318 15.0876 14.6474 14.9151 15.7033 14.1543C16.3806 13.4442 16.3508 12.5008 15.9523 11.8718C15.5041 11.1516 14.7769 10.8676 13.8904 11.0299C12.466 11.2835 11.3902 12.2979 10.8423 13.6471C9.55737 13.5862 8.32221 13.15 7.68471 12.0342C9.75659 11.7907 11.7986 10.7864 12.6353 8.96042C12.974 8.23003 12.8445 7.29675 12.4261 6.74896C11.0615 4.9737 6.97748 6.9417 6.12084 10.2792C3.79993 9.60966 2.74406 6.96199 3.6804 4.80124C5.21439 1.30145 8.57124 1.61592 7.98354 0.337734C7.47553 -0.778143 4.15852 1.00726 2.69426 3.69551C1.44914 5.98813 1.9173 8.80825 3.78997 10.5937C4.44739 11.2226 5.28411 11.4052 6.12084 11.7704C6.54916 13.5254 8.07319 14.6717 9.76655 14.8847C10.6132 14.9862 10.6232 15.3311 10.922 15.9803C12.7947 20.0177 20.3152 18.6888 19.2893 16.8831V16.873ZM14.9562 12.6631C14.4183 13.6268 13.3724 13.7891 12.4162 13.708C12.9043 12.8356 13.8904 11.9733 14.9562 12.6631ZM11.4101 7.73296C11.4998 7.89527 11.4599 8.25032 11.3304 8.6358C10.414 9.76182 9.17886 10.5125 7.5851 10.6139C7.88393 8.41263 10.922 6.88083 11.4201 7.73296H11.4101Z" fill="#009F42"/>
<path d="M92.3132 46.1599C99.4752 45.9164 106.846 51.5262 110.95 57.4302L110.99 53.1899C106.458 47.9858 100.641 44.1411 93.7376 43.4919C91.2075 43.2484 88.9564 44.0295 87.0837 45.8048C84.7329 48.0974 83.4679 51.2422 83.5177 54.6709C83.6272 61.5691 85.5497 67.9195 88.3089 74.5031L70.0803 62.4517C70.8573 61.4879 71.3852 60.6257 71.5844 59.5301C71.8733 57.7853 71.4948 56.1419 70.8672 54.4072C73.2479 55.1985 77.2124 57.0244 78.0391 55.9086C78.2284 55.655 78.3479 55.1579 78.2483 54.6912C77.1128 49.3655 75.6186 44.202 73.6862 39.1095L70.9768 33.0635C71.5744 32.8403 71.7936 32.2418 72.192 31.8766C74.5926 29.6347 79.7425 29.3101 83.1093 29.8376L96.9949 32.0389C101.856 33.0331 106.468 34.291 111 35.9952L110.96 33.1345C106.069 31.3998 101.218 29.9289 96.0785 29.1478L83.2786 27.2001C79.2046 26.5813 73.2578 27.1291 70.3592 29.9796C69.8512 30.4869 69.7117 30.6086 68.9547 30.8115L64.8109 31.9071C63.9344 32.1404 63.4662 32.252 62.6195 31.8259C57.8582 29.4217 52.9076 27.6566 47.937 25.7292C45.9847 24.9683 44.1618 24.4408 42.0501 24.3495C38.0259 24.1771 34.0614 24.8263 30.2862 26.1958C28.5729 26.8146 27.258 27.7276 25.7838 28.7319C22.5266 30.9433 20.0064 33.8548 18.5322 37.6386C15.7431 44.8107 14.7271 49.3147 16.3806 57.0346C17.7055 63.2632 22.0883 68.0716 26.9393 72.0381L25.9332 73.1844C25.6643 73.4887 25.6444 73.935 25.7938 74.2597C26.2719 75.3248 29.4793 75.1118 31.3719 75.3958C32.8063 75.9639 33.8721 77.516 35.1671 78.4696L12.6154 94.7005C12.2668 94.9541 12.3465 95.5526 12.456 95.7859C12.5656 96.0294 12.9043 96.2424 13.2629 96.2729L23.6123 97.1047C23.2936 97.9771 22.2277 97.9974 22.3871 99.0423C22.417 99.2654 22.6063 99.7118 22.9947 99.7118L29.5092 99.8234L43.6538 100.199C44.2116 100.209 44.7196 100.868 45.3273 100.118L65.3986 101C65.8568 101 66.2254 100.777 66.335 100.331L69.8612 86.3619L94.9728 84.9619C95.5206 84.9315 95.8294 84.6069 95.8892 84.1808C95.939 83.8359 95.8494 83.491 95.421 83.2374L66.1955 65.708C66.7334 65.1196 67.3311 64.6428 68.0781 64.2878L110.96 92.8542L110.94 89.6486L93.0204 77.6884C89.3349 71.1758 86.9642 64.3284 86.2271 56.994C85.9382 54.1739 86.1075 51.4856 87.781 49.0814C88.8568 47.5395 90.4405 46.2309 92.3132 46.1599ZM25.983 97.9061C26.2719 97.3685 26.8994 97.4598 27.4473 97.5206L30.1069 97.8452L25.983 97.9061ZM44.6698 98.4336C42.5183 97.6221 40.4265 97.2569 38.1255 96.9323C30.8041 95.8265 23.6322 95.3295 15.9424 94.5889L35.5157 80.468C36.1632 79.8593 36.9999 79.8999 37.5876 80.5289L45.8353 87.6603L60.1193 87.0212L49.6603 95.1469L44.6798 98.4539L44.6698 98.4336ZM64.801 99.1031L48.3554 98.3626C53.5949 94.528 58.5056 90.8457 63.3766 86.7879L67.9188 86.5546L64.801 99.1133V99.1031ZM91.9148 83.2881L46.5425 85.8648L34.4399 75.335L41.5222 75.0509C43.6737 75.0814 45.5663 74.5234 47.4988 73.9756L53.814 71.4091L60.9162 71.3178C61.982 71.399 62.8387 70.7193 63.1176 69.6947C63.3068 69.015 63.2471 68.3455 63.1873 67.6253C63.7351 67.1383 64.4324 67.0267 65.1895 67.2398L91.9048 83.2983L91.9148 83.2881ZM67.7494 61.001L64.0141 63.9124C63.0578 62.0154 64.4723 60.3924 63.5857 60.0272C62.5598 59.6112 62.1016 62.3908 62.9084 64.6327L61.2051 65.6167C59.7707 66.4384 60.7269 67.3818 60.5377 68.7006L53.2164 68.7716L47.7279 71.0743C45.1579 71.7134 42.7772 72.1192 40.0579 72.2714L44.5702 63.1313C45.9548 60.3315 46.6919 57.3896 46.9011 54.1536L48.6144 54.1942C49.212 54.2043 49.5308 53.8087 49.5308 53.3116C49.5308 51.9928 47.6581 52.9261 45.6859 51.7798C44.7694 51.2523 43.9228 49.8524 44.4806 48.8075C45.2575 47.3569 47.1003 47.0526 48.5347 47.3569C49.9492 47.6612 51.2341 47.8945 52.4095 48.6959C53.6746 49.5481 52.529 50.7857 53.2263 51.3132C53.4554 51.4856 54.0232 51.5871 54.3121 51.2523C55.0293 50.4408 54.9595 49.2539 54.3818 48.351C53.7144 47.2656 52.7183 46.7989 51.3437 46.2106C54.2423 44.8005 57.2605 43.7354 60.4082 42.8021L65.4385 41.3109L66.8031 48.6249C66.1557 49.6596 66.3748 50.7552 66.8231 51.8407L68.9049 56.8215C69.5623 58.3939 69.0842 59.9866 67.7594 61.0112L67.7494 61.001ZM66.3649 34.6055L69.0145 33.8041L71.7537 39.9008C73.5069 44.4455 74.7819 49.0206 75.9772 53.8797L69.4826 51.4552L66.3748 34.5953L66.3649 34.6055Z" fill="#009F42"/>
<path d="M49.3315 63.1313C49.3614 64.8152 48.7936 66.5093 48.4848 68.2136C48.4051 68.6802 49.5905 68.6599 49.8196 68.1324C50.8057 65.9616 50.5168 62.7661 49.3215 63.1313H49.3315Z" fill="#009F42"/>
<path d="M53.4553 62.4719C53.2063 62.6139 53.7541 64.1457 53.2063 66.3673C53.1166 66.7122 53.3756 67.0673 53.6545 67.0774C55.2284 67.1484 54.6606 61.7821 53.4553 62.4719Z" fill="#009F42"/>
</svg>
