<svg width="109" height="21" viewBox="0 0 109 21" fill="none" xmlns="http://www.w3.org/2000/svg">
<g clip-path="url(#clip0_62_6245)">
<path d="M16.38 18.06L16.97 16.73C17.46 15.63 17.43 15.08 16.29 14.52L15.71 14.23L13.04 16.15C8.89 19.13 5.79 20.07 2.88 20.07H0L2.8 13.71H3.61C5.83 13.71 7.48 13.1 9.65 11.57L10.22 11.16L5.92 8.71999L9.04 1.63999L17.15 6.32999L21.81 3.07999C25.05 0.82999 27.51 -0.0100098 31.21 -0.0100098L28.33 6.52999C26.8 6.52999 25.96 6.86999 24.74 7.74999L22.44 9.39999L22.66 9.50999C25.21 10.82 25.92 13.19 24.28 16.91L23.77 18.06H16.38Z" fill="white"/>
<path d="M52.4301 6.92005C50.2101 6.92005 48.9301 7.26005 47.8401 7.66005L42.2201 20.4H35.0201L39.0301 11.31L37.9401 11.76C36.3701 12.41 33.8601 13.07 30.1701 13.07H28.8401L31.7501 6.46005H33.3801C35.4001 6.46005 36.1301 6.14005 37.9501 5.42005L47.9301 1.45005C50.0201 0.620049 51.4901 0.300049 53.9101 0.300049H57.5101L54.6001 6.91005H52.4301V6.92005Z" fill="white"/>
<path d="M71.3801 20.23C67.7801 20.23 67.2901 18.04 67.6001 15.61L68.4601 8.69001C68.5901 7.68001 68.1701 7.16001 67.2101 7.16001H66.4201C65.6301 7.16001 64.7901 7.79001 64.1901 8.99001L60.6901 15.87H53.5901L58.2201 6.87001C60.0601 3.31001 63.8301 0.51001 67.9001 0.51001H70.4401C75.3201 0.51001 76.3301 2.79001 76.0701 5.29001L75.2101 13.11C75.1701 13.43 75.3301 13.67 75.9501 13.67H77.2601L74.3701 20.23H71.3901H71.3801Z" fill="white"/>
<path d="M104.03 9.4001C99.6299 16.8601 93.6099 20.0201 84.6899 20.0201H77.8899L80.6899 13.6601H86.6299C93.0899 13.6601 95.0899 11.9001 97.0499 8.9201C100.61 3.5301 102.95 1.4601 108.89 0.850098L105.7 8.0901C104.88 8.2701 104.43 8.7401 104.04 9.4001H104.03Z" fill="white"/>
<path d="M83.52 7.41988L86.29 1.12988H96.49L93.72 7.41988H83.52Z" fill="white"/>
</g>
<defs>
<clipPath id="clip0_62_6245">
<rect width="108.89" height="20.41" fill="white"/>
</clipPath>
</defs>
</svg>
