<svg width="77" height="108" viewBox="0 0 77 108" fill="none" xmlns="http://www.w3.org/2000/svg">
<path d="M34.5604 34.1701C34.7738 34.2655 35.0109 34.3131 35.248 34.3131C35.5563 34.3131 35.8764 34.2297 36.1372 34.0629C36.4692 33.8603 36.5641 33.4314 36.3625 33.1096C36.161 32.776 35.7341 32.6807 35.414 32.8832C35.3429 32.9309 35.2125 32.9428 35.1058 32.8952C35.0465 32.8713 34.9872 32.8237 34.9516 32.6807C34.9161 32.4662 34.9279 31.3819 34.9279 30.7265C34.9279 30.3095 34.9279 29.9282 34.9279 29.6779C34.9279 29.2966 34.6078 28.9868 34.2284 28.9868C33.849 28.9868 33.5408 29.3085 33.5408 29.6898C33.5408 29.9401 33.5408 30.3095 33.5408 30.7027C33.5408 32.0134 33.5408 32.6688 33.6001 32.9547C33.7186 33.5148 34.0624 33.9437 34.5604 34.1582V34.1701Z" fill="#303030"/>
<path d="M27.6601 25.3408C26.9962 25.4838 26.4152 26.3536 26.5338 27.712C26.6879 29.5351 27.3993 30.262 28.3833 30.1786C29.1777 30.1071 29.7349 29.2491 29.4741 27.4499C29.2014 25.5791 28.0988 25.2455 27.672 25.3408H27.6601Z" fill="#303030"/>
<path d="M24.8976 25.6147C25.0043 25.6862 25.1347 25.71 25.2532 25.71C25.4904 25.71 25.7156 25.5909 25.846 25.3645C26.4863 24.2921 27.8971 24.1253 28.4425 24.3397C28.7982 24.4827 29.2013 24.304 29.3436 23.9465C29.4858 23.589 29.308 23.1839 28.9523 23.0409C27.8379 22.6 25.6682 22.9218 24.6486 24.6376C24.447 24.9713 24.5537 25.4002 24.8857 25.5909L24.8976 25.6147Z" fill="#303030"/>
<path d="M41.2589 28.1051C42.2311 27.9502 42.7528 27.0803 42.4682 25.2691C42.2548 23.9107 41.496 23.2077 40.8084 23.2315C40.3697 23.2435 39.3856 23.8273 39.5635 25.71C39.7295 27.5093 40.4645 28.2242 41.2589 28.0931V28.1051Z" fill="#303030"/>
<path d="M14.7963 78.7947C14.1087 78.7589 13.5277 79.2951 13.4922 79.9862L12.0813 108H14.5829L15.9819 80.1173C16.0175 79.4262 15.484 78.8423 14.7963 78.8066V78.7947Z" fill="#303030"/>
<path d="M2.78617 101.53C2.78617 101.53 2.78617 101.506 2.78617 101.494C3.10628 77.6984 10.1251 67.1053 10.1962 66.9981C10.1962 66.9862 10.2199 66.9624 10.2318 66.9504C12.7215 62.9348 15.8871 60.0155 19.0289 57.9183C19.5506 57.5728 20.0723 57.2391 20.5939 56.9413C24.8858 54.4032 28.9169 53.3308 30.8257 52.9257C31.2169 53.8551 32.0113 55.0824 33.5763 55.9999C33.517 56.1548 33.4577 56.3097 33.4103 56.4646C32.2247 60.5636 33.1257 64.1264 35.9593 66.4976C36.6944 67.1053 38.4254 68.4756 39.8955 69.0238C40.0971 69.4051 40.4291 70.1081 40.7373 70.7992C40.4291 70.9779 40.1445 71.1448 39.8955 71.2997C39.3383 71.6333 39.1368 72.3363 39.4213 72.9202C42.8833 80.0458 46.9499 88.2199 50.7912 94.8451C54.4666 101.184 59.6833 103.71 63.7736 104.092L63.7973 107.988H66.2871L66.2634 104.044C69.2037 103.663 71.8594 102.185 73.7682 99.8616C75.9734 97.1567 77.0998 93.4271 76.9931 89.0541C76.9931 89.0302 76.9931 88.9945 76.9931 88.9706C75.4992 71.8359 71.3496 66.5572 70.496 65.6278C66.3819 59.0622 60.4539 55.2254 55.5811 53.0448C55.6048 52.9614 55.6285 52.8661 55.6285 52.7708C55.7115 51.2575 56.0553 41.2245 56.1739 33.5031C56.4821 33.1694 56.7074 32.8239 56.8852 32.4783C58.5569 29.3922 58.7941 26.1392 57.5373 23.5535C57.1579 22.767 56.5058 21.9925 55.8538 21.5516C55.6641 21.4206 55.4625 21.3133 55.2491 21.2299C55.4151 17.2739 52.0124 10.3747 49.5582 7.33622C45.7169 2.60569 40.5121 0.210639 33.6474 0.00807221C22.8703 -0.301736 16.1953 8.36097 14.5592 16.5471C13.7886 20.3958 14.2035 25.5792 15.0927 28.0576C14.7845 28.2602 14.4999 28.5104 14.2747 28.8202C13.8004 29.4637 13.4566 30.4169 13.3617 31.2868C13.0535 34.1465 14.3695 37.1255 16.9778 39.4609C17.2387 39.6992 17.5232 39.9256 17.867 40.1163C17.867 41.4985 17.867 43.0356 17.867 44.6323C17.867 48.362 17.8552 52.5205 18.033 55.5948C14.5118 57.8826 10.9194 61.0879 8.12138 65.604C7.62343 66.3547 0.616514 77.1741 0.284545 101.446L0 108H2.48977L2.76245 101.542L2.78617 101.53ZM32.9361 51.4005L32.9123 50.197C34.3825 50.5664 35.8171 50.757 37.2161 50.757C37.6548 50.757 38.0816 50.7332 38.5202 50.6974C38.6507 51.2098 38.7811 51.6864 38.8996 52.1035C38.8996 52.1154 38.8996 52.1273 38.8996 52.1392C38.0816 52.1869 37.1568 52.3775 36.3032 52.8184C35.7815 53.0925 35.3073 53.438 34.9042 53.867C33.2562 52.9495 32.9835 51.6269 32.9479 51.3885L32.9361 51.4005ZM40.9863 66.7479C40.1919 66.5572 38.6507 65.4848 37.5599 64.5792C34.9634 62.4106 35.1768 59.3482 35.8052 57.1796C35.8289 57.0962 35.8645 57.0127 35.8882 56.9293C36.0542 56.4646 36.2795 56.0714 36.5521 55.7497C36.5521 55.7378 36.5759 55.7259 36.5877 55.7139C36.8248 55.4399 37.1094 55.2254 37.4413 55.0467C37.7022 54.9156 37.9749 54.8203 38.2476 54.7488C39.0893 54.5462 39.8955 54.6415 40.1564 54.7369C40.1801 54.7369 40.2038 54.7369 40.2157 54.7488C40.2631 54.7607 40.3105 54.7726 40.3461 54.7845C40.3816 54.7845 40.4172 54.7845 40.4646 54.7845C40.5121 54.7845 40.5476 54.7845 40.595 54.7845C40.6425 54.7845 40.678 54.7845 40.7255 54.7726C40.7492 54.7726 40.7729 54.7726 40.7966 54.7726C40.8085 54.7726 40.8203 54.7726 40.8322 54.7607C40.8796 54.7607 40.9152 54.7369 40.9507 54.7249C40.9863 54.713 41.0219 54.7011 41.0693 54.6773C41.093 54.6773 41.1167 54.6534 41.1286 54.6415C41.1404 54.6415 41.1523 54.6296 41.1641 54.6177C41.1997 54.5939 41.2353 54.57 41.2708 54.5462C41.3064 54.5224 41.3301 54.4985 41.3538 54.4747C41.3894 54.4509 41.4131 54.4151 41.4487 54.3913C41.4724 54.3675 41.4961 54.3317 41.5198 54.296C41.5435 54.2602 41.5672 54.2364 41.591 54.2006C41.6147 54.1649 41.6265 54.1292 41.6384 54.1053C41.6621 54.0696 41.6739 54.0219 41.6977 53.9862C41.6977 53.9742 41.7095 53.9623 41.7095 53.9504C41.7095 53.9266 41.7095 53.9028 41.7214 53.8789C41.7332 53.8313 41.7451 53.7955 41.7569 53.7478C41.7569 53.7121 41.7569 53.6644 41.7569 53.6287C41.7569 53.5929 41.7569 53.5453 41.7569 53.5095C41.7569 53.4619 41.7569 53.4142 41.7451 53.3785C41.7451 53.3546 41.7451 53.3308 41.7451 53.307C41.6621 52.9018 41.4842 52.2703 41.2708 51.46C41.176 51.1026 41.0693 50.6974 40.9626 50.2923C40.8203 49.768 40.678 49.208 40.5358 48.636C40.5239 48.5764 40.5121 48.5288 40.5002 48.4692C40.4528 48.2666 40.4053 48.0522 40.3579 47.8496C40.1564 47.0036 39.9785 46.1337 39.8244 45.2877C39.777 45.0494 39.8007 44.9064 39.8244 44.8468C39.8244 44.8468 39.8481 44.8349 39.8837 44.823C40.0615 44.7634 40.3935 45.0971 40.7729 46.1933C40.9389 46.658 41.093 47.1227 41.259 47.5874C41.342 47.8377 41.4368 48.0879 41.5198 48.35C41.7095 48.8862 41.8874 49.4344 42.077 49.9706C42.5394 51.329 43.0018 52.6635 43.4286 53.9623C43.5591 54.3436 43.6776 54.713 43.808 55.0824C43.8317 55.1658 43.8673 55.2492 43.891 55.3326C44.0096 55.6782 44.1281 56.0237 44.2348 56.3693C45.7761 60.9688 46.9143 64.4481 46.9262 64.5077C46.938 64.5435 46.9499 64.5792 46.9736 64.615L47.9221 66.7955C46.3926 67.6415 44.5431 68.6544 42.9188 69.5719C41.7806 67.0458 41.5554 66.8909 40.9744 66.7598L40.9863 66.7479ZM44.389 48.9816C44.8039 48.7671 45.2308 48.5288 45.6457 48.2785V51.472C45.622 51.5792 45.5627 51.7818 45.4323 52.0439C45.0885 51.043 44.7447 50.0182 44.389 48.9816ZM68.4567 67.0815C68.516 67.1768 68.5753 67.2602 68.6701 67.3317C70.1521 68.7735 73.294 75.1842 74.5151 89.1494C74.693 97.6333 69.8794 101.16 65.7061 101.589C62.1849 101.959 56.7311 100.076 52.9609 93.5701C49.3448 87.3382 45.5153 79.6764 42.1838 72.8487C44.0926 71.7405 46.9854 70.1438 49.2025 68.9284C49.6531 68.6782 50.0799 68.4399 50.4593 68.2373C51.8227 70.12 53.3521 72.1695 54.8341 74.1713C58.1183 78.604 61.5209 83.2034 63.5009 86.23C63.8803 86.8139 64.6509 86.9688 65.2319 86.5875C65.8128 86.2062 65.9669 85.4317 65.5876 84.8478C65.0303 83.9899 64.3664 83.0247 63.6313 81.9761C63.6313 81.9046 63.6432 81.8212 63.6313 81.7378L63.2756 75.7442C63.2401 75.0531 62.6473 74.5288 61.9596 74.5646C61.272 74.6003 60.7503 75.1961 60.7859 75.8872L60.9281 78.2108C59.6121 76.4115 58.2131 74.5169 56.8378 72.6581C55.1187 70.3464 53.3521 67.9514 51.8346 65.8542C51.467 65.3418 50.7675 65.1869 50.2221 65.4967C50.1984 65.5086 50.1629 65.5206 50.1391 65.5444L49.3092 63.626C49.1432 63.1255 47.9576 59.4912 46.4164 54.8798C47.0684 54.2364 47.4834 53.5691 47.7324 53.021C51.1351 53.8074 62.2916 57.0604 68.4804 67.0577L68.4567 67.0815ZM17.784 36.7322C16.3495 35.1236 15.65 33.2886 15.8397 31.5608C15.8871 31.1319 16.0768 30.5957 16.2902 30.2978C16.3258 30.2501 16.4443 30.0833 16.8119 30.0595C17.2742 30.0356 17.8315 30.2501 18.1634 30.6076C18.6377 31.108 19.432 31.1199 19.93 30.6433C20.2264 30.3573 20.3449 29.976 20.2975 29.5947C21.0445 28.4866 21.5068 27.1044 22.0166 25.5077C23.0955 22.1832 24.4353 18.0961 29.237 14.7478C31.8927 16.8807 35.3073 19.2043 39.3502 21.0869C39.0656 21.1823 38.8285 21.3133 38.6269 21.4563C38.3187 21.6827 38.2594 22.1236 38.4847 22.4334C38.7099 22.7432 39.1486 22.8028 39.4569 22.5764C39.9311 22.2189 41.342 22.0044 42.2312 22.8743C42.3616 23.0054 42.5394 23.0649 42.7173 23.0649C42.8951 23.0649 43.0848 22.9934 43.2152 22.8505C43.2626 22.8028 43.2982 22.7432 43.3219 22.6956C45.5746 23.482 47.9695 24.0897 50.4948 24.4591C50.6134 24.757 50.8387 25.0191 51.1469 25.1621C51.7753 25.4481 52.5104 25.1621 52.7949 24.5306C52.9965 24.0897 53.4351 23.6846 53.8857 23.5535C54.2295 23.4582 54.3955 23.5654 54.4547 23.6011C54.7511 23.8037 55.1187 24.2446 55.3084 24.6378C56.1739 26.4252 55.996 28.7487 54.8104 31.0485C54.7749 31.1199 54.7393 31.1914 54.7037 31.2629C54.4547 31.7396 54.2888 31.9064 53.9212 32.0851C53.8738 32.109 53.8264 32.1328 53.7789 32.1447C53.7789 32.1209 53.7789 32.097 53.7789 32.0732V31.9898C53.7789 31.9898 53.7671 31.9421 53.7671 31.9064C53.696 31.251 53.1387 30.7506 52.4866 30.7863C51.799 30.8101 51.2655 31.394 51.2892 32.0851V32.1924C51.4077 34.8019 51.0995 41.2959 45.5627 45.2996C44.8988 45.7762 44.2348 46.1933 43.5472 46.5508C43.4049 46.1337 43.2508 45.7048 43.1085 45.2877C41.9822 42.0586 40.1564 42.0705 39.1723 42.3564C37.7852 42.7735 37.0857 44.0246 37.3702 45.6452C37.5125 46.4793 37.6903 47.3253 37.88 48.1594C36.1253 48.2547 34.3114 48.0164 32.4262 47.4206C30.7071 46.8844 26.3322 44.9064 22.9414 38.2932C22.645 37.7212 21.9692 37.471 21.3883 37.7093C21.3527 37.7212 21.3053 37.7332 21.2697 37.757C21.2341 37.7808 21.1986 37.8047 21.163 37.8285C20.9733 37.8285 20.7718 37.8881 20.5939 37.9834C20.5465 38.0072 20.4398 38.0311 20.3094 38.043C20.1908 38.0668 20.0367 38.0787 19.8826 38.0668C19.7996 38.0668 19.7166 38.0668 19.6336 38.0549C19.2305 38.0072 19.0171 37.9 18.6258 37.5425C18.3176 37.2684 18.033 36.9825 17.7722 36.6846L17.784 36.7322Z" fill="#303030"/>
<path d="M35.4376 39.1392C35.2124 39.7946 35.3428 41.153 36.066 41.9037C36.398 42.2492 36.8248 42.4279 37.299 42.4279C37.5124 42.4279 37.7377 42.3922 37.9748 42.3207C38.4846 42.1539 38.8403 41.7845 39.0063 41.2364C39.279 40.3189 38.9351 39.0439 38.5795 38.603C38.1171 38.0191 37.4887 37.7332 36.8603 37.8523C36.2201 37.9596 35.6866 38.46 35.4495 39.1511L35.4376 39.1392ZM36.5165 39.5205C36.6114 39.2226 36.8248 39.0201 37.0382 38.9843C37.0619 38.9843 37.0856 38.9843 37.1093 38.9843C37.3583 38.9843 37.5717 39.1988 37.6666 39.3299C37.797 39.5086 38.0697 40.3904 37.8918 40.9266C37.8207 41.1411 37.714 41.2006 37.6191 41.2364C37.1923 41.3674 37.0026 41.2364 36.8722 41.1172C36.4691 40.7002 36.4098 39.7827 36.5047 39.5324L36.5165 39.5205Z" fill="#303030"/>
</svg>
