<svg width="121" height="63" viewBox="0 0 121 63" fill="none" xmlns="http://www.w3.org/2000/svg">
<g clip-path="url(#clip0_62_6608)">
<path d="M47.731 44.9219H73.4092" stroke="#009F42" stroke-width="3.05" stroke-linecap="round" stroke-linejoin="round"/>
<path d="M64.8765 36.3975L73.4092 44.9215L64.8765 53.4456" stroke="#009F42" stroke-width="3.05" stroke-linecap="round" stroke-linejoin="round"/>
<path d="M102.302 35.7769C106.529 37.4877 112.097 38.138 114.17 40.6792C117.905 45.2414 119.418 60.4286 119.468 61.4691H78.0562C78.1062 60.4186 79.6185 45.2414 83.354 40.6792C85.4271 38.148 90.9954 37.4977 95.2217 35.7769L95.2017 32.8355C95.2017 32.1752 94.9313 31.5449 94.4606 31.0746C94.2402 30.8545 93.9999 30.5944 93.7395 30.2743C93.3489 29.784 92.9183 29.1737 92.5677 28.4334C91.4661 28.1933 90.4245 26.7526 90.7751 25.542C90.8952 25.1218 91.1857 24.9717 91.4661 24.9317C90.9754 22.1804 89.7836 18.8888 91.2758 16.3276C91.9268 15.2071 92.9082 14.3367 94.0299 13.6964C94.6408 13.3462 95.442 13.2161 96.133 13.0461C96.9142 12.856 97.7054 12.7059 98.4966 12.5858C99.4179 12.4458 100.359 12.3457 101.291 12.4458C102.192 12.5358 102.883 12.6158 103.594 13.2562C104.245 13.8264 104.686 14.6368 104.766 15.5072C105.517 15.5773 106.268 15.9474 106.719 16.5577C108.682 19.279 106.709 22.8207 106.258 24.9517C106.478 25.2819 106.749 25.3319 106.809 25.8121C106.859 26.1923 106.779 26.5825 106.629 26.9327C106.338 27.623 105.717 28.2733 104.966 28.4334C104.606 29.1737 104.185 29.784 103.794 30.2743C103.544 30.5844 103.294 30.8545 103.063 31.0746C102.593 31.5349 102.322 32.1752 102.322 32.8355V35.7869L102.302 35.7769Z" stroke="#009F42" stroke-width="3.05" stroke-linecap="round" stroke-linejoin="round"/>
<path d="M42.9438 61.4193H1.53223C1.5823 60.3688 3.09455 45.1916 6.83011 40.6294C8.90319 38.0982 14.4715 37.4479 18.6978 35.7271V32.8057C18.6978 32.1454 18.4274 31.5151 17.9667 31.0549C17.7463 30.8348 17.486 30.5647 17.2456 30.2545C16.855 29.7743 16.4344 29.154 16.0739 28.4236C14.9722 28.1935 13.9407 26.7428 14.2912 25.5423C14.3813 25.2321 14.5616 25.072 14.7619 24.992C14.131 23.6213 13.7404 22.3007 13.6503 21.9806C13.1195 20.0697 13.2797 18.0187 14.2812 16.2879C14.6117 15.7076 15.1024 14.9472 15.6933 14.527C15.7634 14.477 15.8435 14.427 15.9236 14.387C16.5546 14.0568 17.3758 14.0768 18.0568 13.9067C18.207 13.8667 20.3402 12.1259 21.8625 11.9558C23.4348 11.7757 25.0272 12.2259 26.4393 12.9263C27.4808 13.4465 28.4523 14.1368 29.1433 15.0773C30.5754 17.0282 30.6155 19.8295 30.3651 22.1306C30.255 23.1611 29.9545 24.0516 29.4938 24.942C29.7742 24.992 30.0647 25.1321 30.1848 25.5523C30.5354 26.7528 29.5038 28.1935 28.4022 28.4336C28.0517 29.164 27.621 29.7843 27.2305 30.2645C26.9701 30.5847 26.7197 30.8548 26.5094 31.0649C26.0387 31.5351 25.7683 32.1554 25.7683 32.8157V35.7271C29.9946 37.4379 35.5629 38.0882 37.6359 40.6294C41.3715 45.1916 42.8837 60.3788 42.9338 61.4193H42.9438Z" stroke="#009F42" stroke-width="3.05" stroke-linecap="round" stroke-linejoin="round"/>
<path d="M52.2075 14.8176L57.5955 21.1006L68.9424 10.4355" stroke="#009F42" stroke-width="3.05" stroke-linecap="round" stroke-linejoin="round"/>
<path d="M66.0211 28.9166C73.2926 25.9076 76.7457 17.5795 73.7337 10.3153C70.7218 3.05107 62.3853 -0.398532 55.1137 2.61041C47.8421 5.61936 44.389 13.9474 47.401 21.2117C50.413 28.4759 58.7495 31.9255 66.0211 28.9166Z" stroke="#009F42" stroke-width="3.05" stroke-linecap="round" stroke-linejoin="round"/>
</g>
<defs>
<clipPath id="clip0_62_6608">
<rect width="121" height="63" fill="white"/>
</clipPath>
</defs>
</svg>
