<svg width="59" height="34" viewBox="0 0 59 34" fill="none" xmlns="http://www.w3.org/2000/svg">
<g clip-path="url(#clip0_62_6191)">
<path d="M34.7699 24.9501H23.9899C23.5399 24.9501 23.1699 24.5801 23.1699 24.1301C23.1699 23.6801 23.5399 23.3101 23.9899 23.3101H34.7699C35.2199 23.3101 35.5899 23.6801 35.5899 24.1301C35.5899 24.5801 35.2199 24.9501 34.7699 24.9501Z" fill="#009F42"/>
<path d="M30.1899 29.53C29.9799 29.53 29.7699 29.45 29.6099 29.29C29.2899 28.97 29.2899 28.45 29.6099 28.13L33.6099 24.13L29.6099 20.13C29.2899 19.81 29.2899 19.29 29.6099 18.97C29.9299 18.65 30.4499 18.65 30.7699 18.97L35.3499 23.55C35.4999 23.7 35.5899 23.91 35.5899 24.13C35.5899 24.35 35.4999 24.56 35.3499 24.71L30.7699 29.29C30.6099 29.45 30.3999 29.53 30.1899 29.53Z" fill="#009F42"/>
<path d="M21.0201 33.8098H0.750106C0.550106 33.8098 0.350106 33.7198 0.210106 33.5598C0.0701061 33.3998 -0.00989387 33.1798 0.000106128 32.9598C0.000106128 32.8798 0.680106 24.0998 2.76011 21.3098C3.58011 20.2098 5.12011 19.7198 6.74011 19.1998C7.30011 19.0198 7.87011 18.8398 8.40011 18.6298V17.6298C8.40011 17.4898 8.35011 17.3698 8.26011 17.2698C8.13011 17.1298 7.99011 16.9598 7.85011 16.7698C7.65011 16.4998 7.48011 16.2198 7.33011 15.9298C7.00011 15.7498 6.70011 15.4498 6.49011 15.0698C6.22011 14.5698 6.14011 13.9998 6.27011 13.4998C6.29011 13.4198 6.32011 13.3498 6.35011 13.2798C6.14011 12.6898 6.00011 12.1998 5.96011 12.0298C5.63011 10.7498 5.77011 9.43982 6.34011 8.33982C6.63011 7.77982 6.93011 7.37982 7.25011 7.13982C7.31011 7.08982 7.38011 7.04982 7.44011 7.00982C7.75011 6.82982 8.08011 6.77982 8.35011 6.73982C8.42011 6.72982 8.48011 6.71982 8.55011 6.70982L8.58011 6.68982C9.21011 6.20982 9.94011 5.69982 10.6201 5.61982C11.4601 5.50982 12.3601 5.71982 13.2801 6.21982C13.9701 6.59982 14.5001 7.06982 14.8701 7.61982C15.5601 8.63982 15.8001 10.0698 15.6101 11.9898C15.5701 12.3998 15.4901 12.7798 15.3501 13.1698C15.4101 13.2698 15.4501 13.3898 15.4901 13.5098C15.6201 14.0198 15.5501 14.5798 15.2701 15.0798C15.0601 15.4598 14.7601 15.7598 14.4301 15.9398C14.2801 16.2298 14.1101 16.5098 13.9101 16.7798C13.7601 16.9798 13.6201 17.1498 13.5001 17.2798C13.4101 17.3798 13.3601 17.5098 13.3601 17.6398V18.6398C13.8901 18.8498 14.4701 19.0298 15.0201 19.2098C16.6401 19.7298 18.1701 20.2198 19.0001 21.3198C21.0801 24.1098 21.7601 32.8898 21.7601 32.9698C21.7601 33.1898 21.6901 33.4098 21.5501 33.5698C21.4101 33.7298 21.2101 33.8198 21.0101 33.8198L21.0201 33.8098ZM1.57011 32.1698H20.2001C19.9701 29.9198 19.2001 24.1598 17.8501 22.3398C17.3201 21.6298 15.9401 21.1898 14.6101 20.7698C13.8501 20.5298 13.0601 20.2798 12.3301 19.9498C12.0501 19.8198 11.8601 19.5198 11.8601 19.1898V17.6298C11.8601 17.0498 12.0701 16.5098 12.4401 16.0998C12.5301 15.9998 12.6301 15.8798 12.7401 15.7398C12.9301 15.4798 13.0901 15.1998 13.2201 14.9098C13.3201 14.6798 13.5101 14.5198 13.7401 14.4698C13.7801 14.4698 13.8901 14.3898 13.9801 14.2298C14.0001 14.1798 14.0201 14.1398 14.0301 14.0998C13.9101 14.0198 13.8201 13.9098 13.7601 13.7698C13.6501 13.5398 13.6501 13.2598 13.7601 13.0198C13.9601 12.5898 14.0701 12.2198 14.1101 11.7998C14.2501 10.3298 14.1001 9.24982 13.6501 8.57982C13.4201 8.23982 13.0601 7.92982 12.5901 7.66982C11.9401 7.30982 11.3101 7.15982 10.7701 7.22982C10.3701 7.27982 9.65011 7.82982 9.42011 8.01982C9.25011 8.14982 9.16011 8.21982 9.01011 8.25982C8.86011 8.29982 8.70011 8.32982 8.54011 8.34982C8.38011 8.36982 8.21011 8.39982 8.13011 8.44982C8.03011 8.52982 7.86011 8.69982 7.63011 9.14982C7.26011 9.85982 7.17011 10.7298 7.39011 11.5798C7.42011 11.7098 7.60011 12.3898 7.89011 13.0798C7.98011 13.2798 7.98011 13.5198 7.91011 13.7198C7.87011 13.8398 7.79011 13.9498 7.70011 14.0398C7.70011 14.0898 7.73011 14.1498 7.77011 14.2198C7.86011 14.3798 7.97011 14.4498 8.01011 14.4598C8.24011 14.5098 8.43011 14.6798 8.53011 14.9098C8.66011 15.1998 8.82011 15.4698 9.01011 15.7398C9.11011 15.8798 9.21011 15.9998 9.31011 16.0998C9.68011 16.4998 9.89011 17.0598 9.89011 17.6298V19.1998C9.89011 19.5298 9.71011 19.8298 9.42011 19.9598C8.69011 20.2798 7.91011 20.5298 7.14011 20.7798C5.81011 21.1998 4.43011 21.6398 3.90011 22.3498C2.54011 24.1698 1.78011 29.9198 1.55011 32.1798L1.57011 32.1698Z" fill="#009F42"/>
<path d="M58.0201 33.8098H37.7501C37.5501 33.8098 37.3501 33.7198 37.2101 33.5598C37.0701 33.3998 36.9901 33.1798 37.0001 32.9598C37.0001 32.8798 37.6801 24.0998 39.7601 21.3098C40.5801 20.2098 42.1201 19.7198 43.7401 19.1998C44.3001 19.0198 44.8701 18.8398 45.4001 18.6298V17.6298C45.4001 17.4898 45.3501 17.3698 45.2601 17.2698C45.1301 17.1298 44.9901 16.9598 44.8501 16.7698C44.6501 16.4998 44.4801 16.2198 44.3301 15.9298C44.0001 15.7498 43.7001 15.4498 43.4901 15.0698C43.2201 14.5698 43.1401 13.9998 43.2701 13.4998C43.2901 13.4198 43.3201 13.3498 43.3501 13.2798C43.1401 12.6898 43.0001 12.1998 42.9601 12.0298C42.6301 10.7498 42.7701 9.43982 43.3401 8.33982C43.6301 7.77982 43.9301 7.37982 44.2501 7.13982C44.3101 7.08982 44.3801 7.04982 44.4401 7.00982C44.7501 6.82982 45.0801 6.77982 45.3501 6.73982C45.4201 6.72982 45.4801 6.71982 45.5501 6.70982L45.5801 6.68982C46.2101 6.20982 46.9401 5.69982 47.6201 5.61982C48.4601 5.50982 49.3601 5.71982 50.2801 6.21982C50.9701 6.59982 51.5001 7.06982 51.8701 7.61982C52.5601 8.63982 52.8001 10.0698 52.6101 11.9898C52.5701 12.3998 52.4901 12.7798 52.3501 13.1698C52.4101 13.2698 52.4501 13.3898 52.4901 13.5098C52.6201 14.0198 52.5501 14.5798 52.2701 15.0798C52.0601 15.4598 51.7601 15.7598 51.4301 15.9398C51.2801 16.2298 51.1101 16.5098 50.9101 16.7798C50.7601 16.9798 50.6201 17.1498 50.5001 17.2798C50.4101 17.3798 50.3601 17.5098 50.3601 17.6398V18.6398C50.8901 18.8498 51.4701 19.0298 52.0201 19.2098C53.6401 19.7298 55.1701 20.2198 56.0001 21.3198C58.0801 24.1098 58.7601 32.8898 58.7601 32.9698C58.7601 33.1898 58.6901 33.4098 58.5501 33.5698C58.4101 33.7298 58.2101 33.8198 58.0101 33.8198L58.0201 33.8098ZM38.5701 32.1698H57.2001C56.9701 29.9198 56.2001 24.1598 54.8501 22.3398C54.3201 21.6298 52.9401 21.1898 51.6101 20.7698C50.8501 20.5298 50.0601 20.2798 49.3301 19.9498C49.0501 19.8198 48.8601 19.5198 48.8601 19.1898V17.6298C48.8601 17.0498 49.0701 16.5098 49.4401 16.0998C49.5301 15.9998 49.6301 15.8798 49.7401 15.7398C49.9301 15.4798 50.0901 15.1998 50.2201 14.9098C50.3201 14.6798 50.5101 14.5198 50.7401 14.4698C50.7801 14.4698 50.8901 14.3898 50.9801 14.2298C51.0001 14.1798 51.0201 14.1398 51.0301 14.0998C50.9101 14.0198 50.8201 13.9098 50.7601 13.7698C50.6501 13.5398 50.6501 13.2598 50.7601 13.0198C50.9601 12.5898 51.0701 12.2198 51.1101 11.7998C51.2501 10.3298 51.1001 9.24982 50.6501 8.57982C50.4201 8.23982 50.0601 7.92982 49.5901 7.66982C48.9401 7.30982 48.3101 7.15982 47.7701 7.22982C47.3701 7.27982 46.6501 7.82982 46.4201 8.01982C46.2501 8.14982 46.1601 8.21982 46.0101 8.25982C45.8601 8.29982 45.7001 8.32982 45.5401 8.34982C45.3801 8.36982 45.2101 8.39982 45.1301 8.44982C45.0301 8.52982 44.8601 8.69982 44.6301 9.14982C44.2601 9.85982 44.1701 10.7298 44.3901 11.5798C44.4201 11.7098 44.6001 12.3898 44.8901 13.0798C44.9801 13.2798 44.9801 13.5198 44.9101 13.7198C44.8701 13.8398 44.7901 13.9498 44.7001 14.0398C44.7001 14.0898 44.7301 14.1498 44.7701 14.2198C44.8601 14.3798 44.9701 14.4498 45.0101 14.4598C45.2401 14.5098 45.4301 14.6798 45.5301 14.9098C45.6601 15.1998 45.8201 15.4698 46.0101 15.7398C46.1101 15.8798 46.2101 15.9998 46.3101 16.0998C46.6801 16.4998 46.8901 17.0598 46.8901 17.6298V19.1998C46.8901 19.5298 46.7101 19.8298 46.4201 19.9598C45.6901 20.2798 44.9101 20.5298 44.1401 20.7798C42.8101 21.1998 41.4301 21.6398 40.9001 22.3498C39.5401 24.1698 38.7801 29.9198 38.5501 32.1798L38.5701 32.1698Z" fill="#009F42"/>
<path d="M27.7899 12.1602C27.7899 12.1602 27.7599 12.1602 27.7499 12.1602C27.5299 12.1502 27.3199 12.0402 27.1699 11.8702L24.2799 8.5002C23.9899 8.1602 24.0299 7.6402 24.3699 7.3402C24.7099 7.0502 25.2299 7.0902 25.5299 7.4302L27.8599 10.1502L33.3199 5.0102C33.6499 4.7002 34.1699 4.7202 34.4799 5.0402C34.7899 5.3702 34.7699 5.8902 34.4499 6.2002L28.3599 11.9302C28.2099 12.0702 28.0099 12.1502 27.7999 12.1502L27.7899 12.1602Z" fill="#009F42"/>
<path d="M29.3799 16.94C24.7099 16.94 20.9099 13.14 20.9099 8.47C20.9099 3.8 24.7099 0 29.3799 0C34.0499 0 37.8499 3.8 37.8499 8.47C37.8499 13.14 34.0499 16.94 29.3799 16.94ZM29.3799 1.64C25.6099 1.64 22.5499 4.7 22.5499 8.47C22.5499 12.24 25.6099 15.3 29.3799 15.3C33.1499 15.3 36.2099 12.24 36.2099 8.47C36.2099 4.7 33.1499 1.64 29.3799 1.64Z" fill="#009F42"/>
</g>
<defs>
<clipPath id="clip0_62_6191">
<rect width="58.77" height="33.81" fill="white"/>
</clipPath>
</defs>
</svg>
