<svg width="91" height="118" viewBox="0 0 91 118" fill="none" xmlns="http://www.w3.org/2000/svg">
<g clip-path="url(#clip0_62_6179)">
<path d="M83.0289 70.7953C77.3181 62.4172 68.5054 57.9169 62.1214 55.6189C61.917 55.5471 61.7246 55.4753 61.5323 55.4035C61.4842 55.3436 61.4241 55.2838 61.3639 55.2359L58.4184 53.0695C60.0415 51.5016 61.4601 49.4789 62.6384 47.0253C62.987 46.3072 63.4319 45.4814 63.8887 44.6076C64.2855 43.8656 64.6822 43.1355 65.0189 42.4533C65.4877 42.6807 66.0167 42.8363 66.6059 42.8363C67.195 42.8363 67.8322 42.6807 68.4694 42.2977C70.8499 40.8614 72.4729 35.8944 72.6653 35.0446C73.2544 32.4953 71.8117 31.1188 71.3548 30.7598C71.1024 30.5563 70.8018 30.4127 70.4651 30.305C70.7056 29.527 71.0062 28.0309 71.5472 25.0387C72.2806 20.9933 72.6052 17.8934 72.497 15.8347C72.4369 14.5541 72.2445 12.663 71.2587 11.0113C70.4411 9.63492 69.1907 8.66545 67.8081 8.30638C67.4595 5.61341 65.3555 3.48297 63.3116 2.322C59.5004 0.13172 55.028 -0.0238734 50.7719 6.40887e-05C41.9232 0.0479391 36.9939 5.37404 34.8418 8.54576C30.5497 14.8772 30.0808 21.6635 29.9125 24.2248V24.4163C29.8885 24.4881 29.9005 24.5719 29.9125 24.6437C29.8283 24.6677 29.7442 24.6916 29.66 24.7275C29.119 24.943 27.3396 25.8526 27.1833 28.4618C27.0992 29.8023 27.7845 34.6736 29.5518 36.5886C30.2491 37.3546 31.2951 37.9171 32.4132 37.9171C32.4733 37.9171 32.5335 37.9171 32.5936 37.9171C32.6537 38.5754 32.7378 39.1499 32.822 39.7962C32.8701 40.1194 32.9182 40.4664 32.9663 40.8494C33.375 44.0451 34.1325 46.75 35.2506 49.0002C35.0101 50.233 35.2867 51.358 35.5391 52.3634C35.6473 52.7943 35.7435 53.1892 35.8036 53.5842L33.6876 54.793C33.327 54.9965 33.1226 55.4035 33.1827 55.8224L33.339 56.9594C33.1947 56.9594 33.0504 56.9594 32.9062 56.9953C32.2569 57.1748 17.0121 61.5195 7.06933 77.4739C6.62449 78.192 -3.85933 95.2714 1.57494 105.804C4.01555 110.532 6.97314 113.32 10.6401 114.35C11.5418 114.601 12.4796 114.733 13.4414 114.757C13.4293 115.834 13.4053 116.923 13.3933 118.024H15.918C15.9301 116.863 15.9541 115.702 15.9661 114.565C18.3226 114.17 20.8353 113.153 23.4924 111.537C30.0928 107.527 36.0561 98.9697 40.1318 91.968C39.8793 100.322 39.8072 108.748 39.7351 116.935V118.024H42.3079V116.959C42.4041 107.312 42.4883 97.33 42.873 87.5276C42.873 87.384 42.861 87.2523 42.8129 87.1207C44.5321 83.8532 45.5541 81.5313 45.6863 81.244C45.9388 80.6695 45.7344 79.9993 45.1934 79.6641C45.0371 79.5684 44.8808 79.4726 44.7245 79.3769L45.7104 77.6294C47.5378 77.3781 49.3172 75.9897 50.9282 74.6253C51.866 88.521 51.9982 102.584 52.1185 116.289V118.024H54.7154V116.265C54.5711 101.938 54.4389 87.1925 53.3688 72.6385C54.3908 71.9203 56.9276 69.4428 57.4085 68.3058C57.4445 68.21 57.4806 68.0903 57.5167 67.9707C57.7211 68.1502 57.8413 68.2699 57.8533 68.2699C58.0457 68.4494 58.2982 68.5452 58.5506 68.5452C58.6588 68.5452 58.767 68.5332 58.8752 68.4973C59.2239 68.3776 59.4884 68.0784 59.5605 67.7193L61.4241 58.0845C67.4474 60.2747 75.671 64.4997 80.961 72.2674C80.961 72.2674 80.973 72.2914 80.985 72.3033C81.0572 72.4111 88.4872 82.9555 88.4872 108.329L88.391 118.048H90.9158L91.012 108.341C91.012 82.3332 83.5338 71.5134 83.0409 70.8432L83.0289 70.7953ZM35.6714 55.9899C35.5993 56.349 35.5031 56.708 35.4069 57.0791L35.2867 56.2054L35.6714 55.9899ZM22.1578 109.371C17.998 111.908 14.3431 112.758 11.3013 111.908C8.35576 111.082 5.90312 108.7 3.79914 104.631C-0.985899 95.3552 9.08914 78.946 9.18532 78.7784C18.5751 63.7217 33.351 59.4609 33.5434 59.401C33.5794 59.401 33.6035 59.3771 33.6275 59.3651L33.9642 61.8426C33.868 62.2975 33.7838 62.7523 33.7477 63.2191C33.6756 63.9132 33.6876 64.6314 33.6876 65.3256C33.6876 66.6541 33.6997 67.9108 33.2548 68.8324C32.9903 69.383 32.3411 70.4961 31.8602 71.286C31.6798 71.1663 31.5596 71.0706 31.4875 71.0107C31.223 70.7833 30.8863 70.6756 30.5377 70.6995C30.189 70.7354 29.8764 70.903 29.66 71.1783L17.6493 86.606L16.6875 81.3158C16.5793 80.6935 15.9782 80.2745 15.353 80.3942C14.7278 80.5019 14.307 81.1004 14.4272 81.7228L15.7618 89.0476L13.7059 91.6927C13.2731 92.2433 13.3813 93.0332 13.9343 93.4641C14.4873 93.895 15.2808 93.7873 15.7016 93.2367L30.9344 73.6678C33.5915 75.4392 40.0957 79.4487 42.9091 81.1722C40.8412 85.5767 32.0405 103.338 22.1578 109.335V109.371ZM55.2684 66.1035C55.2444 66.6421 55.1843 67.061 55.0761 67.3004C54.8957 67.6714 53.982 68.6768 53.1284 69.5027C52.6595 69.9575 52.2147 70.3524 51.9021 70.5679C51.8299 70.6158 51.7698 70.6636 51.6977 70.7115C51.361 70.9509 51.0244 71.2142 50.6878 71.5014C50.3872 71.7408 50.0866 72.0041 49.774 72.2674C48.2351 73.584 46.3115 75.2237 45.013 75.1399C44.5321 75.104 44.0633 75.3554 43.8228 75.7863L42.5604 78.0483C42.5604 78.0483 42.4762 77.9885 42.4282 77.9646C39.4946 76.1573 36.2004 74.1106 34.0002 72.6983C34.4571 71.9323 35.2145 70.6517 35.5512 69.9575C35.6714 69.7061 35.7676 69.4548 35.8517 69.1915C35.984 68.7845 36.0681 68.3656 36.1283 67.9467C36.2485 67.061 36.2485 66.1634 36.2365 65.3375C36.2365 64.6912 36.2365 64.0688 36.2845 63.5063V63.4824C36.4048 62.2257 36.8256 60.957 37.2584 59.6284C37.4868 58.9342 37.7273 58.2281 37.9196 57.51C37.9798 57.2826 38.0399 57.0551 38.088 56.8277C38.1481 56.5764 38.1962 56.3251 38.2322 56.0617C38.2443 55.978 38.2563 55.9061 38.2683 55.8224C38.3404 55.3556 38.3765 54.8768 38.3765 54.3981C38.3765 54.3741 38.3765 54.3502 38.3765 54.3143C38.3765 53.9792 38.3525 53.6321 38.3044 53.285C38.3044 53.2491 38.3044 53.2251 38.2923 53.1892C38.2202 52.7105 38.112 52.2557 37.9918 51.8128C37.9918 51.8009 37.9918 51.7769 37.9798 51.765C37.8836 51.382 37.7994 51.0229 37.7393 50.6878C37.7032 50.4484 37.6792 50.209 37.6792 49.9816C37.6792 49.7422 37.7032 49.5029 37.7754 49.2754C37.8235 49.0959 37.9196 48.9523 38.0278 48.8446C38.124 48.7488 38.2322 48.677 38.3525 48.6531C38.4607 48.6291 38.665 48.5932 39.17 49.2635C39.711 49.9936 40.1318 50.8194 40.4083 51.6931C40.4444 51.8009 40.4805 51.9086 40.5045 52.0283C40.6488 52.5549 40.745 53.0935 40.7931 53.6321C40.8291 54.1108 40.8291 54.5776 40.7931 55.0564C40.769 55.4035 40.7089 55.7505 40.6368 56.0976C40.5406 56.5644 40.7089 57.0432 41.0816 57.3424C41.4543 57.6416 41.9593 57.7015 42.3921 57.51C42.9932 57.2466 43.6665 56.8996 44.3999 56.5046C44.9048 56.2413 45.4338 55.954 45.9749 55.6548C46.3957 55.4274 46.8285 55.1761 47.2613 54.9367C47.4897 54.817 47.7182 54.6853 47.9466 54.5537C48.6199 54.1826 49.3052 53.7996 49.9905 53.4406C51.4332 52.6746 52.8158 51.9804 53.7536 51.6692C53.9459 51.6094 54.1263 51.5495 54.2705 51.5256C54.2705 51.5256 54.2705 51.5256 54.2826 51.5256C54.3547 51.5615 54.523 51.6931 54.5952 51.9325C54.6673 52.1719 54.5952 52.2676 54.5591 52.3036C54.1864 52.7703 53.8497 53.1653 53.5131 53.5244C53.4891 53.5483 53.477 53.5722 53.453 53.5842C52.8879 54.1826 52.3469 54.6734 51.7698 55.176C51.7698 55.176 51.7578 55.188 51.7458 55.2C51.337 55.571 51.2168 56.1575 51.4452 56.6602C51.4692 56.72 51.5053 56.7799 51.5414 56.8397C51.8059 57.2347 52.2868 57.4621 52.7797 57.3903L52.9 57.3663H52.948C53.6694 57.2466 53.97 57.2227 54.1263 57.2706C54.2345 57.3065 54.2705 57.3663 54.3307 57.4741C54.4148 57.6536 54.511 57.9767 54.5952 58.4076C54.5952 58.4316 54.5952 58.4555 54.6072 58.4794C54.6072 58.5034 54.6072 58.5393 54.6192 58.5632C54.6913 58.9462 54.7635 59.3891 54.8356 59.8917C54.9198 60.5261 55.0039 61.2442 55.0761 61.9623C55.1362 62.5488 55.1722 63.1472 55.2083 63.7217C55.2324 64.1407 55.2444 64.5356 55.2564 64.9186C55.2564 65.3615 55.2564 65.7804 55.2444 66.1394L55.2684 66.1035ZM55.7974 49.4789C55.2324 49.084 54.5591 48.9044 53.8978 49.0241C52.1545 49.3353 49.1849 50.975 46.047 52.7225C45.7224 52.902 45.4098 53.0815 45.0972 53.2491C44.7726 53.4286 44.46 53.5962 44.1474 53.7757C43.8709 53.68 43.5944 53.5722 43.3178 53.4645C43.3058 53.2371 43.2697 53.0097 43.2457 52.7943C42.9932 50.987 42.2959 49.2276 41.2018 47.7554C40.8412 47.2647 39.7351 45.7806 37.8475 46.1755C37.5109 46.2474 37.1983 46.367 36.9097 46.5346C36.2365 44.8231 35.7555 42.8243 35.467 40.5383C35.4189 40.1433 35.3708 39.7842 35.3227 39.4611C35.1424 38.1325 35.0101 37.175 34.9981 35.2002C34.9981 34.506 34.433 33.9554 33.7237 33.9554C33.0264 33.9554 32.4613 34.5299 32.4733 35.2241C32.4733 35.284 32.4733 35.3438 32.4733 35.4037C32.0165 35.4515 31.6318 35.1403 31.4153 34.901C30.3814 33.7879 29.636 29.7903 29.7081 28.6293C29.7803 27.5282 30.3573 27.1692 30.6098 27.0734C30.7781 27.0136 31.2711 26.9657 31.74 27.1692C32.0886 27.3247 32.3291 27.5522 32.4613 27.8992C32.7138 28.5456 33.4472 28.8687 34.0964 28.6174C34.7336 28.366 35.0462 27.6718 34.8298 27.0375C36.0802 25.2661 37.2824 23.9256 39.0858 23.0998C40.8291 22.3816 42.4883 22.0465 44.0873 21.7234C44.436 21.6516 44.7846 21.5797 45.1333 21.5079C44.977 21.8909 45.013 22.3218 45.2295 22.6689C45.4579 23.028 45.8667 23.2554 46.2875 23.2554C46.3476 23.2554 46.3957 23.2554 46.4558 23.2554C51.325 23.2554 55.7133 22.3457 59.789 20.4666C59.8611 21.8191 60.0415 23.2554 60.2098 24.4163C60.3781 25.5175 60.5103 26.3553 60.6426 27.0016C60.6185 26.9896 60.6065 26.9657 60.5825 26.9537C59.284 26.1877 57.8052 25.9842 56.9396 26.0321C56.5549 26.0561 56.2663 26.3792 56.2904 26.7622C56.3144 27.1452 56.639 27.4325 57.0237 27.4085C57.5287 27.3726 58.7791 27.4923 59.8852 28.1386C59.9934 28.1985 60.1136 28.2344 60.2338 28.2344C60.4743 28.2344 60.7027 28.1147 60.8349 27.8992C60.8349 27.8873 60.847 27.8633 60.859 27.8394C61.0994 28.6174 61.4 28.9046 61.941 29.0123C62.3378 29.0961 62.8548 28.8927 63.3357 28.6054C63.7084 29.7544 64.3215 31.1547 65.2232 32.2319C65.2713 32.2798 65.3194 32.3277 65.3675 32.3756C65.3675 32.6987 65.4998 33.0219 65.7522 33.2732C66.2572 33.752 67.0507 33.74 67.5436 33.2493C68.1448 32.6269 69.4913 32.591 69.7919 32.7586C69.9963 32.9261 70.4652 33.4288 70.2127 34.506C69.9001 35.8345 68.3972 39.4371 67.1589 40.1792C66.6539 40.4904 66.2452 40.3228 66.0167 40.1672C66.0408 40.0715 66.0769 39.9757 66.1009 39.88C66.2692 39.2097 65.8484 38.5275 65.1751 38.3599C64.5019 38.1924 63.8166 38.6113 63.6483 39.2815C63.4319 40.1553 62.4941 41.9147 61.6645 43.4586C61.2077 44.3204 60.7267 45.2061 60.3661 45.9721C59.6687 47.4203 58.767 48.9284 57.6249 50.2689C57.4085 50.5202 57.1921 50.7596 56.9636 50.999C56.8915 50.8314 56.8194 50.6638 56.7232 50.4963C56.4827 50.0893 56.1581 49.7542 55.8094 49.5029L55.7974 49.4789ZM59.4523 57.3783L57.8774 65.553C57.8774 65.553 57.8172 65.5051 57.7932 65.4812C57.8172 64.4997 57.7692 63.3986 57.685 62.2855C57.6489 61.8786 57.6129 61.4836 57.5768 61.0766C57.3965 59.3891 57.1199 57.8331 56.8314 56.8756L56.9757 56.6602L57.9134 55.2359L59.6207 56.4926L59.4523 57.3544V57.3783Z" fill="#303030"/>
<path d="M79.1336 90.8069C78.4363 90.8548 77.9073 91.4413 77.9434 92.1354C78.1959 96.3365 78.3522 106.414 78.4243 118.012H80.9491C80.889 106.354 80.7327 96.2048 80.4682 91.9918C80.4201 91.2976 79.8189 90.771 79.1336 90.8069Z" fill="#303030"/>
<path d="M45.0372 25.9723C44.3639 25.9005 43.5463 26.5348 43.2337 27.8514C42.8129 29.6108 43.2698 30.5204 44.2196 30.7358C45.0011 30.9154 45.7826 30.281 46.0952 28.5097C46.4198 26.6665 45.47 26.0082 45.0372 25.9723Z" fill="#303030"/>
<path d="M43.5825 24.979C44.8569 24.8115 46.0471 25.1945 46.504 25.4099C46.6002 25.4578 46.7084 25.4817 46.8166 25.4817C47.0691 25.4817 47.3215 25.3381 47.4418 25.0987C47.6101 24.7516 47.4658 24.3447 47.1292 24.1771C46.3477 23.7941 44.917 23.4111 43.4141 23.6146C43.0294 23.6625 42.7649 24.0096 42.813 24.3926C42.8611 24.7756 43.2098 25.0389 43.5945 24.991L43.5825 24.979Z" fill="#303030"/>
<path d="M58.8392 31.1669C59.0556 29.8264 58.5506 28.9287 57.9014 28.7372C57.4806 28.6175 56.3625 28.8569 55.9417 30.6881C55.5449 32.4356 56.0258 33.3332 56.8193 33.4529C57.7812 33.6085 58.5506 32.9502 58.8392 31.1669Z" fill="#303030"/>
<path d="M51.3972 33.333C51.0125 33.2971 50.6759 33.5844 50.6398 33.9554C50.5436 34.9967 50.2671 37.5819 50.195 37.8931C50.1469 38.0367 50.0868 38.0846 50.0266 38.0966C49.9184 38.1325 49.7862 38.0966 49.7261 38.0607C49.4135 37.8333 48.9807 37.9171 48.7643 38.2163C48.5479 38.5275 48.62 38.9583 48.9206 39.1738C49.2091 39.3772 49.5698 39.485 49.9184 39.485C50.1108 39.485 50.3032 39.4491 50.4835 39.3892C51.0005 39.2097 51.3612 38.8147 51.5295 38.2641C51.6858 37.7495 52.0224 34.0871 52.0344 34.0511C52.0705 33.6681 51.782 33.333 51.4093 33.3091L51.3972 33.333Z" fill="#303030"/>
<path d="M48.7282 43.183C48.103 43.0035 47.3937 43.207 46.8647 43.7336C46.3717 44.2243 45.8908 45.517 46.2154 46.5104C46.4439 47.1806 46.9969 47.6115 47.7664 47.7192C47.8505 47.7192 47.9227 47.7312 48.0068 47.7312C48.4517 47.7312 48.8484 47.5516 49.1851 47.1926C49.8343 46.4864 50.0868 45.1818 49.9545 44.6193C49.7862 43.8772 49.3413 43.3506 48.7162 43.1711L48.7282 43.183ZM48.3435 46.4146C48.1872 46.5822 48.0549 46.5822 47.9587 46.5702C47.5139 46.5104 47.3937 46.3069 47.3336 46.1274C47.1532 45.5648 47.5019 44.727 47.6942 44.5355C47.9106 44.3201 48.1872 44.2243 48.4156 44.2842C48.6921 44.368 48.8124 44.6911 48.8484 44.8706C48.8845 45.0861 48.7402 46.0077 48.3435 46.4146Z" fill="#303030"/>
</g>
<defs>
<clipPath id="clip0_62_6179">
<rect width="91" height="118" fill="white"/>
</clipPath>
</defs>
</svg>
