<svg width="40" height="40" viewBox="0 0 40 40" fill="none" xmlns="http://www.w3.org/2000/svg">
<g clip-path="url(#clip0_62_6204)">
<path d="M19.77 39.55C8.87 39.55 0 30.68 0 19.77C0 8.86 8.87 0 19.77 0C30.67 0 39.54 8.87 39.54 19.77C39.54 30.67 30.67 39.54 19.77 39.54V39.55ZM19.77 2.07C10.01 2.07 2.07 10.01 2.07 19.77C2.07 29.53 10.01 37.47 19.77 37.47C29.53 37.47 37.47 29.53 37.47 19.77C37.47 10.01 29.53 2.07 19.77 2.07Z" fill="#009F42"/>
<path d="M19.7701 19.6802C19.4701 19.6802 19.1801 19.5502 18.9801 19.3202L14.1501 13.7002C13.7801 13.2702 13.8301 12.6102 14.2601 12.2402C14.6901 11.8702 15.3501 11.9202 15.7201 12.3502L19.7701 17.0602L23.8201 12.3502C24.1901 11.9202 24.8501 11.8702 25.2801 12.2402C25.7101 12.6102 25.7601 13.2702 25.3901 13.7002L20.5601 19.3202C20.3601 19.5502 20.0801 19.6802 19.7701 19.6802Z" fill="#009F42"/>
<path d="M24.78 20.79H14.77C14.2 20.79 13.73 20.33 13.73 19.75C13.73 19.17 14.19 18.71 14.77 18.71H24.78C25.35 18.71 25.82 19.17 25.82 19.75C25.82 20.33 25.36 20.79 24.78 20.79Z" fill="#009F42"/>
<path d="M24.78 25.4003H14.77C14.2 25.4003 13.73 24.9403 13.73 24.3603C13.73 23.7803 14.19 23.3203 14.77 23.3203H24.78C25.35 23.3203 25.82 23.7803 25.82 24.3603C25.82 24.9403 25.36 25.4003 24.78 25.4003Z" fill="#009F42"/>
<path d="M19.77 29.5C19.2 29.5 18.73 29.04 18.73 28.46V19C18.73 18.43 19.19 17.96 19.77 17.96C20.35 17.96 20.81 18.42 20.81 19V28.46C20.81 29.03 20.35 29.5 19.77 29.5Z" fill="#009F42"/>
</g>
<defs>
<clipPath id="clip0_62_6204">
<rect width="39.55" height="39.55" fill="white"/>
</clipPath>
</defs>
</svg>
